#N canvas 65 91 450 300 12;
#X obj 150 87 gemhead;
#X msg 78 176 draw line;
#X floatatom 309 94 5 0 0 0 - - -, f 5;
#X obj 166 237 rotateXYZ 0 0 0;
#X obj 154 191 translateXYZ 0 0 0;
#X obj 412 122 sel 165;
#X obj 354 211 * 100;
#X obj 156 113 alpha;
#X obj 381 156 counter_limit 10 50;
#X obj 399 184 expr 1-$f1*0.02;
#X msg 246 104 1;
#X msg 211 104 0;
#X obj 273 55 counter_limit 1.5 165;
#X obj 211 15 inlet;
#X obj 151 151 colorRGB 1 1 1 0;
#X obj 337 151 / -50;
#X obj 159 267 square 0.3;
#X connect 0 0 1 0;
#X connect 0 0 7 0;
#X connect 1 0 16 0;
#X connect 2 0 5 0;
#X connect 2 0 15 0;
#X connect 3 0 16 0;
#X connect 4 0 3 0;
#X connect 5 0 8 0;
#X connect 6 0 3 3;
#X connect 7 0 14 0;
#X connect 8 0 6 0;
#X connect 8 0 9 0;
#X connect 9 0 14 4;
#X connect 10 0 14 4;
#X connect 11 0 3 3;
#X connect 12 0 2 0;
#X connect 13 0 12 0;
#X connect 13 0 10 0;
#X connect 13 0 11 0;
#X connect 14 0 4 0;
#X connect 15 0 4 2;
