#N canvas 107 92 764 649 12;
#X msg 14 421 draw line;
#X obj 98 319 alpha;
#X obj 92 528 translateXYZ 0 0 0;
#X obj 98 607 square 0.3;
#X obj 92 294 gemhead;
#X obj 64 348 colorRGB 1 1 1 0;
#X obj 597 260 line 0 1;
#X obj 683 329 sel 1;
#X msg 679 287 set 0;
#X floatatom 595 329 5 0 0 0 - - -, f 5;
#X obj 629 383 t b b;
#X obj 263 96 unpack 0 0 0 0 0;
#X obj 254 251 route 0 1 2 3;
#X obj 390 163 f;
#X obj 431 162 f;
#X obj 424 223 pack;
#X obj 494 107 t b b;
#X obj 68 11 inlet;
#X obj 597 291 t a a;
#X obj 427 188 * 1000;
#X obj 425 250 line 0 1;
#X msg 515 261 set 0;
#X obj 369 256 t a a;
#X obj 463 315 sel;
#X obj 367 136 t a a;
#X floatatom 335 295 5 0 0 0 - - -, f 5;
#X obj 295 358 tgl 15 0 empty empty empty 17 7 0 10 -262144 -1 -1 0
1;
#X obj 264 390 spigot 0;
#X obj 365 360 tgl 15 0 empty empty empty 17 7 0 10 -262144 -1 -1 0
1;
#X obj 334 392 spigot 0;
#X obj 433 359 tgl 15 0 empty empty empty 17 7 0 10 -262144 -1 -1 0
1;
#X obj 402 391 spigot 0;
#X obj 229 358 tgl 15 0 empty empty empty 17 7 0 10 -262144 -1 -1 0
1;
#X obj 198 390 spigot 0;
#X obj 199 426 * 0.6;
#X obj 202 467 +;
#X obj 342 460 +;
#X obj 403 427 * -0.6;
#X obj 207 165 t a a;
#X obj 262 160 t a a;
#X floatatom 357 505 5 0 0 0 - - -, f 5;
#X obj 485 357 t b b b;
#X msg 515 385 0;
#X obj 517 420 t a a a a;
#X floatatom 202 491 5 0 0 0 - - -, f 5;
#X msg 120 13 0 0 3 4 0.1;
#X obj 315 314 t f f f f;
#X obj 480 492 line 1 1;
#X obj 480 520 t a a;
#X obj 527 561 sel 0;
#X floatatom 444 563 5 0 0 0 - - -, f 5;
#X msg 565 520 set 1;
#X obj 528 590 t b b;
#X msg 597 231 1 100;
#X msg 481 465 0 200;
#X obj 182 45 spigot 1;
#X msg 291 66 0;
#X obj 179 72 t b a b;
#X msg 528 614 1;
#X obj 269 425 * 0.6;
#X obj 335 428 * -0.6;
#X obj 90 481 rotateXYZ;
#X obj 141 406 inlet;
#X connect 0 0 3 0;
#X connect 1 0 5 0;
#X connect 2 0 3 0;
#X connect 4 0 0 0;
#X connect 4 0 1 0;
#X connect 5 0 61 0;
#X connect 6 0 18 0;
#X connect 7 0 10 0;
#X connect 8 0 6 0;
#X connect 9 0 5 4;
#X connect 10 0 16 0;
#X connect 10 1 8 0;
#X connect 11 0 38 0;
#X connect 11 1 39 0;
#X connect 11 2 12 0;
#X connect 11 3 24 0;
#X connect 11 4 14 1;
#X connect 12 0 32 0;
#X connect 12 1 26 0;
#X connect 12 2 28 0;
#X connect 12 3 30 0;
#X connect 13 0 15 0;
#X connect 14 0 19 0;
#X connect 15 0 20 0;
#X connect 16 0 13 0;
#X connect 16 1 14 0;
#X connect 17 0 55 0;
#X connect 18 0 7 0;
#X connect 18 1 9 0;
#X connect 19 0 15 1;
#X connect 20 0 22 0;
#X connect 21 0 20 0;
#X connect 22 0 23 0;
#X connect 22 1 25 0;
#X connect 23 0 41 0;
#X connect 24 0 13 1;
#X connect 24 1 23 1;
#X connect 25 0 46 0;
#X connect 26 0 27 1;
#X connect 27 0 59 0;
#X connect 28 0 29 1;
#X connect 29 0 60 0;
#X connect 30 0 31 1;
#X connect 31 0 37 0;
#X connect 32 0 33 1;
#X connect 33 0 34 0;
#X connect 34 0 35 0;
#X connect 35 0 2 1;
#X connect 35 0 44 0;
#X connect 36 0 2 2;
#X connect 36 0 40 0;
#X connect 37 0 36 0;
#X connect 38 0 2 1;
#X connect 38 1 35 1;
#X connect 39 0 2 2;
#X connect 39 1 36 1;
#X connect 41 0 54 0;
#X connect 41 1 21 0;
#X connect 41 2 42 0;
#X connect 42 0 43 0;
#X connect 43 0 32 0;
#X connect 43 1 26 0;
#X connect 43 2 28 0;
#X connect 43 3 30 0;
#X connect 45 0 55 0;
#X connect 46 0 33 0;
#X connect 46 1 27 0;
#X connect 46 2 29 0;
#X connect 46 3 31 0;
#X connect 47 0 48 0;
#X connect 48 0 49 0;
#X connect 48 1 50 0;
#X connect 49 0 52 0;
#X connect 50 0 5 4;
#X connect 51 0 47 0;
#X connect 52 0 58 0;
#X connect 52 1 51 0;
#X connect 53 0 6 0;
#X connect 54 0 47 0;
#X connect 55 0 57 0;
#X connect 56 0 55 1;
#X connect 57 0 53 0;
#X connect 57 1 11 0;
#X connect 57 2 56 0;
#X connect 58 0 55 1;
#X connect 59 0 36 0;
#X connect 60 0 35 0;
#X connect 61 0 2 0;
#X connect 62 0 61 3;
