#N canvas 98 224 450 399 12;
#X obj 77 322 clone 20 move_mode;
#X obj 194 49 bng 15 250 50 0 empty empty empty 17 7 0 10 -262144 -1
-1;
#X obj 227 113 + 1;
#X obj 133 108 i;
#X msg 151 45 0;
#X obj 182 77 metro 50;
#X obj 191 11 loadbang;
#X floatatom 77 135 5 0 0 0 - - -, f 5;
#X obj 133 132 % 20;
#X msg 81 275 \$1 0 0 0 4 0.4;
#X obj 204 205 * 18;
#X msg 391 291 \$1 \$2;
#X obj 182 239 pack;
#X obj 31 32 gwin;
#X obj 286 197 * -18;
#X obj 260 230 pack;
#X msg 207 273 \$1 \$2;
#X obj 140 157 t f f f f f f;
#X msg 265 296 \$1 0 0 0 4 0.4;
#X obj 271 332 clone 20 move_mode;
#X connect 1 0 5 0;
#X connect 2 0 3 1;
#X connect 3 0 2 0;
#X connect 3 0 7 0;
#X connect 3 0 8 0;
#X connect 4 0 5 0;
#X connect 5 0 3 0;
#X connect 6 0 1 0;
#X connect 8 0 17 0;
#X connect 9 0 0 0;
#X connect 10 0 12 1;
#X connect 11 0 19 1;
#X connect 12 0 16 0;
#X connect 14 0 15 1;
#X connect 15 0 11 0;
#X connect 16 0 0 1;
#X connect 17 0 9 0;
#X connect 17 1 12 0;
#X connect 17 2 10 0;
#X connect 17 3 18 0;
#X connect 17 4 15 0;
#X connect 17 5 14 0;
#X connect 18 0 19 0;
