#N canvas 434 122 651 502 12;
#X obj 30 51 gwin;
#X obj 267 42 bng 15 250 50 0 empty empty empty 17 7 0 10 -262144 -1
-1;
#X floatatom 263 239 5 0 0 0 - - -, f 5;
#X obj 300 106 + 1;
#X obj 206 101 i;
#X floatatom 144 219 5 0 0 0 - - -, f 5;
#X obj 261 178 % 4;
#X msg 224 38 0;
#X obj 216 329 pack 0 0 0 0;
#X obj 335 187 t a a;
#X obj 350 225 route 0 1 2 3;
#X obj 272 303 unpack;
#X floatatom 184 134 5 0 0 0 - - -, f 5;
#X msg 392 366 0.3 2.1;
#X msg 424 389 -2.1 0.3;
#X msg 453 420 -0.3 -2.1;
#X msg 491 451 2.1 -0.3;
#X obj 255 70 metro 50;
#X msg 182 368 \$1 \$3 \$4 \$2 4 0.4;
#X msg 316 381 all \$1;
#X obj 216 225 * 1.5;
#X obj 264 4 loadbang;
#X obj 212 176 % 20;
#X obj 176 426 clone 20 move_mode;
#X obj 226 133 t a a a a;
#X obj 469 146 i;
#X obj 471 123 / 4;
#X obj 470 168 % 4;
#X floatatom 470 192 5 0 0 0 - - -, f 5;
#X obj 470 239 + 0.3;
#X msg 454 265 set 0.3 \$1;
#X obj 470 215 * 0.6;
#X obj 543 238 * -1;
#X msg 489 311 set \$1 0.3;
#X msg 492 348 set -0.3 \$1;
#X msg 550 391 set \$1 -0.3;
#X obj 542 270 - 0.3;
#X connect 1 0 17 0;
#X connect 2 0 8 1;
#X connect 3 0 4 1;
#X connect 4 0 12 0;
#X connect 4 0 24 0;
#X connect 6 0 9 0;
#X connect 7 0 17 0;
#X connect 8 0 18 0;
#X connect 9 0 2 0;
#X connect 9 1 10 0;
#X connect 10 0 13 0;
#X connect 10 1 14 0;
#X connect 10 2 15 0;
#X connect 10 3 16 0;
#X connect 11 0 8 2;
#X connect 11 1 8 3;
#X connect 12 0 20 0;
#X connect 13 0 11 0;
#X connect 14 0 11 0;
#X connect 15 0 11 0;
#X connect 16 0 11 0;
#X connect 17 0 4 0;
#X connect 18 0 23 0;
#X connect 19 0 23 1;
#X connect 20 0 19 0;
#X connect 21 0 1 0;
#X connect 22 0 5 0;
#X connect 22 0 8 0;
#X connect 24 0 22 0;
#X connect 24 1 6 0;
#X connect 24 2 26 0;
#X connect 24 3 3 0;
#X connect 25 0 27 0;
#X connect 26 0 25 0;
#X connect 27 0 28 0;
#X connect 28 0 31 0;
#X connect 29 0 30 0;
#X connect 29 0 35 0;
#X connect 30 0 13 0;
#X connect 31 0 29 0;
#X connect 31 0 32 0;
#X connect 32 0 36 0;
#X connect 33 0 14 0;
#X connect 34 0 15 0;
#X connect 35 0 16 0;
#X connect 36 0 33 0;
#X connect 36 0 34 0;
