#N canvas 668 35 562 498 12;
#X obj 194 49 bng 15 250 50 0 empty empty empty 17 7 0 10 -262144 -1
-1;
#X obj 227 113 + 1;
#X obj 133 108 i;
#X msg 252 40 0;
#X obj 182 77 metro 50;
#X floatatom 77 135 5 0 0 0 - - -, f 5;
#X obj 133 132 % 20;
#X obj 172 199 * 18;
#X obj 150 233 pack;
#X obj 31 32 gwin;
#X msg 175 267 \$1 \$2;
#X obj 281 312 pack;
#X msg 306 346 \$1 \$2;
#X obj 303 278 * -18;
#X obj 140 157 t f f f f f f f f f;
#X obj 468 279 pack;
#X msg 493 313 \$1 \$2;
#X obj 490 245 * 18;
#X msg 359 313 \$1 2 0 2 0.1 0.4;
#X msg 172 346 \$1 3 0 2 0.1 0.4;
#X msg 41 267 \$1 4 0 2 0.1 0.4;
#X obj 191 11 inlet;
#X obj 252 14 inlet;
#X msg 269 94 0;
#X obj 257 67 delay 500;
#X obj 176 395 clone 20 move_mode_text;
#X obj 363 362 clone 20 move_mode_text;
#X obj 45 316 clone 20 move_mode_text;
#X connect 0 0 4 0;
#X connect 1 0 2 1;
#X connect 2 0 1 0;
#X connect 2 0 5 0;
#X connect 2 0 6 0;
#X connect 3 0 4 0;
#X connect 3 0 24 0;
#X connect 4 0 2 0;
#X connect 6 0 14 0;
#X connect 7 0 8 1;
#X connect 8 0 10 0;
#X connect 10 0 27 1;
#X connect 11 0 12 0;
#X connect 12 0 25 1;
#X connect 13 0 11 1;
#X connect 14 0 20 0;
#X connect 14 1 8 0;
#X connect 14 2 7 0;
#X connect 14 3 19 0;
#X connect 14 4 11 0;
#X connect 14 5 13 0;
#X connect 14 6 18 0;
#X connect 14 7 15 0;
#X connect 14 8 17 0;
#X connect 15 0 16 0;
#X connect 16 0 26 1;
#X connect 17 0 15 1;
#X connect 18 0 26 0;
#X connect 19 0 25 0;
#X connect 20 0 27 0;
#X connect 21 0 0 0;
#X connect 22 0 3 0;
#X connect 23 0 2 1;
#X connect 24 0 23 0;
