#N canvas 523 93 694 542 12;
#X obj 40 56 gwin;
#X obj 267 41 bng 15 250 50 0 empty empty empty 17 7 0 10 -262144 -1
-1;
#X floatatom 263 239 5 0 0 0 - - -, f 5;
#X obj 300 106 + 1;
#X obj 206 101 i;
#X floatatom 144 219 5 0 0 0 - - -, f 5;
#X obj 261 178 % 4;
#X msg 224 38 0;
#X obj 216 329 pack 0 0 0 0;
#X obj 335 187 t a a;
#X obj 350 225 route 0 1 2 3;
#X obj 272 303 unpack;
#X floatatom 184 134 5 0 0 0 - - -, f 5;
#X msg 491 333 -0.9 0.9;
#X msg 532 416 -0.9 -0.9;
#X msg 460 478 0.9 -0.9;
#X obj 255 70 metro 50;
#X msg 182 368 \$1 \$3 \$4 \$2 4 0.4;
#X msg 316 381 all \$1;
#X obj 216 225 * 1.5;
#X obj 264 4 loadbang;
#X obj 191 169 % 20;
#X obj 176 426 clone 20 move_mode;
#X obj 226 133 t a a a a;
#X obj 496 112 i;
#X floatatom 496 136 5 0 0 0 - - -, f 5;
#X obj 495 62 % 20;
#X obj 496 87 / 4;
#X obj 477 205 * 0.6;
#X obj 531 202 * -0.6;
#X obj 476 230 + 0.3;
#X obj 531 228 + -0.3;
#X obj 402 298 pack;
#X obj 403 276 t f f;
#X msg 402 341 0.9 0.9;
#X msg 396 321 set \$1 \$2;
#X obj 548 369 pack;
#X obj 553 345 t f f;
#X msg 531 390 set \$1 \$2;
#X obj 498 286 pack;
#X obj 495 165 t f f;
#X msg 496 310 set \$2 \$1;
#X obj 466 428 pack;
#X msg 464 452 set \$1 \$2;
#X connect 1 0 16 0;
#X connect 2 0 8 1;
#X connect 3 0 4 1;
#X connect 4 0 12 0;
#X connect 4 0 23 0;
#X connect 6 0 9 0;
#X connect 7 0 16 0;
#X connect 8 0 17 0;
#X connect 9 0 2 0;
#X connect 9 1 10 0;
#X connect 10 0 34 0;
#X connect 10 1 13 0;
#X connect 10 2 14 0;
#X connect 10 3 15 0;
#X connect 11 0 8 2;
#X connect 11 1 8 3;
#X connect 12 0 19 0;
#X connect 13 0 11 0;
#X connect 14 0 11 0;
#X connect 15 0 11 0;
#X connect 16 0 4 0;
#X connect 17 0 22 0;
#X connect 18 0 22 1;
#X connect 19 0 18 0;
#X connect 20 0 1 0;
#X connect 21 0 5 0;
#X connect 21 0 8 0;
#X connect 23 0 21 0;
#X connect 23 1 6 0;
#X connect 23 2 26 0;
#X connect 23 3 3 0;
#X connect 24 0 25 0;
#X connect 25 0 40 0;
#X connect 26 0 27 0;
#X connect 27 0 24 0;
#X connect 28 0 30 0;
#X connect 29 0 31 0;
#X connect 30 0 33 0;
#X connect 30 0 39 0;
#X connect 30 0 42 0;
#X connect 31 0 37 0;
#X connect 31 0 39 1;
#X connect 31 0 42 1;
#X connect 32 0 35 0;
#X connect 33 0 32 0;
#X connect 33 1 32 1;
#X connect 34 0 11 0;
#X connect 35 0 34 0;
#X connect 36 0 38 0;
#X connect 37 0 36 0;
#X connect 37 1 36 1;
#X connect 38 0 14 0;
#X connect 39 0 41 0;
#X connect 40 0 28 0;
#X connect 40 1 29 0;
#X connect 41 0 13 0;
#X connect 42 0 43 0;
#X connect 43 0 15 0;
