#N canvas 65 165 588 428 12;
#X obj 25 126 gwin;
#X obj 267 41 bng 15 250 50 0 empty empty empty 17 7 0 10 -262144 -1
-1;
#X floatatom 263 239 5 0 0 0 - - -, f 5;
#X obj 302 127 + 1;
#X obj 208 122 i;
#X floatatom 144 219 5 0 0 0 - - -, f 5;
#X obj 288 176 % 4;
#X msg 224 38 0;
#X obj 216 329 pack 0 0 0 0;
#X obj 335 187 t a a;
#X obj 350 225 route 0 1 2 3;
#X obj 272 303 unpack;
#X floatatom 186 155 5 0 0 0 - - -, f 5;
#X obj 228 154 t a a a;
#X msg 331 264 0.3 0.3;
#X msg 363 287 -0.3 0.3;
#X msg 392 318 -0.3 -0.3;
#X msg 430 349 0.3 -0.3;
#X obj 255 70 metro 50;
#X obj 193 190 % 30;
#X msg 182 368 \$1 \$3 \$4 \$2 4 0.4;
#X obj 176 426 clone 30 move_mode;
#X msg 316 381 all \$1;
#X obj 216 225 * 1.5;
#X obj 264 4 loadbang;
#X connect 1 0 18 0;
#X connect 2 0 8 1;
#X connect 3 0 4 1;
#X connect 4 0 12 0;
#X connect 4 0 13 0;
#X connect 6 0 9 0;
#X connect 7 0 18 0;
#X connect 8 0 20 0;
#X connect 9 0 2 0;
#X connect 9 1 10 0;
#X connect 10 0 14 0;
#X connect 10 1 15 0;
#X connect 10 2 16 0;
#X connect 10 3 17 0;
#X connect 11 0 8 2;
#X connect 11 1 8 3;
#X connect 12 0 23 0;
#X connect 13 0 19 0;
#X connect 13 1 6 0;
#X connect 13 2 3 0;
#X connect 14 0 11 0;
#X connect 15 0 11 0;
#X connect 16 0 11 0;
#X connect 17 0 11 0;
#X connect 18 0 4 0;
#X connect 19 0 5 0;
#X connect 19 0 8 0;
#X connect 20 0 21 0;
#X connect 22 0 21 1;
#X connect 23 0 22 0;
#X connect 24 0 1 0;
#X connect 24 0 0 0;
