#N canvas 606 205 450 300 12;
#X obj 87 76 inlet;
#X obj 101 137 metro \$1;
#X obj 160 77 inlet;
#X obj 97 195 i;
#X obj 169 193 + 1;
#X obj 97 252 outlet;
#X connect 0 0 1 0;
#X connect 1 0 3 0;
#X connect 2 0 1 1;
#X connect 3 0 4 0;
#X connect 3 0 5 0;
#X connect 4 0 3 1;
