#N canvas 174 196 561 500 12;
#X obj 43 62 gwin;
#X obj 171 51 gemhead;
#X msg 27 172 draw line;
#X obj 186 233 translateXYZ 0 0 -2;
#X obj 179 119 rotateXYZ 0 0 0;
#X floatatom 392 292 5 0 0 0 - - -, f 5;
#X obj 67 24 loadbang;
#X obj 181 149 translateXYZ 0 0 5;
#X obj 176 313 translateXYZ 0 0 -2;
#X obj 138 396 translateXYZ 0 0 -2;
#X obj 377 263 expr 10-$f1/100;
#X obj 440 15 bng 15 250 50 0 empty empty empty 17 7 0 10 -262144 -1
-1;
#X obj 432 133 i;
#X obj 493 171 + 1;
#X floatatom 382 161 5 0 0 0 - - -, f 5;
#X msg 476 9 0;
#X msg 394 78 0;
#X obj 421 172 t a a;
#X obj 487 77 sel 600;
#X msg 518 142 -80;
#X obj 449 108 t a b;
#X msg 483 142 1;
#X floatatom 289 65 5 0 0 0 - - -, f 5;
#X obj 435 45 metro 1;
#X obj 180 202 cylinder 1 10;
#X obj 179 273 cylinder 1 10;
#X obj 140 361 cylinder 1 10;
#X obj 131 437 cylinder 1 10;
#X connect 1 0 2 0;
#X connect 1 0 4 0;
#X connect 2 0 24 0;
#X connect 2 0 25 0;
#X connect 2 0 26 0;
#X connect 2 0 27 0;
#X connect 3 0 25 0;
#X connect 4 0 7 0;
#X connect 6 0 0 0;
#X connect 7 0 24 0;
#X connect 8 0 26 0;
#X connect 9 0 27 0;
#X connect 10 0 5 0;
#X connect 10 0 7 3;
#X connect 11 0 23 0;
#X connect 12 0 17 0;
#X connect 12 0 14 0;
#X connect 13 0 20 0;
#X connect 14 0 10 0;
#X connect 15 0 23 0;
#X connect 16 0 12 0;
#X connect 17 0 13 0;
#X connect 17 1 18 0;
#X connect 18 0 19 0;
#X connect 19 0 13 1;
#X connect 20 0 12 1;
#X connect 20 1 21 0;
#X connect 21 0 13 1;
#X connect 22 0 4 3;
#X connect 23 0 12 0;
#X connect 24 0 3 0;
#X connect 25 0 8 0;
#X connect 26 0 9 0;
