#N canvas 133 233 450 464 12;
#X obj 228 159 pix_texture;
#X obj 38 84 gwin;
#X obj 239 63 gemhead;
#N canvas 526 164 587 366 image 0;
#X obj 77 48 inlet;
#X obj 77 344 outlet;
#X obj 77 205 pix_image examples/data/fractal.JPG;
#X obj 223 55 inlet;
#X msg 223 123 open \$1;
#X obj 223 100 openpanel;
#X text 312 85 re-send the image to the [pix_]-object;
#X text 231 37 open;
#X text 79 30 gemlist;
#X connect 0 0 2 0;
#X connect 2 0 1 0;
#X connect 3 0 5 0;
#X connect 4 0 2 0;
#X connect 5 0 4 0;
#X restore 246 111 pd image;
#X obj 309 60 bng 15 250 50 0 empty empty empty 17 7 0 10 -262144 -1
-1;
#X obj 225 216 rotateXYZ 0 0 0;
#X floatatom 351 136 5 0 0 0 - - -, f 5;
#X floatatom 368 159 5 0 0 0 - - -, f 5;
#X msg 77 24 lighting 1;
#X obj 230 388 sphere 1 20;
#X msg 76 48 lighting 0;
#X obj 59 155 gemhead;
#X msg 146 294 1 1 1;
#X obj 73 269 tgl 15 0 empty empty empty 0 -6 0 8 -262144 -1 -1 0 1
;
#X msg 73 290 debug \$1;
#X floatatom 139 159 5 0 0 0 - - -, f 5;
#X obj 59 177 rotateXYZ 0 -120 0;
#X msg 145 271 1 1 0;
#X obj 59 316 world_light;
#X obj 68 246 tgl 20 0 empty \$0-onoff empty 17 7 0 10 -262144 -1 -1
0 1;
#X floatatom 125 147 5 0 0 0 - - -, f 5;
#X floatatom 270 358 5 0 0 0 - - -, f 5;
#X floatatom 340 106 5 0 0 0 - - -, f 5;
#X obj 204 278 cube;
#X obj 208 337 translateXYZ 1 0 0;
#X connect 0 0 5 0;
#X connect 2 0 3 0;
#X connect 3 0 0 0;
#X connect 4 0 3 1;
#X connect 5 0 23 0;
#X connect 6 0 5 2;
#X connect 7 0 5 3;
#X connect 8 0 1 0;
#X connect 10 0 1 0;
#X connect 11 0 16 0;
#X connect 12 0 18 1;
#X connect 13 0 14 0;
#X connect 14 0 18 0;
#X connect 15 0 16 2;
#X connect 16 0 18 0;
#X connect 17 0 18 1;
#X connect 19 0 18 0;
#X connect 20 0 16 1;
#X connect 21 0 9 1;
#X connect 22 0 5 1;
#X connect 23 0 24 0;
#X connect 24 0 9 0;
