#N canvas 484 50 799 575 12;
#X obj 11 122 gemhead;
#X floatatom 242 522 5 0.2 2 0 - - -, f 5;
#X msg 123 415 draw line;
#X obj 168 492 translateXYZ;
#X floatatom 233 451 5 -3 3 0 - - -, f 5;
#X floatatom 180 445 5 -3 3 0 - - -, f 5;
#X obj 314 210 random 100;
#X obj 328 251 random 100;
#X obj 408 212 random 100;
#X floatatom 229 255 5 0 0 0 - - -, f 5;
#X floatatom 333 294 5 0 0 0 - - -, f 5;
#X floatatom 471 290 5 0 0 0 - - -, f 5;
#X floatatom 443 444 5 0 0 0 - - -, f 5;
#X obj 201 6 loadbang;
#X obj 179 118 delay;
#X obj 248 85 * 100;
#X obj 27 174 alpha;
#X floatatom 481 131 5 0 0 0 - - -, f 5;
#X obj 487 60 bng 15 250 50 0 empty empty empty 17 7 0 10 -262144 -1
-1;
#X msg 512 64 0;
#X floatatom 481 179 5 0 0 0 - - -, f 5;
#X obj 481 156 expr $f1%50;
#X obj 585 304 clip 0 1;
#X floatatom 586 335 5 0 0 0 - - -, f 5;
#X obj 480 107 counter 10;
#X msg 141 92 0;
#X msg 97 72 1;
#X obj 176 146 metro 500;
#X obj 518 258 expr 2*sin($f1*3.1416/50)-1;
#X obj 446 413 expr ($f1*0.2/100)+0.1;
#X obj 310 62 \$1;
#X obj 213 415 + 0;
#X obj 286 430 + 0;
#X obj 287 354 expr $f2*($f1/100-0.5);
#X obj 187 318 expr $f2*($f1/100-0.5);
#X obj 248 34 t b b b;
#X obj 5 43 inlet;
#X msg 345 115 0;
#X obj 147 357 rotateXYZ;
#X obj 134 40 inlet;
#X obj 265 376 inlet;
#X obj 334 397 inlet;
#X obj 23 146 ortho;
#X obj 161 541 cube;
#X floatatom 313 454 5 -3 3 0 - - -, f 5;
#X obj 366 433 + 0;
#X obj 369 387 expr $f2*($f1/100-0.5);
#X obj 399 273 random 100;
#X floatatom 393 322 5 0 0 0 - - -, f 5;
#X obj 402 409 inlet;
#X obj 47 40 inlet;
#X obj 90 39 inlet;
#X obj 273 165 t b b b b b b b;
#X obj 115 284 colorRGB 1 1 1 0;
#X obj 16 235 / 100;
#X obj 16 212 random 90;
#X obj 17 260 + 0.1;
#X obj 106 233 / 100;
#X obj 106 210 random 90;
#X obj 107 258 + 0.1;
#X obj 206 227 / 100;
#X obj 206 204 random 90;
#X obj 207 252 + 0.1;
#X connect 0 0 2 0;
#X connect 0 0 42 0;
#X connect 1 0 43 1;
#X connect 2 0 43 0;
#X connect 3 0 43 0;
#X connect 4 0 3 2;
#X connect 5 0 3 1;
#X connect 6 0 9 0;
#X connect 7 0 10 0;
#X connect 8 0 11 0;
#X connect 9 0 34 0;
#X connect 10 0 33 0;
#X connect 11 0 29 0;
#X connect 12 0 1 0;
#X connect 13 0 35 0;
#X connect 14 0 27 0;
#X connect 14 0 18 0;
#X connect 15 0 14 1;
#X connect 16 0 53 0;
#X connect 17 0 21 0;
#X connect 18 0 24 0;
#X connect 19 0 24 0;
#X connect 20 0 28 0;
#X connect 21 0 20 0;
#X connect 22 0 23 0;
#X connect 23 0 53 4;
#X connect 24 0 17 0;
#X connect 25 0 27 0;
#X connect 26 0 27 0;
#X connect 27 0 52 0;
#X connect 28 0 22 0;
#X connect 29 0 12 0;
#X connect 30 0 15 0;
#X connect 31 0 5 0;
#X connect 32 0 4 0;
#X connect 33 0 32 0;
#X connect 34 0 31 0;
#X connect 35 0 14 0;
#X connect 35 1 30 0;
#X connect 35 2 37 0;
#X connect 36 0 34 1;
#X connect 36 0 33 1;
#X connect 36 0 46 1;
#X connect 37 0 33 1;
#X connect 37 0 34 1;
#X connect 38 0 3 0;
#X connect 39 0 38 3;
#X connect 40 0 31 1;
#X connect 41 0 32 1;
#X connect 42 0 16 0;
#X connect 44 0 3 3;
#X connect 45 0 44 0;
#X connect 46 0 45 0;
#X connect 47 0 48 0;
#X connect 48 0 46 0;
#X connect 49 0 45 1;
#X connect 50 0 38 1;
#X connect 51 0 38 2;
#X connect 52 0 6 0;
#X connect 52 1 7 0;
#X connect 52 2 47 0;
#X connect 52 3 8 0;
#X connect 52 4 55 0;
#X connect 52 5 58 0;
#X connect 52 6 61 0;
#X connect 53 0 38 0;
#X connect 54 0 56 0;
#X connect 55 0 54 0;
#X connect 56 0 53 1;
#X connect 57 0 59 0;
#X connect 58 0 57 0;
#X connect 59 0 53 2;
#X connect 60 0 62 0;
#X connect 61 0 60 0;
#X connect 62 0 53 3;
