#N canvas 65 268 677 476 12;
#X obj 11 122 gemhead;
#X obj 93 517 square;
#X floatatom 174 498 5 0.2 2 0 - - -, f 5;
#X msg 55 391 draw line;
#X obj 86 452 translateXYZ;
#X floatatom 165 427 5 -3 3 0 - - -, f 5;
#X floatatom 112 421 5 -3 3 0 - - -, f 5;
#X obj 210 200 random 100;
#X obj 282 178 t b b b;
#X obj 276 216 random 100;
#X obj 351 203 random 100;
#X floatatom 210 224 5 0 0 0 - - -, f 5;
#X floatatom 317 277 5 0 0 0 - - -, f 5;
#X floatatom 364 246 5 0 0 0 - - -, f 5;
#X floatatom 369 328 5 0 0 0 - - -, f 5;
#X obj 201 6 loadbang;
#X obj 339 34 init \$1;
#X obj 203 43 t b b;
#X obj 179 118 delay;
#X obj 248 85 * 100;
#X obj 32 174 alpha;
#X obj 34 217 color 1 1 1 0;
#X floatatom 481 131 5 0 0 0 - - -, f 5;
#X obj 487 60 bng 15 250 50 0 empty empty empty 17 7 0 10 -262144 -1
-1;
#X msg 512 64 0;
#X floatatom 481 179 5 0 0 0 - - -, f 5;
#X obj 481 156 expr $f1%50;
#X obj 517 280 clip 0 1;
#X floatatom 518 311 5 0 0 0 - - -, f 5;
#X obj 480 107 counter 10;
#X msg 141 92 0;
#X msg 97 72 1;
#X obj 176 146 metro 500;
#X obj 450 234 expr 2*sin($f1*3.1416/50)-1;
#X obj 119 283 expr ($f1*2/100)-1;
#X obj 236 326 expr ($f1*2/100)-1;
#X obj 367 295 expr ($f1*0.2/100)+0.1;
#X connect 0 0 3 0;
#X connect 0 0 20 0;
#X connect 2 0 1 1;
#X connect 3 0 1 0;
#X connect 4 0 1 0;
#X connect 5 0 4 2;
#X connect 6 0 4 1;
#X connect 7 0 11 0;
#X connect 8 0 7 0;
#X connect 8 1 9 0;
#X connect 8 2 10 0;
#X connect 9 0 12 0;
#X connect 10 0 13 0;
#X connect 11 0 34 0;
#X connect 12 0 35 0;
#X connect 13 0 36 0;
#X connect 14 0 2 0;
#X connect 15 0 17 0;
#X connect 16 0 19 0;
#X connect 17 0 18 0;
#X connect 17 1 16 0;
#X connect 18 0 32 0;
#X connect 18 0 23 0;
#X connect 19 0 18 1;
#X connect 20 0 21 0;
#X connect 21 0 4 0;
#X connect 22 0 26 0;
#X connect 23 0 29 0;
#X connect 24 0 29 0;
#X connect 25 0 33 0;
#X connect 26 0 25 0;
#X connect 27 0 28 0;
#X connect 28 0 21 1;
#X connect 29 0 22 0;
#X connect 30 0 32 0;
#X connect 31 0 32 0;
#X connect 32 0 8 0;
#X connect 33 0 27 0;
#X connect 34 0 6 0;
#X connect 35 0 5 0;
#X connect 36 0 14 0;
