#N canvas 416 50 1280 635 10;
#X obj 622 383 gemhead;
#X obj 199 384 gemhead;
#X obj 398 382 gemhead;
#X obj 35 65 gemwin;
#X msg 38 18 create;
#X msg 93 18 destroy;
#X obj 196 477 translateXYZ 0 0 0;
#X obj 202 366 tgl 15 0 empty empty empty 17 7 0 10 -262144 -1 -1 0
1;
#X obj 239 74 tgl 15 0 empty empty empty 17 7 0 10 -262144 -1 -1 0
1;
#X floatatom 330 345 5 0 0 0 - - -, f 5;
#X obj 238 101 metro 10;
#X obj 331 321 / 100;
#X obj 10 17 tgl 15 0 empty empty empty 17 7 0 10 -262144 -1 -1 0 1
;
#X obj 389 477 translateXYZ 0 0 0;
#X obj 613 475 translateXYZ 0 0 0;
#X obj 817 383 gemhead;
#X obj 817 476 translateXYZ 0 0 0;
#X obj 943 533 bng 15 250 50 0 empty empty empty 17 7 0 10 -262144
-1 -1;
#X obj 910 575 readsf~;
#X msg 877 510 1;
#X msg 832 509 0;
#X obj 879 625 dac~;
#X obj 936 611 block_transfer;
#N canvas 0 50 450 250 (subpatch) 0;
#X array mag 63 float 0;
#X coords 0 100 62 0 200 140 1 0 0;
#X restore 601 527 graph;
#X obj 936 649 tabwrite~ mag;
#X obj 1095 619 metro 50;
#X obj 1086 549 bng 15 250 50 0 empty empty empty 17 7 0 10 -262144
-1 -1;
#X msg 914 538 open test.wav;
#X obj 68 527 tabread mag;
#X obj 72 428 bng 15 250 50 0 empty empty empty 17 7 0 10 -262144 -1
-1;
#X obj 68 477 metro 50;
#X floatatom 68 583 5 0 0 0 - - -, f 5;
#X msg 110 426 0;
#X msg 150 428 1;
#X msg 68 501 5;
#X obj 68 554 / 20;
#X obj 69 617 >;
#X floatatom 66 649 5 0 0 0 - - -, f 5;
#X floatatom 158 605 5 0 0 0 - - -, f 5;
#X obj 54 674 send x-pos;
#X obj 540 -7 receive x-pos;
#X obj 419 40 +;
#X obj 395 20 t b a;
#X obj 381 41 i;
#X floatatom 311 61 5 0 0 0 - - -, f 5;
#X obj 389 496 square 0.1;
#X obj 196 496 square 0.1;
#X obj 613 499 square 0.1;
#X obj 817 500 square 0.1;
#X obj 382 65 % 4;
#X obj 333 85 select 0;
#X obj 403 87 select 1;
#X obj 472 86 select 2;
#X obj 542 87 select 3;
#X obj 397 172 spigot 0;
#X obj 465 172 spigot 0;
#X obj 540 172 spigot 0;
#X msg 408 125 0;
#X msg 342 122 0;
#X msg 538 125 0;
#X msg 473 125 0;
#X msg 377 111 1;
#X msg 434 111 1;
#X msg 504 112 1;
#X msg 567 115 1;
#X obj 322 167 spigot 1;
#X obj 413 443 pipe 250;
#X obj 646 433 pipe 250;
#X obj 856 440 pipe 250;
#X floatatom 496 355 5 0 0 0 - - -, f 5;
#X obj 497 329 / 100;
#X obj 367 227 + 1;
#X obj 538 232 + 1;
#X obj 397 207 * -1;
#X obj 543 200 * -1;
#X obj 486 429 pipe 250;
#X obj 719 419 pipe 250;
#X obj 934 427 pipe 250;
#X msg 325 36 1;
#X obj 331 273 % 800;
#X obj 337 296 - 400;
#X obj 495 270 % 800;
#X obj 500 293 - 400;
#X obj 332 228 i;
#X obj 506 233 i;
#X obj 252 12 loadbang;
#X msg 260 199 400;
#X obj 395 -4 r x-pos;
#X connect 0 0 14 0;
#X connect 1 0 6 0;
#X connect 2 0 13 0;
#X connect 4 0 3 0;
#X connect 5 0 3 0;
#X connect 6 0 46 0;
#X connect 7 0 1 0;
#X connect 7 0 2 0;
#X connect 7 0 15 0;
#X connect 7 0 0 0;
#X connect 8 0 10 0;
#X connect 9 0 75 0;
#X connect 9 0 6 2;
#X connect 10 0 65 0;
#X connect 10 0 54 0;
#X connect 10 0 55 0;
#X connect 10 0 56 0;
#X connect 11 0 9 0;
#X connect 12 0 3 0;
#X connect 13 0 45 0;
#X connect 14 0 47 0;
#X connect 15 0 16 0;
#X connect 16 0 48 0;
#X connect 17 0 27 0;
#X connect 18 0 21 0;
#X connect 18 0 21 1;
#X connect 18 0 22 0;
#X connect 19 0 18 0;
#X connect 20 0 18 0;
#X connect 22 0 24 0;
#X connect 25 0 24 0;
#X connect 26 0 25 0;
#X connect 27 0 18 0;
#X connect 28 0 35 0;
#X connect 29 0 30 0;
#X connect 30 0 34 0;
#X connect 31 0 36 0;
#X connect 32 0 30 0;
#X connect 33 0 30 0;
#X connect 34 0 28 0;
#X connect 35 0 31 0;
#X connect 36 0 37 0;
#X connect 37 0 39 0;
#X connect 38 0 36 1;
#X connect 40 0 42 0;
#X connect 41 0 43 1;
#X connect 42 0 43 0;
#X connect 42 1 41 1;
#X connect 43 0 41 0;
#X connect 43 0 44 0;
#X connect 43 0 49 0;
#X connect 49 0 50 0;
#X connect 49 0 51 0;
#X connect 49 0 52 0;
#X connect 49 0 53 0;
#X connect 50 0 58 0;
#X connect 50 0 61 0;
#X connect 51 0 57 0;
#X connect 51 0 62 0;
#X connect 52 0 60 0;
#X connect 52 0 63 0;
#X connect 53 0 59 0;
#X connect 53 0 64 0;
#X connect 54 0 84 0;
#X connect 55 0 83 0;
#X connect 56 0 84 0;
#X connect 57 0 65 1;
#X connect 57 0 55 1;
#X connect 57 0 56 1;
#X connect 58 0 54 1;
#X connect 58 0 55 1;
#X connect 58 0 56 1;
#X connect 59 0 65 1;
#X connect 59 0 54 1;
#X connect 59 0 55 1;
#X connect 60 0 65 1;
#X connect 60 0 54 1;
#X connect 60 0 56 1;
#X connect 61 0 65 1;
#X connect 61 0 71 1;
#X connect 62 0 54 1;
#X connect 62 0 72 1;
#X connect 63 0 55 1;
#X connect 63 0 73 0;
#X connect 64 0 56 1;
#X connect 64 0 74 0;
#X connect 65 0 83 0;
#X connect 66 0 67 0;
#X connect 66 0 13 1;
#X connect 67 0 68 0;
#X connect 67 0 14 1;
#X connect 68 0 16 1;
#X connect 69 0 66 0;
#X connect 69 0 6 1;
#X connect 70 0 69 0;
#X connect 71 0 83 1;
#X connect 72 0 84 1;
#X connect 73 0 71 1;
#X connect 74 0 72 1;
#X connect 75 0 76 0;
#X connect 75 0 13 2;
#X connect 76 0 77 0;
#X connect 76 0 14 2;
#X connect 77 0 16 2;
#X connect 78 0 42 0;
#X connect 79 0 80 0;
#X connect 80 0 11 0;
#X connect 81 0 82 0;
#X connect 82 0 70 0;
#X connect 83 0 71 0;
#X connect 83 0 79 0;
#X connect 84 0 72 0;
#X connect 84 0 81 0;
#X connect 85 0 86 0;
#X connect 85 0 78 0;
#X connect 86 0 83 1;
#X connect 86 0 84 1;
#X connect 87 0 42 0;
