#N canvas 204 67 1362 666 10;
#X obj 622 383 gemhead;
#X obj 398 382 gemhead;
#X obj 196 477 translateXYZ 0 0 0;
#X obj 202 366 tgl 15 0 empty empty empty 17 7 0 10 -262144 -1 -1 0
1;
#X obj 239 74 tgl 15 0 empty empty empty 17 7 0 10 -262144 -1 -1 1
1;
#X floatatom 330 345 5 0 0 0 - - -, f 5;
#X obj 331 321 / 100;
#X obj 389 477 translateXYZ 0 0 0;
#X obj 613 475 translateXYZ 0 0 0;
#X obj 817 383 gemhead;
#X obj 817 476 translateXYZ 0 0 0;
#X obj 72 428 bng 15 250 50 0 empty empty empty 17 7 0 10 -262144 -1
-1;
#X floatatom 68 583 5 0 0 0 - - -, f 5;
#X msg 110 426 0;
#X msg 150 428 1;
#X msg 68 501 0;
#X floatatom 66 649 5 0 0 0 - - -, f 5;
#X obj 419 40 +;
#X obj 395 20 t b a;
#X obj 381 41 i;
#X floatatom 311 61 5 0 0 0 - - -, f 5;
#X obj 389 496 square 0.1;
#X obj 196 496 square 0.1;
#X obj 613 499 square 0.1;
#X obj 817 500 square 0.1;
#X obj 382 65 % 4;
#X obj 333 85 select 0;
#X obj 403 87 select 1;
#X obj 472 86 select 2;
#X obj 542 87 select 3;
#X obj 397 172 spigot 0;
#X obj 465 172 spigot 0;
#X obj 540 172 spigot 0;
#X msg 408 125 0;
#X msg 342 122 0;
#X msg 538 125 0;
#X msg 473 125 0;
#X msg 377 111 1;
#X msg 434 111 1;
#X msg 504 112 1;
#X msg 567 115 1;
#X obj 322 167 spigot 1;
#X obj 413 443 pipe 250;
#X obj 646 433 pipe 250;
#X obj 856 440 pipe 250;
#X floatatom 496 355 5 0 0 0 - - -, f 5;
#X obj 497 329 / 100;
#X obj 367 227 + 1;
#X obj 538 232 + 1;
#X obj 397 207 * -1;
#X obj 543 200 * -1;
#X obj 486 429 pipe 250;
#X obj 719 419 pipe 250;
#X obj 934 427 pipe 250;
#X msg 325 36 1;
#X obj 331 273 % 800;
#X obj 337 296 - 400;
#X obj 495 270 % 800;
#X obj 500 293 - 400;
#X obj 332 228 i;
#X obj 506 233 i;
#X obj 252 12 loadbang;
#X obj 267 55 * 10;
#X obj 267 76 + 10;
#X obj 180 21 inlet;
#X msg 269 195 400;
#X msg 618 215 400;
#X obj 238 101 metro 5;
#X obj 46 288 \$1;
#X msg 41 370 set \$1;
#X obj 199 384 gemhead;
#X obj 70 525 tabread mag;
#X obj 68 477 metro 1000;
#X obj 69 617 > 10;
#X obj 47 335 * 3;
#X obj 127 337 * 50;
#X connect 0 0 8 0;
#X connect 1 0 7 0;
#X connect 2 0 22 0;
#X connect 3 0 1 0;
#X connect 3 0 9 0;
#X connect 3 0 0 0;
#X connect 3 0 70 0;
#X connect 4 0 67 0;
#X connect 5 0 51 0;
#X connect 5 0 2 2;
#X connect 6 0 5 0;
#X connect 7 0 21 0;
#X connect 8 0 23 0;
#X connect 9 0 10 0;
#X connect 10 0 24 0;
#X connect 11 0 72 0;
#X connect 12 0 73 0;
#X connect 13 0 72 0;
#X connect 14 0 72 0;
#X connect 15 0 71 0;
#X connect 16 0 18 0;
#X connect 17 0 19 1;
#X connect 18 0 19 0;
#X connect 18 1 17 1;
#X connect 19 0 17 0;
#X connect 19 0 20 0;
#X connect 19 0 25 0;
#X connect 25 0 26 0;
#X connect 25 0 27 0;
#X connect 25 0 28 0;
#X connect 25 0 29 0;
#X connect 26 0 34 0;
#X connect 26 0 37 0;
#X connect 27 0 33 0;
#X connect 27 0 38 0;
#X connect 28 0 36 0;
#X connect 28 0 39 0;
#X connect 29 0 35 0;
#X connect 29 0 40 0;
#X connect 30 0 60 0;
#X connect 31 0 59 0;
#X connect 32 0 60 0;
#X connect 33 0 41 1;
#X connect 33 0 31 1;
#X connect 33 0 32 1;
#X connect 34 0 30 1;
#X connect 34 0 31 1;
#X connect 34 0 32 1;
#X connect 35 0 41 1;
#X connect 35 0 30 1;
#X connect 35 0 31 1;
#X connect 36 0 41 1;
#X connect 36 0 30 1;
#X connect 36 0 32 1;
#X connect 37 0 41 1;
#X connect 37 0 47 1;
#X connect 38 0 30 1;
#X connect 38 0 48 1;
#X connect 39 0 31 1;
#X connect 39 0 49 0;
#X connect 40 0 32 1;
#X connect 40 0 50 0;
#X connect 41 0 59 0;
#X connect 42 0 43 0;
#X connect 42 0 7 1;
#X connect 43 0 44 0;
#X connect 43 0 8 1;
#X connect 44 0 10 1;
#X connect 45 0 42 0;
#X connect 45 0 2 1;
#X connect 46 0 45 0;
#X connect 47 0 59 1;
#X connect 48 0 60 1;
#X connect 49 0 47 1;
#X connect 50 0 48 1;
#X connect 51 0 52 0;
#X connect 51 0 7 2;
#X connect 52 0 53 0;
#X connect 52 0 8 2;
#X connect 53 0 10 2;
#X connect 54 0 18 0;
#X connect 55 0 56 0;
#X connect 56 0 6 0;
#X connect 57 0 58 0;
#X connect 58 0 46 0;
#X connect 59 0 47 0;
#X connect 59 0 55 0;
#X connect 60 0 48 0;
#X connect 60 0 57 0;
#X connect 61 0 65 0;
#X connect 61 0 54 0;
#X connect 61 0 4 0;
#X connect 61 0 66 0;
#X connect 61 0 68 0;
#X connect 61 0 11 0;
#X connect 62 0 63 0;
#X connect 63 0 67 1;
#X connect 64 0 54 0;
#X connect 65 0 59 1;
#X connect 66 0 60 1;
#X connect 67 0 41 0;
#X connect 67 0 30 0;
#X connect 67 0 31 0;
#X connect 67 0 32 0;
#X connect 68 0 74 0;
#X connect 68 0 75 0;
#X connect 69 0 15 0;
#X connect 70 0 2 0;
#X connect 71 0 12 0;
#X connect 72 0 15 0;
#X connect 73 0 16 0;
#X connect 74 0 69 0;
#X connect 75 0 72 1;
