#N canvas 327 149 578 492 12;
#X obj 52 71 gwin;
#X obj 219 66 gemhead;
#X msg 69 21 lighting 1;
#X obj 42 271 world_light;
#X obj 70 159 gemhead;
#X obj 64 198 rotateXYZ 0 0 0;
#X floatatom 157 144 5 0 0 0 - - -, f 5;
#X msg 79 228 debug 1;
#X obj 326 201 diffuseRGB;
#X obj 292 108 shininess;
#X floatatom 369 55 5 0 128 0 - - -, f 5;
#X msg 218 143 draw fill;
#X obj 220 200 sphere 1 20;
#X msg 156 229 1 1 0;
#X obj 180 398 world_light;
#X obj 208 286 gemhead;
#X obj 202 325 rotateXYZ 0 0 0;
#X floatatom 295 271 5 0 0 0 - - -, f 5;
#X msg 217 355 debug 1;
#X msg 294 356 0 0 1;
#X obj 413 336 light;
#X connect 1 0 11 0;
#X connect 1 0 9 0;
#X connect 2 0 0 0;
#X connect 4 0 5 0;
#X connect 5 0 3 0;
#X connect 6 0 5 2;
#X connect 7 0 3 0;
#X connect 9 0 12 0;
#X connect 10 0 9 1;
#X connect 11 0 12 0;
#X connect 13 0 3 1;
#X connect 15 0 16 0;
#X connect 16 0 14 0;
#X connect 17 0 16 2;
#X connect 18 0 14 0;
#X connect 19 0 14 1;
