#N canvas 614 93 497 300 12;
#X obj 28 63 gwin;
#X obj 201 -39 gemhead;
#X msg 112 32 draw line;
#X obj 238 22 rotateXYZ 70 0 0;
#X obj 237 -6 translateXYZ 0 -5 0;
#X obj 317 62 rubber 20 20;
#X msg 186 12 42;
#X msg 221 181 all \$1;
#X msg 281 193 all \$1;
#X floatatom 279 144 5 0 0 0 - - -, f 5;
#X floatatom 342 154 5 0 0 0 - - -, f 5;
#X obj 148 69 bng 15 250 50 0 empty empty empty 17 7 0 10 -262144 -1
-1;
#X obj 137 130 i;
#X obj 193 135 + 1;
#X obj 143 90 metro 100;
#X msg 178 61 0;
#X msg 119 59 0;
#X obj 142 160 * 3;
#X obj 101 232 clone 90 random_square;
#X msg 69 196 all 2;
#X connect 1 0 2 0;
#X connect 1 0 4 0;
#X connect 1 0 6 0;
#X connect 2 0 5 0;
#X connect 3 0 5 0;
#X connect 4 0 3 0;
#X connect 6 0 5 1;
#X connect 7 0 18 1;
#X connect 8 0 18 2;
#X connect 9 0 7 0;
#X connect 10 0 8 0;
#X connect 11 0 14 0;
#X connect 12 0 13 0;
#X connect 12 0 17 0;
#X connect 13 0 12 1;
#X connect 14 0 12 0;
#X connect 15 0 14 0;
#X connect 16 0 12 0;
#X connect 17 0 9 0;
#X connect 17 0 10 0;
#X connect 19 0 18 0;
