#N canvas 250 183 450 300 12;
#X obj 28 63 gwin;
#X obj 209 62 gemhead;
#X msg 120 133 draw line;
#X obj 246 123 rotateXYZ 70 0 0;
#X obj 245 95 translateXYZ 0 -5 0;
#X obj 325 163 rubber 20 20;
#X msg 194 113 42;
#X obj 154 180 clone 30 random_square;
#X connect 1 0 2 0;
#X connect 1 0 4 0;
#X connect 1 0 6 0;
#X connect 2 0 5 0;
#X connect 3 0 5 0;
#X connect 4 0 3 0;
#X connect 6 0 5 1;
