#N canvas 672 151 450 388 12;
#X obj 96 95 gwin;
#X obj 205 162 pix_texture;
#X obj 206 32 gemhead;
#X obj 207 128 pix_image 1.jpg;
#X obj 206 66 alpha;
#X obj 211 97 color 1 1 1 0.5;
#X obj 201 233 rotateXYZ;
#X obj 321 173 bng 15 250 50 0 empty empty empty 17 7 0 10 -262144
-1 -1;
#X obj 323 191 counter 50;
#X obj 208 295 square 8;
#X obj 299 215 / 10;
#X connect 1 0 6 0;
#X connect 2 0 4 0;
#X connect 3 0 1 0;
#X connect 4 0 5 0;
#X connect 5 0 3 0;
#X connect 6 0 9 0;
#X connect 7 0 8 0;
#X connect 8 0 10 0;
#X connect 10 0 6 3;
