#N canvas 669 100 450 401 10;
#X floatatom 284 35 0 0 0 0 - - -;
#X floatatom 357 273 0 0 0 0 - - -;
#X floatatom 188 100 4 0 0 0 - - -, f 4;
#X floatatom 241 35 0 0 0 0 - - -;
#X obj 171 2 gemhead;
#X floatatom 197 35 0 0 0 0 - - -;
#X obj 171 181 rotate;
#X msg 241 115 0 1 0;
#X msg 245 139 1 0 0;
#X obj 171 76 translateXYZ;
#X text 363 291 size;
#X msg 180 228 font ../data/vera.ttf;
#X obj 56 138 gwin;
#X floatatom 80 227 5 0 0 0 - - -, f 5;
#X obj 170 291 text3d hello world;
#X msg 86 262 \$1;
#X connect 0 0 9 3;
#X connect 1 0 14 1;
#X connect 2 0 6 1;
#X connect 3 0 9 2;
#X connect 4 0 9 0;
#X connect 5 0 9 1;
#X connect 6 0 14 0;
#X connect 7 0 6 2;
#X connect 8 0 6 2;
#X connect 9 0 6 0;
#X connect 11 0 14 0;
#X connect 13 0 15 0;
#X connect 15 0 14 0;
