#N canvas 616 62 665 457 10;
#X obj 88 93 gemwin;
#X msg 100 50 create;
#X obj 58 65 tgl 15 0 empty empty empty 17 7 0 10 -262144 -1 -1 1 1
;
#X msg 549 148 all bang;
#X msg 54 26 destroy;
#X obj 481 47 bng 15 250 50 0 empty empty empty 17 7 0 10 -262144 -1
-1;
#X obj 449 112 readsf~;
#X msg 416 47 1;
#X msg 376 39 0;
#X obj 314 223 block_transfer;
#N canvas 0 50 450 250 (subpatch) 0;
#X array mag 64 float 0;
#X coords 0 100 63 0 200 140 1 0 0;
#X restore 45 150 graph;
#X obj 314 261 tabwrite~ mag;
#X obj 473 231 metro 50;
#X obj 464 161 bng 15 250 50 0 empty empty empty 17 7 0 10 -262144
-1 -1;
#X msg 453 75 open test3.wav;
#X obj 381 188 adc~;
#X obj 534 194 clone 20 snake;
#X connect 1 0 0 0;
#X connect 2 0 0 0;
#X connect 3 0 16 0;
#X connect 4 0 0 0;
#X connect 5 0 14 0;
#X connect 7 0 6 0;
#X connect 8 0 6 0;
#X connect 9 0 11 0;
#X connect 12 0 11 0;
#X connect 13 0 12 0;
#X connect 14 0 6 0;
#X connect 15 0 9 0;
