#N canvas 0 136 644 419 12;
#X obj 205 162 pix_texture;
#X obj 206 66 alpha;
#X obj 211 97 color 1 1 1 0.5;
#X obj 201 233 rotateXYZ;
#X obj 433 213 bng 15 250 50 0 empty empty empty 17 7 0 10 -262144
-1 -1;
#X obj 435 231 counter 50;
#X obj 411 255 / 10;
#X msg 336 73 1 1 1 \$1;
#X floatatom 335 0 5 0 0 0 - - -, f 5;
#X obj 336 18 % 100;
#X obj 335 43 / 100;
#X obj 207 128 pix_image 4.jpg;
#X obj 200 199 translateXYZ 0.2 0.8 -1;
#X obj 206 32 gemhead 50;
#X obj 208 295 square 10;
#X connect 0 0 12 0;
#X connect 1 0 2 0;
#X connect 2 0 11 0;
#X connect 3 0 14 0;
#X connect 4 0 5 0;
#X connect 5 0 6 0;
#X connect 6 0 3 3;
#X connect 7 0 2 1;
#X connect 8 0 9 0;
#X connect 9 0 10 0;
#X connect 10 0 7 0;
#X connect 11 0 0 0;
#X connect 12 0 3 0;
#X connect 13 0 1 0;
