#N canvas 234 192 888 571 16;
#X obj 35 314 tgl 15 0 empty empty empty 17 7 0 10 -262144 -1 -1 1
1;
#X obj 451 321 hsl 128 15 0 1 0 0 empty empty empty -2 -8 0 10 -258113
-1 -1 896 1;
#X obj 604 324 hsl 128 15 0 1 0 0 empty empty empty -2 -8 0 10 -4034
-1 -1 11555 1;
#X obj 756 325 hsl 128 15 0 1 0 0 empty empty empty -2 -8 0 10 -4160
-1 -1 1295 1;
#X floatatom 238 323 5 0 0 0 - - -, f 5;
#X obj 233 604 rotateXYZ;
#X floatatom 1065 480 5 0 0 0 - - -, f 5;
#X msg 1015 213 draw line;
#X obj 273 554 r X;
#X obj 1065 543 s Y;
#X obj 1120 543 s Z;
#X obj 1012 543 s X;
#X obj 1020 266 s line;
#X obj 263 680 r line;
#X obj 298 531 r Y;
#X obj 307 553 r Z;
#X obj 488 707 r line;
#X obj 1030 302 bng 15 250 50 0 empty empty empty 17 7 0 10 -262144
-1 -1;
#X obj 1036 366 i;
#X obj 1097 367 + 1;
#X msg 974 332 0;
#X obj 1029 336 metro 20;
#X floatatom 363 446 5 0 0 0 - - -, f 5;
#X floatatom 297 445 5 0 0 0 - - -, f 5;
#X floatatom 363 446 5 0 0 0 - - -, f 5;
#X text 977 186 é¸;
#X obj 24 619 rotateXYZ;
#X obj 35 597 r X;
#X obj 59 573 r Y;
#X obj 81 594 r Z;
#X obj 657 -12 loadbang;
#X obj -10 689 cylinder 1 200;
#X obj 665 28 t b b b b b b b b b;
#X obj 12 649 r line;
#X obj 22 529 alpha;
#X obj 96 480 tgl 15 0 empty empty empty 17 7 0 10 -262144 -1 -1 1
1;
#X msg 1141 222 draw fill;
#X obj 4 480 colorRGB;
#X obj 40 353 gemhead 52;
#X obj 400 59 inlet;
#X obj 86 80 inlet;
#X obj 243 280 / 50;
#X obj 243 242 - 40;
#X obj 487 284 / 255;
#X obj 617 277 / 255;
#X obj 741 281 / 255;
#X obj 686 62 bng 15 250 50 0 empty empty empty 17 7 0 10 -262144 -1
-1;
#X obj 685 84 metro 200;
#X obj 205 382 clip 0 10;
#X obj 70 394 clip 0 1;
#X obj 1098 400 % 360;
#X obj 554 455 ortho;
#X msg 759 381 compat 0;
#X floatatom 138 474 5 0 0 0 - - -, f 5;
#X obj 386 714 cube;
#X obj 547 632 rotateXYZ;
#X obj 613 586 r X;
#X obj 638 563 r Y;
#X obj 647 585 r Z;
#X obj 400 609 *;
#X obj 384 548 t a a;
#X floatatom 400 638 5 0 0 0 - - -, f 5;
#X obj 538 492 alpha;
#X obj 571 710 colorRGB;
#X obj 428 576 > 0.6;
#X obj 400 664 - 0;
#X obj 699 365 + 0.4;
#X obj 597 368 + 0.4;
#X obj 450 367 + 0.4;
#X obj 138 604 *;
#X obj 122 543 t a a;
#X floatatom 138 633 5 0 0 0 - - -, f 5;
#X obj 156 575 > 0.5;
#X obj 138 659 + 0.04;
#X obj 180 517 + 4;
#X obj 247 640 colorRGB;
#X obj 206 430 * 4;
#X obj 368 405 * 2.2;
#X obj 384 96 select 1;
#X obj 256 137 delay 1000;
#X msg 255 165 1;
#X msg 352 41 1;
#X msg 304 43 0;
#X obj 506 59 route 0 1 2;
#X obj 483 29 random 3;
#X obj 462 3 bng 15 250 50 0 empty empty empty 17 7 0 10 -262144 -1
-1;
#X obj 537 1 metro 500;
#X obj 403 504 clip 0 3;
#X obj 256 716 sphere 1 40;
#X obj 514 567 translateXYZ 0 0 -2;
#X obj 222 574 translateXYZ 0 0 1;
#X obj 538 424 gemhead 52;
#X obj 299 504 clip 0 3;
#X obj 470 230 + 0;
#X obj 639 229 + 0;
#X obj 745 231 + 0;
#X obj 463 168 random 100;
#X obj 631 167 random 100;
#X obj 759 159 random 100;
#X msg 492 96 0;
#X msg 494 129 150;
#X msg 545 96 0;
#X msg 547 129 150;
#X msg 596 94 0;
#X msg 598 127 150;
#X obj 298 414 * 3.2;
#X msg 90 171 0;
#X obj 91 124 delay 20;
#X connect 0 0 38 0;
#X connect 0 0 91 0;
#X connect 1 0 37 1;
#X connect 1 0 68 0;
#X connect 1 0 75 2;
#X connect 2 0 37 2;
#X connect 2 0 67 0;
#X connect 2 0 75 3;
#X connect 3 0 37 3;
#X connect 3 0 66 0;
#X connect 3 0 75 1;
#X connect 4 0 48 0;
#X connect 4 0 49 0;
#X connect 4 0 77 0;
#X connect 4 0 105 0;
#X connect 5 0 75 0;
#X connect 6 0 9 0;
#X connect 6 0 10 0;
#X connect 6 0 11 0;
#X connect 7 0 12 0;
#X connect 8 0 5 1;
#X connect 13 0 88 0;
#X connect 14 0 5 2;
#X connect 15 0 5 3;
#X connect 16 0 54 0;
#X connect 17 0 21 0;
#X connect 18 0 19 0;
#X connect 18 0 6 0;
#X connect 19 0 50 0;
#X connect 20 0 18 0;
#X connect 21 0 18 0;
#X connect 22 0 87 0;
#X connect 23 0 92 0;
#X connect 26 0 31 0;
#X connect 27 0 26 1;
#X connect 28 0 26 2;
#X connect 29 0 26 3;
#X connect 30 0 32 0;
#X connect 30 0 86 0;
#X connect 31 0 90 0;
#X connect 32 0 7 0;
#X connect 32 1 46 0;
#X connect 32 4 0 0;
#X connect 32 6 35 0;
#X connect 32 7 17 0;
#X connect 32 8 52 0;
#X connect 33 0 31 0;
#X connect 34 0 31 0;
#X connect 35 0 34 1;
#X connect 36 0 12 0;
#X connect 37 0 34 0;
#X connect 38 0 37 0;
#X connect 39 0 78 0;
#X connect 40 0 42 0;
#X connect 40 0 107 0;
#X connect 41 0 4 0;
#X connect 42 0 41 0;
#X connect 43 0 1 0;
#X connect 44 0 2 0;
#X connect 45 0 3 0;
#X connect 46 0 47 0;
#X connect 47 0 96 0;
#X connect 47 0 97 0;
#X connect 47 0 98 0;
#X connect 48 0 76 0;
#X connect 49 0 53 0;
#X connect 49 0 60 0;
#X connect 49 0 70 0;
#X connect 50 0 18 1;
#X connect 51 0 62 0;
#X connect 52 0 51 0;
#X connect 55 0 63 0;
#X connect 56 0 55 1;
#X connect 57 0 55 2;
#X connect 58 0 55 3;
#X connect 59 0 61 0;
#X connect 60 0 59 0;
#X connect 60 1 64 0;
#X connect 61 0 65 0;
#X connect 62 0 89 0;
#X connect 63 0 54 0;
#X connect 64 0 59 1;
#X connect 65 0 63 4;
#X connect 66 0 63 2;
#X connect 67 0 63 1;
#X connect 68 0 63 3;
#X connect 69 0 71 0;
#X connect 70 0 69 0;
#X connect 70 1 72 0;
#X connect 71 0 73 0;
#X connect 72 0 69 1;
#X connect 73 0 37 4;
#X connect 73 0 75 4;
#X connect 74 0 31 1;
#X connect 75 0 88 0;
#X connect 76 0 74 0;
#X connect 77 0 22 0;
#X connect 78 0 79 0;
#X connect 78 1 0 0;
#X connect 79 0 80 0;
#X connect 80 0 0 0;
#X connect 81 0 78 0;
#X connect 82 0 78 0;
#X connect 83 0 99 0;
#X connect 83 0 100 0;
#X connect 83 1 101 0;
#X connect 83 1 102 0;
#X connect 83 2 103 0;
#X connect 83 2 104 0;
#X connect 84 0 83 0;
#X connect 85 0 84 0;
#X connect 86 0 84 0;
#X connect 87 0 54 1;
#X connect 89 0 55 0;
#X connect 90 0 5 0;
#X connect 91 0 51 0;
#X connect 92 0 88 1;
#X connect 93 0 43 0;
#X connect 94 0 44 0;
#X connect 95 0 45 0;
#X connect 96 0 93 0;
#X connect 97 0 94 0;
#X connect 98 0 95 0;
#X connect 99 0 93 1;
#X connect 99 0 94 1;
#X connect 100 0 95 1;
#X connect 101 0 93 1;
#X connect 101 0 95 1;
#X connect 102 0 94 1;
#X connect 103 0 94 1;
#X connect 103 0 95 1;
#X connect 104 0 93 1;
#X connect 105 0 23 0;
#X connect 106 0 42 0;
#X connect 107 0 106 0;
