#N canvas 180 50 1177 705 16;
#X obj 243 231 tabread mag;
#X obj 249 94 bng 15 250 50 0 empty empty empty 17 7 0 10 -262144 -1
-1;
#X obj 245 143 metro 50;
#X obj 35 314 tgl 15 0 empty empty empty 17 7 0 10 -262144 -1 -1 1
1;
#X obj 243 364 hsl 128 15 0 1 0 0 empty empty empty -2 -8 0 10 -258113
-1 -1 0 1;
#X obj 409 368 hsl 128 15 0 1 0 0 empty empty empty -2 -8 0 10 -4034
-1 -1 0 1;
#X obj 564 367 hsl 128 15 0 1 0 0 empty empty empty -2 -8 0 10 -4160
-1 -1 0 1;
#X floatatom 238 323 5 0 0 0 - - -, f 5;
#X floatatom 381 311 5 0 0 0 - - -, f 5;
#X floatatom 537 314 5 0 0 0 - - -, f 5;
#X obj 386 242 tabread mag;
#X obj 392 105 bng 15 250 50 0 empty empty empty 17 7 0 10 -262144
-1 -1;
#X obj 388 154 metro 50;
#X obj 544 245 tabread mag;
#X obj 550 108 bng 15 250 50 0 empty empty empty 17 7 0 10 -262144
-1 -1;
#X obj 546 157 metro 50;
#X msg 547 200 37;
#X msg 458 97 0;
#X msg 498 99 1;
#X msg 607 99 0;
#X msg 651 99 1;
#X msg 287 92 0;
#X msg 327 94 1;
#X obj 135 623 rotateXYZ;
#X obj 245 621 rotateXYZ;
#X floatatom 1093 434 5 0 0 0 - - -, f 5;
#X msg 1015 213 draw line;
#X obj 263 596 r X;
#X obj 1093 497 s Y;
#X obj 1148 497 s Z;
#X obj 1040 497 s X;
#X obj 1020 266 s line;
#X obj 146 601 r X;
#X obj 149 652 r line;
#X obj 264 653 r line;
#X obj 288 573 r Y;
#X obj 170 577 r Y;
#X obj 297 595 r Z;
#X obj 192 598 r Z;
#X obj 353 618 rotateXYZ;
#X obj 371 593 r X;
#X obj 364 649 r line;
#X obj 396 570 r Y;
#X obj 405 593 r Z;
#X obj 462 617 rotateXYZ;
#X obj 480 592 r X;
#X obj 477 643 r line;
#X obj 505 569 r Y;
#X obj 514 592 r Z;
#X obj 569 616 rotateXYZ;
#X obj 587 591 r X;
#X obj 586 647 r line;
#X obj 612 568 r Y;
#X obj 621 591 r Z;
#X obj 1030 302 bng 15 250 50 0 empty empty empty 17 7 0 10 -262144
-1 -1;
#X obj 1036 366 i;
#X obj 1097 367 + 1;
#X msg 974 332 0;
#X obj 1029 336 metro 20;
#X floatatom 365 445 5 0 0 0 - - -, f 5;
#X floatatom 427 444 5 0 0 0 - - -, f 5;
#X floatatom 498 444 5 0 0 0 - - -, f 5;
#X floatatom 567 445 5 0 0 0 - - -, f 5;
#X floatatom 631 443 5 0 0 0 - - -, f 5;
#X floatatom 297 445 5 0 0 0 - - -, f 5;
#X floatatom 365 445 5 0 0 0 - - -, f 5;
#X obj 673 614 rotateXYZ;
#X obj 691 589 r X;
#X obj 693 647 r line;
#X obj 716 566 r Y;
#X obj 725 589 r Z;
#X obj 775 612 rotateXYZ;
#X obj 793 587 r X;
#X obj 810 641 r line;
#X obj 818 564 r Y;
#X obj 827 587 r Z;
#X obj 834 305 bng 15 250 50 0 empty empty empty 17 7 0 10 -262144
-1 -1;
#X text 977 186 選;
#X msg 392 193 20;
#X obj 24 619 rotateXYZ;
#X obj 35 597 r X;
#X obj 59 573 r Y;
#X obj 81 594 r Z;
#X obj 140 689 sphere;
#X obj 250 690 sphere;
#X obj 469 684 sphere;
#X obj 676 681 sphere;
#X obj 778 679 sphere;
#X msg 245 189 5;
#X obj 572 683 sphere;
#X obj 657 -12 loadbang;
#X obj 11 684 cylinder 1 200;
#X obj 671 25 t b b b b b b b b b;
#X obj 830 402 tabwrite~ mag;
#N canvas 0 50 450 250 (subpatch) 0;
#X array mag 100 float 3;
#A 0 -0.00766015 -0.00662252 -0.00747703 -0.00714133 -0.00769066 -0.00686666
-0.00808741 -0.00714133 -0.00793481 -0.00695822 -0.00711081 -0.00683615
-0.00665304 -0.00668355 -0.0061037 -0.00656148 -0.00592059 -0.00717185
-0.00671407 -0.00704978 -0.00720237 -0.00711081 -0.00729392 -0.00708029
-0.00665304 -0.00646992 -0.00671407 -0.00650044 -0.00668355 -0.00546281
-0.00711081 -0.00564592 -0.00686666 -0.00650044 -0.00674459 -0.00683615
-0.00756859 -0.00766015 -0.00711081 -0.00714133 -0.00650044 -0.00674459
-0.00589007 -0.00613422 -0.00534074 -0.00634785 -0.005768 -0.00619526
-0.00625629 -0.00531022 -0.00604266 -0.00558489 -0.00570696 -0.00531022
-0.00622578 -0.00512711 -0.00534074 -0.00500504 -0.00524918 -0.00473037
-0.00515763 -0.00546281 -0.00500504 -0.00585955 -0.00497452 -0.00537126
-0.00518815 -0.00546281 -0.00485244 -0.00531022 -0.00476089 -0.00479141
-0.00509659 -0.0044557 -0.00524918 -0.00399792 -0.00491348 -0.00372326
-0.0036317 -0.00412 -0.00421155 -0.00439467 -0.00506607 -0.00491348
-0.00515763 -0.00491348 -0.00457778 -0.00460829 -0.004944 -0.00433363
-0.00488296 -0.00418104 -0.00366222 -0.00418104 -0.00451674 -0.00433363
-0.004944 -0.00433363 -0.00476089 -0.00451674 ;
#X coords 0 1 100 -1 200 140 1;
#X restore 1058 37 graph;
#X floatatom 617 285 5 0 0 0 - - -, f 5;
#X floatatom 454 285 5 0 0 0 - - -, f 5;
#X floatatom 314 271 5 0 0 0 - - -, f 5;
#X obj 243 280 * 15;
#X obj 386 274 * 15;
#X obj 545 285 * 15;
#X obj 355 687 sphere;
#X obj 33 644 r line;
#X obj 188 461 * 5;
#X obj 831 356 metro 90;
#X obj 636 182 inlet~;
#X obj 22 529 alpha;
#X obj 738 410 inlet;
#X obj 96 480 tgl 15 0 empty empty empty 17 7 0 10 -262144 -1 -1 1
1;
#X msg 1141 222 draw fill;
#X obj 32 430 colorRGB;
#X obj 40 353 gemhead 52;
#X obj 297 413 * 15;
#X obj 366 411 * 15;
#X obj 427 413 * 15;
#X obj 496 413 * 15;
#X obj 566 412 * 15;
#X obj 636 413 * 15;
#X obj 877 205 inlet;
#X obj 180 517 + 8;
#X connect 0 0 97 0;
#X connect 0 0 98 0;
#X connect 0 0 103 0;
#X connect 0 0 112 0;
#X connect 0 0 115 0;
#X connect 1 0 2 0;
#X connect 2 0 88 0;
#X connect 3 0 111 0;
#X connect 4 0 110 1;
#X connect 5 0 110 2;
#X connect 6 0 110 3;
#X connect 7 0 4 0;
#X connect 8 0 5 0;
#X connect 9 0 6 0;
#X connect 10 0 96 0;
#X connect 10 0 99 0;
#X connect 10 0 113 0;
#X connect 10 0 116 0;
#X connect 11 0 12 0;
#X connect 12 0 78 0;
#X connect 13 0 95 0;
#X connect 13 0 100 0;
#X connect 13 0 114 0;
#X connect 13 0 117 0;
#X connect 14 0 15 0;
#X connect 15 0 16 0;
#X connect 16 0 13 0;
#X connect 17 0 12 0;
#X connect 18 0 12 0;
#X connect 19 0 15 0;
#X connect 20 0 15 0;
#X connect 21 0 2 0;
#X connect 22 0 2 0;
#X connect 23 0 83 0;
#X connect 24 0 84 0;
#X connect 25 0 28 0;
#X connect 25 0 29 0;
#X connect 25 0 30 0;
#X connect 26 0 31 0;
#X connect 27 0 24 1;
#X connect 32 0 23 1;
#X connect 33 0 83 0;
#X connect 34 0 84 0;
#X connect 35 0 24 2;
#X connect 36 0 23 2;
#X connect 37 0 24 3;
#X connect 38 0 23 3;
#X connect 39 0 101 0;
#X connect 40 0 39 1;
#X connect 41 0 101 0;
#X connect 42 0 39 2;
#X connect 43 0 39 3;
#X connect 44 0 85 0;
#X connect 45 0 44 1;
#X connect 46 0 85 0;
#X connect 47 0 44 2;
#X connect 48 0 44 3;
#X connect 49 0 89 0;
#X connect 50 0 49 1;
#X connect 51 0 89 0;
#X connect 52 0 49 2;
#X connect 53 0 49 3;
#X connect 54 0 58 0;
#X connect 55 0 56 0;
#X connect 55 0 25 0;
#X connect 56 0 55 1;
#X connect 57 0 55 0;
#X connect 58 0 55 0;
#X connect 59 0 83 1;
#X connect 59 0 87 1;
#X connect 60 0 84 1;
#X connect 61 0 101 1;
#X connect 62 0 85 1;
#X connect 63 0 89 1;
#X connect 64 0 86 1;
#X connect 66 0 86 0;
#X connect 67 0 66 1;
#X connect 68 0 86 0;
#X connect 69 0 66 2;
#X connect 70 0 66 3;
#X connect 71 0 87 0;
#X connect 72 0 71 1;
#X connect 73 0 87 0;
#X connect 74 0 71 2;
#X connect 75 0 71 3;
#X connect 76 0 104 0;
#X connect 78 0 10 0;
#X connect 79 0 91 0;
#X connect 80 0 79 1;
#X connect 81 0 79 2;
#X connect 82 0 79 3;
#X connect 83 0 24 0;
#X connect 84 0 101 0;
#X connect 85 0 89 0;
#X connect 86 0 87 0;
#X connect 88 0 0 0;
#X connect 89 0 86 0;
#X connect 90 0 92 0;
#X connect 91 0 83 0;
#X connect 92 0 26 0;
#X connect 92 1 1 0;
#X connect 92 2 11 0;
#X connect 92 3 14 0;
#X connect 92 4 3 0;
#X connect 92 6 108 0;
#X connect 92 7 54 0;
#X connect 92 8 76 0;
#X connect 98 0 7 0;
#X connect 99 0 8 0;
#X connect 100 0 9 0;
#X connect 101 0 85 0;
#X connect 102 0 91 0;
#X connect 103 0 119 0;
#X connect 104 0 93 0;
#X connect 105 0 93 0;
#X connect 106 0 91 0;
#X connect 107 0 110 4;
#X connect 108 0 106 1;
#X connect 109 0 31 0;
#X connect 110 0 106 0;
#X connect 111 0 110 0;
#X connect 112 0 64 0;
#X connect 113 0 59 0;
#X connect 114 0 60 0;
#X connect 115 0 61 0;
#X connect 116 0 62 0;
#X connect 117 0 63 0;
#X connect 118 0 3 0;
#X connect 119 0 91 1;
