#N canvas 71 71 508 610 12;
#X msg 305 397 all 0;
#X msg 305 422 all 1;
#X floatatom 235 319 5 0 0 0 - - -, f 5;
#X obj 355 471 pack 0 0 0;
#X floatatom 424 384 5 0 0 0 - - -, f 5;
#X floatatom 469 385 5 0 0 0 - - -, f 5;
#X floatatom 381 385 5 0 0 0 - - -, f 5;
#X obj 384 434 t b a;
#X obj 443 432 t b a;
#X obj 313 336 loadbang;
#X obj 427 302 counter 20;
#X msg 347 492 all \$1 \$2 \$3;
#X obj 296 297 random 125;
#X msg 443 255 0;
#X msg 234 352 \$1 2;
#X obj 234 571 clone 125 cube_pos1_2;
#X obj 418 261 bng 15 250 50 0 empty empty empty 17 7 0 10 -262144
-1 -1;
#X obj 75 6 inlet;
#X obj 325 248 metro 10;
#X obj 174 100 sel 1;
#X obj 174 132 bng 15 250 50 0 empty empty empty 17 7 0 10 -262144
-1 -1;
#X obj 57 43 t f f f f f;
#X floatatom 75 31 5 0 0 0 - - -, f 5;
#X obj 94 124 &;
#X obj 38 127 &;
#X obj 92 150 sel 1;
#X obj 91 180 bng 15 250 50 0 empty empty empty 17 7 0 10 -262144 -1
-1;
#X obj 36 152 sel 1;
#X obj 36 184 bng 15 250 50 0 empty empty empty 17 7 0 10 -262144 -1
-1;
#X obj 151 268 metro 50;
#X obj 243 266 metro 23;
#X obj 186 523 clone 125 cube_pos;
#X obj 105 199 t b b;
#X msg 141 222 0;
#X obj 174 160 t b b b;
#X msg 199 186 0;
#X msg 237 186 0;
#X msg 13 383 0;
#X msg 53 293 0;
#X msg 285 165 0;
#X obj 120 72 >= 75;
#X obj 38 97 < 75;
#X obj 71 72 >= 60;
#X obj 51 267 delay 500;
#X obj 11 357 delay 500;
#X obj 94 96 < 85;
#X obj 175 74 >= 85;
#X obj 283 139 delay 300;
#X connect 0 0 31 0;
#X connect 1 0 31 0;
#X connect 2 0 14 0;
#X connect 3 0 11 0;
#X connect 4 0 7 0;
#X connect 5 0 8 0;
#X connect 6 0 3 0;
#X connect 7 0 3 0;
#X connect 7 1 3 1;
#X connect 8 0 3 0;
#X connect 8 1 3 2;
#X connect 9 0 10 0;
#X connect 9 0 0 0;
#X connect 10 0 5 0;
#X connect 10 0 4 0;
#X connect 10 0 6 0;
#X connect 11 0 15 1;
#X connect 11 0 31 1;
#X connect 12 0 2 0;
#X connect 13 0 10 0;
#X connect 14 0 31 0;
#X connect 16 0 10 0;
#X connect 17 0 21 0;
#X connect 17 0 22 0;
#X connect 18 0 12 0;
#X connect 19 0 20 0;
#X connect 20 0 34 0;
#X connect 21 0 41 0;
#X connect 21 1 42 0;
#X connect 21 2 45 0;
#X connect 21 3 40 0;
#X connect 21 4 46 0;
#X connect 23 0 25 0;
#X connect 24 0 27 0;
#X connect 25 0 26 0;
#X connect 26 0 32 0;
#X connect 27 0 28 0;
#X connect 28 0 29 0;
#X connect 28 0 44 0;
#X connect 29 0 12 0;
#X connect 30 0 12 0;
#X connect 32 0 30 0;
#X connect 32 0 43 0;
#X connect 32 1 33 0;
#X connect 33 0 29 0;
#X connect 34 0 18 0;
#X connect 34 0 47 0;
#X connect 34 1 35 0;
#X connect 34 2 36 0;
#X connect 35 0 29 0;
#X connect 36 0 30 0;
#X connect 37 0 29 0;
#X connect 38 0 30 0;
#X connect 39 0 18 0;
#X connect 40 0 23 1;
#X connect 41 0 24 0;
#X connect 42 0 24 1;
#X connect 43 0 38 0;
#X connect 44 0 37 0;
#X connect 45 0 23 0;
#X connect 46 0 19 0;
#X connect 47 0 39 0;
