#N canvas 215 37 499 382 12;
#X msg 138 319 0 1 0 0;
#X msg 160 287 1 1 1 0;
#X msg 291 329 all bang;
#X msg 103 148 6 1 1.4 2;
#X msg 72 126 7 1 4 0;
#X msg 181 262 2 1 3 2;
#X msg 179 232 3 1 -2 2;
#X msg 72 204 4 1 -3.5 1.5;
#X msg 145 176 5 1 -2 0;
#X obj 74 88 loadbang;
#X obj 129 345 clone 8 series_num;
#X msg 254 304 all \$1;
#X obj 273 249 clip 0 1;
#X obj 271 42 inlet;
#X floatatom 271 67 5 0 0 0 - - -, f 5;
#X floatatom 273 148 5 0 0 0 - - -, f 5;
#X obj 273 95 - 50;
#X obj 273 123 / 35;
#X obj 270 196 line 0 10;
#X floatatom 270 221 5 0 0 0 - - -, f 5;
#X msg 270 172 \$1 150;
#X connect 0 0 10 0;
#X connect 1 0 10 0;
#X connect 2 0 10 4;
#X connect 3 0 10 0;
#X connect 4 0 10 0;
#X connect 5 0 10 0;
#X connect 6 0 10 0;
#X connect 7 0 10 0;
#X connect 8 0 10 0;
#X connect 9 0 4 0;
#X connect 9 0 3 0;
#X connect 9 0 8 0;
#X connect 9 0 7 0;
#X connect 9 0 6 0;
#X connect 9 0 5 0;
#X connect 9 0 1 0;
#X connect 9 0 0 0;
#X connect 11 0 10 3;
#X connect 12 0 11 0;
#X connect 13 0 14 0;
#X connect 14 0 16 0;
#X connect 15 0 20 0;
#X connect 16 0 17 0;
#X connect 17 0 15 0;
#X connect 18 0 19 0;
#X connect 19 0 12 0;
#X connect 20 0 18 0;
