#N canvas 127 96 450 300 12;
#X msg 167 242 0 1 0 0;
#X msg 189 210 1 1 1 0;
#X msg 357 223 all bang;
#X msg 132 71 6 1 1.4 2;
#X msg 101 49 7 1 4 0;
#X msg 210 185 2 1 3 2;
#X msg 208 155 3 1 -2 2;
#X msg 101 127 4 1 -3.5 1.5;
#X msg 174 99 5 1 -2 0;
#X obj 103 11 loadbang;
#X obj 158 268 clone 8 series_num;
#X connect 0 0 10 0;
#X connect 1 0 10 0;
#X connect 2 0 10 4;
#X connect 3 0 10 0;
#X connect 4 0 10 0;
#X connect 5 0 10 0;
#X connect 6 0 10 0;
#X connect 7 0 10 0;
#X connect 8 0 10 0;
#X connect 9 0 4 0;
#X connect 9 0 3 0;
#X connect 9 0 8 0;
#X connect 9 0 7 0;
#X connect 9 0 6 0;
#X connect 9 0 5 0;
#X connect 9 0 1 0;
#X connect 9 0 0 0;
