#N canvas 215 50 499 382 12;
#X msg 138 319 0 1 0 0;
#X msg 160 287 1 1 1 0;
#X msg 291 329 all bang;
#X msg 103 148 6 1 1.4 2;
#X msg 72 126 7 1 4 0;
#X msg 181 262 2 1 3 2;
#X msg 179 232 3 1 -2 2;
#X msg 72 204 4 1 -3.5 1.5;
#X msg 145 176 5 1 -2 0;
#X obj 129 345 clone 8 series_num;
#X msg 254 304 all \$1;
#X obj 273 249 clip 0 1;
#X obj 271 42 inlet;
#X floatatom 271 67 5 0 0 0 - - -, f 5;
#X floatatom 273 148 5 0 0 0 - - -, f 5;
#X obj 273 95 - 50;
#X obj 273 123 / 35;
#X obj 270 196 line 0 10;
#X floatatom 270 221 5 0 0 0 - - -, f 5;
#X msg 270 172 \$1 150;
#X obj 374 177 inlet;
#X obj 80 42 loadbang;
#X obj 397 216 tgl 15 0 empty empty empty 17 7 0 10 -262144 -1 -1 0
1;
#X obj 168 71 select 1;
#X obj 414 257 select 0;
#X obj 74 88 bng 15 250 50 0 empty empty empty 17 7 0 10 -262144 -1
-1;
#X connect 0 0 9 0;
#X connect 1 0 9 0;
#X connect 2 0 9 4;
#X connect 3 0 9 0;
#X connect 4 0 9 0;
#X connect 5 0 9 0;
#X connect 6 0 9 0;
#X connect 7 0 9 0;
#X connect 8 0 9 0;
#X connect 10 0 9 3;
#X connect 11 0 10 0;
#X connect 12 0 13 0;
#X connect 13 0 15 0;
#X connect 14 0 19 0;
#X connect 15 0 16 0;
#X connect 16 0 14 0;
#X connect 17 0 18 0;
#X connect 18 0 11 0;
#X connect 19 0 17 0;
#X connect 20 0 22 0;
#X connect 21 0 22 0;
#X connect 22 0 23 0;
#X connect 22 0 24 0;
#X connect 23 0 25 0;
#X connect 24 0 2 0;
#X connect 25 0 4 0;
#X connect 25 0 3 0;
#X connect 25 0 8 0;
#X connect 25 0 7 0;
#X connect 25 0 6 0;
#X connect 25 0 5 0;
#X connect 25 0 1 0;
#X connect 25 0 0 0;
