#N canvas 807 66 532 428 10;
#X msg 281 353 all bang;
#X msg 415 241 all 0;
#X msg 347 324 all 1;
#X obj 413 325 t b a;
#X msg 411 351 0;
#X obj 320 230 bng 15 250 50 0 empty empty empty 17 7 0 10 -262144
-1 -1;
#X obj 266 262 0;
#X obj 264 285 delay 300;
#X obj 208 389 clone 24 snake;
#X obj 392 91 inlet;
#X obj 376 166 select 0;
#X obj 341 130 tgl 15 0 empty empty empty 17 7 0 10 -262144 -1 -1 0
1;
#X obj 73 141 inlet;
#X obj 101 224 spigot 0;
#X obj 148 268 select 1;
#X obj 263 312 delay 1100;
#X obj 78 186 > 70;
#X obj 285 66 loadbang;
#X msg 288 98 0;
#X floatatom 73 163 5 0 0 0 - - -, f 5;
#X connect 0 0 8 0;
#X connect 1 0 3 0;
#X connect 2 0 8 1;
#X connect 3 0 4 0;
#X connect 3 1 8 1;
#X connect 5 0 2 0;
#X connect 5 0 6 0;
#X connect 5 0 7 0;
#X connect 5 0 15 0;
#X connect 6 0 0 0;
#X connect 7 0 0 0;
#X connect 9 0 11 0;
#X connect 10 0 1 0;
#X connect 10 1 5 0;
#X connect 11 0 10 0;
#X connect 11 0 13 1;
#X connect 12 0 16 0;
#X connect 12 0 19 0;
#X connect 13 0 14 0;
#X connect 14 0 0 0;
#X connect 15 0 0 0;
#X connect 16 0 13 0;
#X connect 17 0 18 0;
#X connect 18 0 11 0;
