#N canvas 201 50 1159 703 12;
#X obj 84 23 part_head;
#X floatatom 484 419 5 0 0 0 - - -, f 5;
#X obj 487 449 / 255;
#X floatatom 546 416 5 0 0 0 - - -, f 5;
#X obj 547 444 / 255;
#X obj 547 469 t b f;
#X floatatom 616 415 5 0 0 0 - - -, f 5;
#X obj 616 435 / 255;
#X obj 616 462 t b f;
#X obj 493 515 pack f f f;
#X floatatom 729 423 5 0 255 0 - - -, f 5;
#X obj 729 445 / 255;
#X obj 729 501 pack f f f;
#X floatatom 811 415 5 0 0 0 - - -, f 5;
#X obj 809 435 / 255;
#X obj 806 458 t b f;
#X floatatom 883 416 5 0 0 0 - - -, f 5;
#X obj 883 438 / 255;
#X obj 883 463 t b f;
#X obj 556 577 part_render;
#X obj 464 221 line 0 10;
#X obj 630 223 line 0 10;
#X obj 546 222 line 0 10;
#X obj 723 221 line 0 10;
#X obj 887 224 line 0 10;
#X obj 809 223 line 0 10;
#X obj 638 35 bng 15 250 50 0 empty empty empty 17 7 0 10 -262144 -1
-1;
#X obj 638 57 metro 200;
#X obj 195 40 tgl 15 0 empty empty empty 17 7 0 10 -262144 -1 -1 1
1;
#X obj 150 62 select 1;
#X obj 225 61 select 0;
#X floatatom 135 203 5 0 0 0 - - -, f 5;
#X floatatom 318 198 5 0 0 0 - - -, f 5;
#X obj 318 173 line 0.001 50;
#X msg 368 149 set 0.001;
#X msg 474 605 draw fill;
#X obj 272 380 alpha;
#X obj 264 404 rotateXYZ 0 0 0;
#X obj 331 365 tgl 15 0 empty empty empty 17 7 0 10 -262144 -1 -1 1
1;
#X obj 366 214 random 43;
#X obj 546 176 random 43;
#X obj 628 177 random 43;
#X obj 723 175 random 43;
#X obj 810 176 random 43;
#X obj 891 173 random 43;
#X msg 463 199 \$1 199;
#X msg 545 200 \$1 199;
#X msg 628 200 \$1 199;
#X msg 722 199 \$1 199;
#X msg 808 201 \$1 199;
#X msg 887 201 \$1 199;
#X msg 205 223 symbol sphere;
#X obj 90 344 part_killold 2;
#X obj 92 290 part_source 50;
#X msg 144 133 0.001 400;
#X obj 574 633 sphere 0.5 6;
#X msg 201 155 set 50;
#X obj 151 179 line 50 50;
#X obj 640 -33 loadbang;
#X obj 265 429 translateXYZ 0 0 2.62;
#X obj 271 458 colorRGB 0 0 0;
#X obj 89 -23 gemhead 50;
#X msg 413 43 set 50;
#X msg 311 127 50 400;
#X obj 93 319 part_velocity sphere 0 0 0 0;
#X obj 413 19 pipe 500;
#X obj 119 404 ortho;
#X obj 48 391 tgl 15 0 empty empty empty 17 7 0 10 -262144 -1 -1 0
1;
#X msg 133 376 compat 0;
#X obj 219 -6 inlet;
#X msg 414 69 set 53;
#X obj 278 92 t b b b b b;
#X obj 142 104 t b b b b b;
#X obj 548 324 + 0;
#X obj 473 321 + 0;
#X obj 727 332 + 0;
#X obj 623 333 + 0;
#X obj 893 331 + 0;
#X obj 804 329 + 0;
#X obj 556 551 part_color;
#X obj 337 280 inlet;
#X obj 417 285 \$1;
#X obj 394 346 expr cos($f1*3.1416/5)*3;
#X obj 392 378 expr sin($f1*3.1416/5)*3;
#X obj 321 -14 inlet;
#X msg 201 268 0 0 0 \$1;
#X obj 267 191 f;
#X msg 525 30 0;
#X obj 305 42 t a a;
#X connect 0 0 53 0;
#X connect 1 0 2 0;
#X connect 2 0 9 0;
#X connect 3 0 4 0;
#X connect 4 0 5 0;
#X connect 5 0 9 0;
#X connect 5 1 9 1;
#X connect 6 0 7 0;
#X connect 7 0 8 0;
#X connect 8 0 9 0;
#X connect 8 1 9 2;
#X connect 9 0 79 1;
#X connect 10 0 11 0;
#X connect 11 0 12 0;
#X connect 12 0 79 2;
#X connect 13 0 14 0;
#X connect 14 0 15 0;
#X connect 15 0 12 0;
#X connect 15 1 12 1;
#X connect 16 0 17 0;
#X connect 17 0 18 0;
#X connect 18 0 12 0;
#X connect 18 1 12 2;
#X connect 19 0 55 0;
#X connect 20 0 74 0;
#X connect 21 0 76 0;
#X connect 22 0 73 0;
#X connect 23 0 75 0;
#X connect 24 0 77 0;
#X connect 25 0 78 0;
#X connect 26 0 27 0;
#X connect 27 0 39 0;
#X connect 27 0 40 0;
#X connect 27 0 41 0;
#X connect 27 0 42 0;
#X connect 27 0 43 0;
#X connect 27 0 44 0;
#X connect 28 0 29 0;
#X connect 28 0 30 0;
#X connect 29 0 71 0;
#X connect 30 0 72 0;
#X connect 31 0 53 1;
#X connect 32 0 53 1;
#X connect 33 0 32 0;
#X connect 34 0 33 0;
#X connect 35 0 55 0;
#X connect 36 0 37 0;
#X connect 37 0 59 0;
#X connect 38 0 36 1;
#X connect 39 0 45 0;
#X connect 40 0 46 0;
#X connect 41 0 47 0;
#X connect 42 0 48 0;
#X connect 43 0 49 0;
#X connect 44 0 50 0;
#X connect 45 0 20 0;
#X connect 46 0 22 0;
#X connect 47 0 21 0;
#X connect 48 0 23 0;
#X connect 49 0 25 0;
#X connect 50 0 24 0;
#X connect 51 0 53 2;
#X connect 52 0 66 0;
#X connect 53 0 64 0;
#X connect 54 0 57 0;
#X connect 56 0 57 0;
#X connect 57 0 31 0;
#X connect 58 0 38 0;
#X connect 58 0 26 0;
#X connect 58 0 68 0;
#X connect 58 0 72 0;
#X connect 58 0 81 0;
#X connect 58 0 87 0;
#X connect 59 0 60 0;
#X connect 60 0 79 0;
#X connect 61 0 0 0;
#X connect 62 0 61 0;
#X connect 63 0 33 0;
#X connect 64 0 52 0;
#X connect 65 0 62 0;
#X connect 66 0 36 0;
#X connect 67 0 66 0;
#X connect 68 0 66 0;
#X connect 69 0 28 0;
#X connect 70 0 61 0;
#X connect 71 0 63 0;
#X connect 71 1 34 0;
#X connect 71 2 51 0;
#X connect 71 2 86 0;
#X connect 71 3 65 0;
#X connect 72 0 54 0;
#X connect 72 1 56 0;
#X connect 72 2 51 0;
#X connect 72 2 86 0;
#X connect 72 3 70 0;
#X connect 73 0 3 0;
#X connect 74 0 1 0;
#X connect 75 0 10 0;
#X connect 76 0 6 0;
#X connect 77 0 16 0;
#X connect 78 0 13 0;
#X connect 79 0 19 0;
#X connect 80 0 37 3;
#X connect 81 0 82 0;
#X connect 81 0 83 0;
#X connect 82 0 59 1;
#X connect 83 0 59 2;
#X connect 84 0 88 0;
#X connect 85 0 53 3;
#X connect 86 0 85 0;
#X connect 87 0 86 1;
#X connect 88 0 86 0;
#X connect 88 1 86 1;
