#N canvas 842 75 630 459 12;
#X msg 93 368 all bang;
#X msg 426 412 all \$1;
#X floatatom 429 390 5 0 0 0 - - -, f 5;
#X obj 191 408 clone 10 _snow_flower2;
#X obj 57 64 expr a[0]+a[1]+a[2]+a[3]+a[4];
#X obj 140 121 expr a[10]+a[11]+a[12]+a[13]+a[14];
#X obj 225 174 expr a[20]+a[21]+a[22]+a[23]+a[24];
#X obj 320 225 expr a[30]+a[31]+a[32]+a[33]+a[34];
#X obj 409 279 expr a[40]+a[41]+a[42]+a[43]+a[44];
#X obj 97 91 expr a[5]+a[6]+a[7]+a[8]+a[9];
#X obj 183 149 expr a[15]+a[16]+a[17]+a[18]+a[19];
#X obj 278 201 expr a[25]+a[26]+a[27]+a[28]+a[29];
#X obj 357 252 expr a[35]+a[36]+a[37]+a[38]+a[39];
#X obj 459 307 expr a[45]+a[46]+a[47]+a[48]+a[49];
#X floatatom 33 138 5 0 0 0 - - -, f 5;
#X msg 35 194 0 \$1;
#X floatatom 81 137 5 0 0 0 - - -, f 5;
#X msg 83 193 1 \$1;
#X floatatom 136 151 5 0 0 0 - - -, f 5;
#X msg 138 201 2 \$1;
#X obj 137 177 / 150;
#X obj 82 163 / 150;
#X obj 34 164 / 150;
#X floatatom 184 187 5 0 0 0 - - -, f 5;
#X obj 185 213 / 150;
#X msg 186 237 3 \$1;
#X floatatom 233 212 5 0 0 0 - - -, f 5;
#X obj 234 238 / 150;
#X msg 237 262 4 \$1;
#X floatatom 283 234 5 0 0 0 - - -, f 5;
#X obj 284 260 / 150;
#X msg 285 284 5 \$1;
#X floatatom 303 312 5 0 0 0 - - -, f 5;
#X obj 304 338 / 150;
#X floatatom 361 284 5 0 0 0 - - -, f 5;
#X obj 362 310 / 150;
#X msg 305 362 6 \$1;
#X msg 363 334 7 \$1;
#X floatatom 414 307 5 0 0 0 - - -, f 5;
#X obj 415 333 / 150;
#X msg 416 357 8 \$1;
#X floatatom 488 335 5 0 0 0 - - -, f 5;
#X obj 489 361 / 150;
#X msg 490 385 9 \$1;
#X obj 57 40 spigot 0;
#X obj 173 11 inlet;
#X obj 55 268 inlet;
#X obj 60 298 tgl 15 0 empty empty empty 17 7 0 10 -262144 -1 -1 0
1;
#X obj 61 320 t a a;
#X connect 0 0 3 0;
#X connect 1 0 3 2;
#X connect 2 0 1 0;
#X connect 4 0 14 0;
#X connect 5 0 18 0;
#X connect 6 0 26 0;
#X connect 7 0 32 0;
#X connect 8 0 38 0;
#X connect 9 0 16 0;
#X connect 10 0 23 0;
#X connect 11 0 29 0;
#X connect 12 0 34 0;
#X connect 13 0 41 0;
#X connect 14 0 22 0;
#X connect 15 0 3 1;
#X connect 16 0 21 0;
#X connect 17 0 3 1;
#X connect 18 0 20 0;
#X connect 19 0 3 1;
#X connect 20 0 19 0;
#X connect 21 0 17 0;
#X connect 22 0 15 0;
#X connect 23 0 24 0;
#X connect 24 0 25 0;
#X connect 25 0 3 1;
#X connect 26 0 27 0;
#X connect 27 0 28 0;
#X connect 28 0 3 1;
#X connect 29 0 30 0;
#X connect 30 0 31 0;
#X connect 31 0 3 1;
#X connect 32 0 33 0;
#X connect 33 0 36 0;
#X connect 34 0 35 0;
#X connect 35 0 37 0;
#X connect 36 0 3 1;
#X connect 37 0 3 1;
#X connect 38 0 39 0;
#X connect 39 0 40 0;
#X connect 40 0 3 1;
#X connect 41 0 42 0;
#X connect 42 0 43 0;
#X connect 43 0 3 1;
#X connect 44 0 4 0;
#X connect 44 0 9 0;
#X connect 44 0 5 0;
#X connect 44 0 10 0;
#X connect 44 0 6 0;
#X connect 44 0 11 0;
#X connect 44 0 7 0;
#X connect 44 0 12 0;
#X connect 44 0 8 0;
#X connect 44 0 13 0;
#X connect 45 0 44 0;
#X connect 46 0 47 0;
#X connect 47 0 48 0;
#X connect 48 0 44 1;
#X connect 48 1 0 0;
