#N canvas 607 101 1362 691 12;
#X floatatom 661 255 5 0 0 0 - - -, f 5;
#X msg 661 277 all \$1;
#X obj 516 357 spigot 0;
#X obj 46 13 inlet;
#X obj 97 243 tgl 15 0 empty empty empty 17 7 0 10 -262144 -1 -1 1
1;
#X obj 67 103 t b b b;
#X floatatom 347 190 5 0 0 0 - - -, f 5;
#X msg 378 313 all \$1;
#X obj 65 77 select 1;
#X obj 64 48 tgl 15 0 empty empty empty 17 7 0 10 -262144 -1 -1 1 1
;
#X obj 160 48 select 0;
#X obj 348 212 select 0.1;
#X obj 347 269 expr pow($f1 \, 2)*10;
#X msg 434 138 set 1;
#X obj 347 165 line 1 10;
#X msg 347 132 0.1 1500;
#X obj 23 157 delay 1500;
#X obj 674 177 f;
#X obj 667 147 metro 10;
#X obj 767 160 + 1;
#X floatatom 674 202 5 0 0 0 - - -, f 5;
#X obj 767 185 % 3600;
#X obj 671 223 / 10;
#X obj 660 61 loadbang;
#X floatatom 243 189 5 0 0 0 - - -, f 5;
#X msg 278 297 all \$1;
#X obj 243 164 line 0.1 10;
#X msg 322 82 set 0.1;
#X obj 158 73 t b b b;
#X obj 244 211 select 2;
#X msg 200 133 2 700;
#X obj 438 388 clone 10 _snow_flower2;
#X obj 513 159 inlet;
#X msg 145 283 all \$1;
#X msg 148 170 0;
#X msg 92 194 1;
#X msg 34 208 1;
#X connect 0 0 1 0;
#X connect 1 0 31 2;
#X connect 2 0 31 1;
#X connect 3 0 9 0;
#X connect 4 0 2 1;
#X connect 5 0 16 0;
#X connect 5 1 35 0;
#X connect 5 2 15 0;
#X connect 6 0 11 0;
#X connect 6 0 12 0;
#X connect 7 0 31 1;
#X connect 8 0 5 0;
#X connect 9 0 8 0;
#X connect 9 0 10 0;
#X connect 10 0 28 0;
#X connect 11 0 13 0;
#X connect 12 0 7 0;
#X connect 13 0 14 0;
#X connect 14 0 6 0;
#X connect 15 0 14 0;
#X connect 16 0 36 0;
#X connect 17 0 19 0;
#X connect 17 0 20 0;
#X connect 18 0 17 0;
#X connect 19 0 21 0;
#X connect 20 0 22 0;
#X connect 21 0 17 1;
#X connect 22 0 0 0;
#X connect 23 0 18 0;
#X connect 24 0 25 0;
#X connect 24 0 29 0;
#X connect 25 0 31 1;
#X connect 26 0 24 0;
#X connect 27 0 26 0;
#X connect 28 1 34 0;
#X connect 28 2 30 0;
#X connect 29 0 27 0;
#X connect 30 0 26 0;
#X connect 32 0 2 0;
#X connect 33 0 31 0;
#X connect 34 0 33 0;
#X connect 34 0 4 0;
#X connect 35 0 33 0;
#X connect 36 0 4 0;
