#N canvas 427 197 450 299 12;
#X msg 324 175 all \$1;
#X msg 384 187 all \$1;
#X floatatom 382 138 5 0 0 0 - - -, f 5;
#X floatatom 415 160 5 0 0 0 - - -, f 5;
#X obj 251 63 bng 15 250 50 0 empty empty empty 17 7 0 10 -262144 -1
-1;
#X obj 240 124 i;
#X obj 296 129 + 1;
#X obj 246 84 metro 100;
#X msg 281 55 0;
#X msg 222 53 0;
#X obj 245 154 * 3;
#X obj 248 17 loadbang;
#X obj 61 45 inlet;
#X obj 77 147 sel 1;
#X msg 143 198 all 2.5;
#X obj 78 174 t b b b;
#X obj 64 83 spigot 1;
#X msg 150 104 0;
#X obj 37 238 t b b;
#X msg 147 55 1;
#X msg 119 232 all 0;
#X obj 58 205 delay 500;
#X obj 74 118 >= 70;
#X obj 204 226 clone 90 random_square;
#X obj 382 21 inlet;
#X msg 384 97 all \$1;
#X obj 381 69 tgl 15 0 empty empty empty 17 7 0 10 -262144 -1 -1 0
1;
#X connect 0 0 23 1;
#X connect 1 0 23 2;
#X connect 2 0 0 0;
#X connect 3 0 1 0;
#X connect 4 0 7 0;
#X connect 5 0 6 0;
#X connect 5 0 10 0;
#X connect 6 0 5 1;
#X connect 7 0 5 0;
#X connect 8 0 7 0;
#X connect 9 0 5 0;
#X connect 10 0 2 0;
#X connect 10 0 3 0;
#X connect 11 0 4 0;
#X connect 11 0 26 0;
#X connect 12 0 16 0;
#X connect 13 0 15 0;
#X connect 14 0 23 0;
#X connect 15 0 21 0;
#X connect 15 1 14 0;
#X connect 15 2 17 0;
#X connect 16 0 22 0;
#X connect 17 0 16 1;
#X connect 18 0 19 0;
#X connect 18 1 20 0;
#X connect 19 0 16 1;
#X connect 20 0 23 0;
#X connect 21 0 18 0;
#X connect 22 0 13 0;
#X connect 24 0 26 0;
#X connect 25 0 23 7;
#X connect 26 0 25 0;
#X connect 26 0 16 1;
