#N canvas 833 74 796 530 12;
#X obj 105 200 bng 15 250 50 0 empty empty empty 17 7 0 10 -262144
-1 -1;
#X obj 44 259 i;
#X msg 163 191 0;
#X obj 93 228 metro 50;
#X floatatom 5 297 5 0 0 0 - - -, f 5;
#X obj 44 283 % 20;
#X obj 114 334 * 18;
#X obj 110 364 pack;
#X msg 149 387 \$1 \$2;
#X msg 173 249 0;
#X obj 19 436 clone 20 move_mode_text;
#X obj 139 278 + 1, f 4;
#X obj 51 308 t f f f;
#X obj 343 211 bng 15 250 50 0 empty empty empty 17 7 0 10 -262144
-1 -1;
#X msg 401 202 0;
#X obj 331 239 metro 50;
#X floatatom 226 297 5 0 0 0 - - -, f 5;
#X obj 282 294 % 20;
#X obj 387 369 pack;
#X msg 429 392 \$1 \$2;
#X msg 411 260 0;
#X obj 406 229 delay 500;
#X obj 257 447 clone 20 move_mode_text;
#X obj 377 289 + 1, f 4;
#X obj 289 319 t f f f;
#X obj 168 218 delay 500;
#X obj 282 270 i;
#X obj 584 210 bng 15 250 50 0 empty empty empty 17 7 0 10 -262144
-1 -1;
#X msg 642 201 0;
#X obj 572 238 metro 50;
#X floatatom 467 296 5 0 0 0 - - -, f 5;
#X obj 523 293 % 20;
#X obj 593 344 * 18;
#X obj 589 374 pack;
#X msg 628 397 \$1 \$2;
#X msg 652 259 0;
#X obj 647 228 delay 500;
#X obj 498 446 clone 20 move_mode_text;
#X obj 618 288 + 1, f 4;
#X obj 530 318 t f f f;
#X obj 523 269 i;
#X msg 494 397 \$1 2 0 2 0.1 0.4;
#X obj 231 5 inlet;
#X obj 315 55 sel 1;
#X obj 315 87 bng 15 250 50 0 empty empty empty 17 7 0 10 -262144 -1
-1;
#X floatatom 231 30 5 0 0 0 - - -, f 5;
#X obj 381 60 sel 1;
#X obj 379 85 bng 15 250 50 0 empty empty empty 17 7 0 10 -262144 -1
-1;
#X obj 445 53 sel 1;
#X obj 451 81 bng 15 250 50 0 empty empty empty 17 7 0 10 -262144 -1
-1;
#X obj 382 30 >= 75;
#X obj 443 26 >= 60;
#X obj 316 29 >= 85;
#X obj 361 5 t f f f;
#X obj 372 114 t b b;
#X obj 452 108 t b b;
#X obj 306 115 t b b;
#X obj 390 342 * -18;
#X obj 457 141 delay 800;
#X obj 367 140 delay 800;
#X obj 263 144 delay 800;
#X msg 253 398 \$1 2.8 0 2 0.1 0.4;
#X msg 15 387 \$1 3.6 0 2 0.1 0.4;
#X connect 0 0 3 0;
#X connect 1 0 4 0;
#X connect 1 0 5 0;
#X connect 1 0 11 0;
#X connect 2 0 3 0;
#X connect 2 0 25 0;
#X connect 3 0 1 0;
#X connect 5 0 12 0;
#X connect 6 0 7 1;
#X connect 7 0 8 0;
#X connect 8 0 10 1;
#X connect 9 0 1 1;
#X connect 11 0 1 1;
#X connect 12 0 62 0;
#X connect 12 1 7 0;
#X connect 12 2 6 0;
#X connect 13 0 15 0;
#X connect 14 0 15 0;
#X connect 14 0 21 0;
#X connect 15 0 26 0;
#X connect 17 0 24 0;
#X connect 18 0 19 0;
#X connect 19 0 22 1;
#X connect 20 0 26 1;
#X connect 21 0 20 0;
#X connect 23 0 26 1;
#X connect 24 0 61 0;
#X connect 24 1 18 0;
#X connect 24 2 57 0;
#X connect 25 0 9 0;
#X connect 26 0 16 0;
#X connect 26 0 17 0;
#X connect 26 0 23 0;
#X connect 27 0 29 0;
#X connect 28 0 29 0;
#X connect 28 0 36 0;
#X connect 29 0 40 0;
#X connect 31 0 39 0;
#X connect 32 0 33 1;
#X connect 33 0 34 0;
#X connect 34 0 37 1;
#X connect 35 0 40 1;
#X connect 36 0 35 0;
#X connect 38 0 40 1;
#X connect 39 0 41 0;
#X connect 39 1 33 0;
#X connect 39 2 32 0;
#X connect 40 0 30 0;
#X connect 40 0 31 0;
#X connect 40 0 38 0;
#X connect 41 0 37 0;
#X connect 42 0 45 0;
#X connect 42 0 53 0;
#X connect 43 0 44 0;
#X connect 44 0 56 0;
#X connect 46 0 47 0;
#X connect 47 0 54 0;
#X connect 48 0 49 0;
#X connect 49 0 55 0;
#X connect 50 0 46 0;
#X connect 51 0 48 0;
#X connect 52 0 43 0;
#X connect 53 0 52 0;
#X connect 53 1 50 0;
#X connect 53 2 51 0;
#X connect 54 0 59 0;
#X connect 54 1 13 0;
#X connect 55 0 58 0;
#X connect 55 1 27 0;
#X connect 56 0 60 0;
#X connect 56 1 0 0;
#X connect 57 0 18 1;
#X connect 58 0 28 0;
#X connect 59 0 14 0;
#X connect 60 0 2 0;
#X connect 61 0 22 0;
#X connect 62 0 10 0;
