#N canvas 37 50 588 482 12;
#X obj 107 162 gemhead;
#X obj 128 359 translateXYZ 0 0 0;
#X obj 366 231 i;
#X floatatom 368 294 5 0 0 0 - - -, f 5;
#X obj 322 231 i;
#X floatatom 327 296 5 0 0 0 - - -, f 5;
#X obj 414 230 i;
#X floatatom 414 254 5 0 0 0 - - -, f 5;
#X obj 325 325 / 2.5;
#X obj 373 322 / 2.5;
#X obj 421 286 / 2.5;
#X obj 21 56 inlet;
#X obj 126 280 ortho;
#X msg 15 321 draw fill;
#X obj 114 193 alpha;
#X obj 106 428 cube 0.2;
#X obj 268 196 inlet;
#X obj 190 252 inlet;
#X obj 164 329 rotateXYZ 0 0 0;
#X obj 182 298 unpack 0 0 0;
#X obj 345 97 \$1;
#X obj 334 69 loadbang;
#X obj 24 195 bng 15 250 50 0 empty empty empty 17 7 0 10 -262144 -1
-1;
#X msg 20 234 compat 0;
#X obj 416 203 % 5;
#X obj 368 204 / 5;
#X obj 324 204 / 25;
#X obj 322 263 % 5;
#X obj 365 259 % 5;
#X obj 42 88 sel 0;
#X obj 93 88 sel 1;
#X msg 105 118 1;
#X msg 62 115 0;
#X obj 150 46 sel 2;
#X obj 226 29 line 0;
#X floatatom 220 54 5 0 0 0 - - -, f 5;
#X msg 283 59 set 0;
#X obj 228 100 sel 1;
#X floatatom 170 144 5 0 0 0 - - -, f 5;
#X obj 212 77 t f f;
#X obj 116 220 colorRGB 0 1 1 0.2;
#X obj 230 144 clip 0 1;
#X obj 182 121 expr sin(3.1416*$f1);
#X obj 242 179 * 0.5;
#X obj 329 367 - 0.8;
#X obj 382 363 - 0.8;
#X obj 422 340 - 0.8;
#X msg 228 6 1 500;
#X obj 448 89 tgl 15 0 empty empty empty 17 7 0 10 -262144 -1 -1 0
1;
#X obj 460 46 inlet;
#X connect 0 0 13 0;
#X connect 0 0 14 0;
#X connect 1 0 15 0;
#X connect 2 0 28 0;
#X connect 3 0 9 0;
#X connect 4 0 27 0;
#X connect 5 0 8 0;
#X connect 6 0 7 0;
#X connect 7 0 10 0;
#X connect 8 0 44 0;
#X connect 9 0 45 0;
#X connect 10 0 46 0;
#X connect 11 0 30 0;
#X connect 11 0 29 0;
#X connect 11 0 33 0;
#X connect 12 0 18 0;
#X connect 13 0 15 0;
#X connect 14 0 40 0;
#X connect 16 0 40 1;
#X connect 17 0 19 0;
#X connect 18 0 1 0;
#X connect 19 0 18 1;
#X connect 19 1 18 2;
#X connect 19 2 18 3;
#X connect 20 0 24 0;
#X connect 20 0 25 0;
#X connect 20 0 26 0;
#X connect 21 0 20 0;
#X connect 21 0 22 0;
#X connect 21 0 48 0;
#X connect 22 0 23 0;
#X connect 23 0 12 0;
#X connect 24 0 6 0;
#X connect 25 0 2 0;
#X connect 26 0 4 0;
#X connect 27 0 5 0;
#X connect 28 0 3 0;
#X connect 29 0 32 0;
#X connect 30 0 31 0;
#X connect 31 0 40 4;
#X connect 32 0 40 4;
#X connect 33 0 47 0;
#X connect 34 0 35 0;
#X connect 35 0 39 0;
#X connect 36 0 34 0;
#X connect 37 0 36 0;
#X connect 38 0 41 0;
#X connect 39 0 42 0;
#X connect 39 1 37 0;
#X connect 40 0 12 0;
#X connect 41 0 43 0;
#X connect 42 0 38 0;
#X connect 43 0 40 4;
#X connect 44 0 1 1;
#X connect 45 0 1 2;
#X connect 46 0 1 3;
#X connect 47 0 34 0;
#X connect 48 0 0 0;
#X connect 49 0 48 0;
