#N canvas 472 114 590 378 12;
#X obj 142 52 gemhead;
#X obj 154 285 translateXYZ 0 0 0;
#X obj 446 147 i;
#X floatatom 448 210 5 0 0 0 - - -, f 5;
#X obj 402 147 i;
#X floatatom 407 212 5 0 0 0 - - -, f 5;
#X obj 494 146 i;
#X floatatom 494 170 5 0 0 0 - - -, f 5;
#X obj 405 241 / 2.5;
#X obj 453 238 / 2.5;
#X obj 501 202 / 2.5;
#X obj 106 28 tgl 15 0 empty empty empty 17 7 0 10 -262144 -1 -1 0
1;
#X obj 51 11 inlet;
#X obj 155 184 ortho;
#X msg 48 196 draw line;
#X obj 163 83 alpha;
#X obj 153 113 color 0 1 1 0.05;
#X obj 159 343 cube 0.2;
#X obj 250 57 inlet;
#X obj 225 142 inlet;
#X obj 152 237 rotateXYZ 0 0 0;
#X obj 217 188 unpack 0 0 0;
#X obj 437 41 \$1;
#X obj 426 13 loadbang;
#X msg 170 156 compat 0;
#X obj 448 120 / 5;
#X obj 496 119 % 5;
#X obj 402 179 % 5;
#X obj 445 175 % 5;
#X obj 404 120 / 25;
#X obj 502 256 - 0.8;
#X obj 462 279 - 0.8;
#X obj 409 283 - 0.8;
#X connect 0 0 14 0;
#X connect 0 0 15 0;
#X connect 1 0 17 0;
#X connect 2 0 28 0;
#X connect 3 0 9 0;
#X connect 4 0 27 0;
#X connect 5 0 8 0;
#X connect 6 0 7 0;
#X connect 7 0 10 0;
#X connect 8 0 32 0;
#X connect 9 0 31 0;
#X connect 10 0 30 0;
#X connect 11 0 0 0;
#X connect 12 0 11 0;
#X connect 13 0 20 0;
#X connect 14 0 17 0;
#X connect 15 0 16 0;
#X connect 16 0 13 0;
#X connect 18 0 16 1;
#X connect 19 0 21 0;
#X connect 20 0 1 0;
#X connect 21 0 20 1;
#X connect 21 1 20 2;
#X connect 21 2 20 3;
#X connect 22 0 25 0;
#X connect 22 0 26 0;
#X connect 22 0 29 0;
#X connect 23 0 22 0;
#X connect 23 0 24 0;
#X connect 24 0 13 0;
#X connect 25 0 2 0;
#X connect 26 0 6 0;
#X connect 27 0 5 0;
#X connect 28 0 3 0;
#X connect 29 0 4 0;
#X connect 30 0 1 3;
#X connect 31 0 1 2;
#X connect 32 0 1 1;
