#N canvas 297 123 961 557 12;
#X obj 47 16 gwin;
#X obj 128 247 _cube_pos;
#X obj 265 58 bng 15 250 50 0 empty empty empty 17 7 0 10 -262144 -1
-1;
#X obj 268 98 metro 50;
#X obj 180 94 env~;
#X obj 119 141 i;
#X floatatom 119 166 5 0 0 0 - - -, f 5;
#X obj 221 247 _square_appear;
#X obj 152 127 unsig~ 200;
#X obj 549 236 _background;
#X obj 348 202 _square_circle_text;
#X obj 354 251 _square_circle;
#X obj 400 295 _hack_mission;
#X obj 94 316 env~;
#X obj 66 349 unsig~ 200;
#X obj 62 383 i;
#X floatatom 62 408 5 0 0 0 - - -, f 5;
#X obj 208 317 env~;
#X obj 180 350 unsig~ 200;
#X obj 176 384 i;
#X floatatom 176 409 5 0 0 0 - - -, f 5;
#X obj 329 319 env~;
#X obj 301 352 unsig~ 200;
#X obj 297 386 i;
#X floatatom 297 411 5 0 0 0 - - -, f 5;
#X obj 217 23 adc~;
#X obj 558 296 _bill;
#X connect 2 0 3 0;
#X connect 4 0 8 0;
#X connect 5 0 6 0;
#X connect 6 0 10 0;
#X connect 6 0 1 0;
#X connect 6 0 7 0;
#X connect 8 0 5 0;
#X connect 13 0 14 0;
#X connect 14 0 15 0;
#X connect 15 0 16 0;
#X connect 17 0 18 0;
#X connect 18 0 19 0;
#X connect 19 0 20 0;
#X connect 21 0 22 0;
#X connect 22 0 23 0;
#X connect 23 0 24 0;
#X connect 25 0 4 0;
#X connect 25 0 26 0;
