#N canvas 203 154 767 716 12;
#X obj 44 24 gwin;
#X obj 44 422 _cube_pos;
#X obj 55 153 env~;
#X obj 26 213 i;
#X floatatom 26 238 5 0 0 0 - - -, f 5;
#X obj 24 316 _square_appear;
#X obj 27 186 unsig~ 200;
#X obj 227 557 _snow_flower1;
#X floatatom 226 480 5 0 1000 0 - - -, f 5;
#X obj 226 525 + 0.01;
#X obj 600 229 _background;
#X obj 35 359 _square_circle_text;
#X obj 39 390 _hack_mission;
#X msg 450 2 1 1000;
#X obj 415 275 _bill;
#X obj 452 48 line 0;
#X obj 508 83 select 1;
#X obj 459 83 t a a;
#X msg 527 200 set 0;
#X floatatom 458 140 5 0 0 0 - - -, f 5;
#X obj 458 114 expr pow($f1 \, 3);
#X obj 347 555 _snow_flower2_amp;
#X obj 215 31 adc~;
#X obj 223 456 clip 0 20;
#X obj 218 399 - 50;
#X obj 218 429 / 2;
#X obj 25 279 spigot 1;
#X obj 550 584 like_text_ripple;
#X obj 163 211 tgl 15 0 empty empty empty 17 7 0 10 -262144 -1 -1 0
1;
#X obj 175 168 loadbang;
#X obj 202 366 spigot 0;
#X msg 342 506 all \$1;
#X floatatom 340 247 5 0 0 0 - - -, f 5;
#X obj 342 409 - 45;
#X obj 342 433 clip 0.01 100;
#X floatatom 342 458 5 0 0 0 - - -, f 5;
#X obj 341 222 env~;
#X obj 304 353 spigot 0;
#X obj 194 235 * -1;
#X obj 196 261 + 1;
#X obj 196 286 tgl 15 0 empty empty empty 17 7 0 10 -262144 -1 -1 1
1;
#X msg 262 276 \$1;
#X obj 227 503 / 100;
#X obj 342 481 expr pow(1.01 \, $f1)-0.99;
#X obj 551 529 route 0 1 2;
#X obj 560 505 i;
#X obj 657 506 + 1;
#X obj 654 534 % 3;
#X floatatom 633 407 5 0 0 0 - - -, f 5;
#X msg 655 369 1;
#X msg 611 368 0;
#X obj 555 443 t b b;
#X obj 651 484 delay 2000;
#X floatatom 490 526 5 0 0 0 - - -, f 5;
#X obj 652 459 delay 1500;
#X obj 653 434 delay 1800;
#X obj 423 409 > 80;
#X obj 488 375 select 1;
#X floatatom 391 376 5 0 0 0 - - -, f 5;
#X obj 559 482 spigot 1;
#X obj 504 419 bng 15 250 50 0 empty empty empty 17 7 0 10 -262144
-1 -1;
#X connect 2 0 6 0;
#X connect 3 0 4 0;
#X connect 4 0 26 0;
#X connect 4 0 30 0;
#X connect 6 0 3 0;
#X connect 8 0 42 0;
#X connect 9 0 7 1;
#X connect 13 0 15 0;
#X connect 15 0 17 0;
#X connect 16 0 18 0;
#X connect 17 0 20 0;
#X connect 17 1 16 0;
#X connect 18 0 15 0;
#X connect 19 0 14 1;
#X connect 20 0 19 0;
#X connect 22 0 14 0;
#X connect 22 0 36 0;
#X connect 22 0 2 0;
#X connect 23 0 8 0;
#X connect 24 0 25 0;
#X connect 25 0 23 0;
#X connect 26 0 5 0;
#X connect 26 0 11 0;
#X connect 26 0 12 0;
#X connect 26 0 1 0;
#X connect 28 0 26 1;
#X connect 28 0 5 1;
#X connect 28 0 11 1;
#X connect 28 0 12 1;
#X connect 28 0 1 1;
#X connect 28 0 38 0;
#X connect 29 0 28 0;
#X connect 30 0 24 0;
#X connect 31 0 21 1;
#X connect 32 0 37 0;
#X connect 33 0 34 0;
#X connect 34 0 35 0;
#X connect 35 0 43 0;
#X connect 36 0 32 0;
#X connect 37 0 33 0;
#X connect 37 0 58 0;
#X connect 38 0 39 0;
#X connect 39 0 40 0;
#X connect 40 0 41 0;
#X connect 41 0 7 0;
#X connect 41 0 30 1;
#X connect 41 0 21 0;
#X connect 41 0 37 1;
#X connect 41 0 14 2;
#X connect 42 0 9 0;
#X connect 43 0 31 0;
#X connect 44 0 27 0;
#X connect 44 0 55 0;
#X connect 44 1 27 1;
#X connect 44 1 54 0;
#X connect 44 2 27 2;
#X connect 44 2 52 0;
#X connect 45 0 46 0;
#X connect 45 0 44 0;
#X connect 45 0 53 0;
#X connect 46 0 47 0;
#X connect 47 0 45 1;
#X connect 48 0 59 1;
#X connect 49 0 48 0;
#X connect 50 0 48 0;
#X connect 51 0 50 0;
#X connect 51 1 59 0;
#X connect 52 0 49 0;
#X connect 54 0 49 0;
#X connect 55 0 49 0;
#X connect 56 0 57 0;
#X connect 57 0 51 0;
#X connect 58 0 56 0;
#X connect 59 0 45 0;
#X connect 60 0 51 0;
