#N canvas 940 19 681 716 12;
#X obj 47 16 gwin;
#X obj 29 249 _cube_pos;
#X obj 60 143 env~;
#X obj 31 203 i;
#X floatatom 31 228 5 0 0 0 - - -, f 5;
#X obj 112 248 _square_appear;
#X obj 32 176 unsig~ 200;
#X obj 511 245 _background;
#X obj 239 282 _square_circle_text;
#X obj 333 253 _hack_mission;
#X obj 449 178 _bill;
#X obj 490 62 line 0;
#X obj 546 97 select 1;
#X obj 497 97 t a a;
#X msg 573 71 set 0;
#X msg 488 16 1 1000;
#X floatatom 496 154 5 0 0 0 - - -, f 5;
#X obj 496 128 expr pow($f1 \, 3);
#X obj 154 88 adc~ 1 3 5 7;
#X obj 150 142 env~;
#X obj 120 203 i;
#X floatatom 120 228 5 0 0 0 - - -, f 5;
#X obj 122 175 unsig~ 200;
#X obj 269 140 env~;
#X obj 239 201 i;
#X floatatom 239 226 5 0 0 0 - - -, f 5;
#X obj 241 173 unsig~ 200;
#X obj 363 140 env~;
#X obj 333 201 i;
#X floatatom 333 226 5 0 0 0 - - -, f 5;
#X obj 335 173 unsig~ 200;
#X obj 88 404 _snow_flower1;
#X obj 94 370 bng 15 250 50 0 empty empty empty 17 7 0 10 -262144 -1
-1;
#X msg 231 374 all bang;
#X msg 400 423 all \$1;
#X floatatom 403 401 5 0 0 0 - - -, f 5;
#X msg 322 408 all \$1;
#X floatatom 325 326 5 0 1000 0 - - -, f 5;
#X floatatom 156 321 5 0 1000 0 - - -, f 5;
#X obj 231 448 clone 10 _snow_flower2;
#X obj 325 348 / 50;
#X obj 156 343 / 50;
#X obj 155 365 + 0.01;
#X obj 315 375 + 0.01;
#X connect 2 0 6 0;
#X connect 3 0 4 0;
#X connect 4 0 1 0;
#X connect 6 0 3 0;
#X connect 11 0 13 0;
#X connect 12 0 14 0;
#X connect 13 0 17 0;
#X connect 13 1 12 0;
#X connect 14 0 11 0;
#X connect 15 0 11 0;
#X connect 16 0 10 1;
#X connect 17 0 16 0;
#X connect 18 0 2 0;
#X connect 18 0 10 0;
#X connect 18 1 19 0;
#X connect 18 2 23 0;
#X connect 18 3 27 0;
#X connect 19 0 22 0;
#X connect 20 0 21 0;
#X connect 21 0 5 0;
#X connect 22 0 20 0;
#X connect 23 0 26 0;
#X connect 24 0 25 0;
#X connect 25 0 8 0;
#X connect 26 0 24 0;
#X connect 27 0 30 0;
#X connect 28 0 29 0;
#X connect 29 0 9 0;
#X connect 30 0 28 0;
#X connect 32 0 31 0;
#X connect 33 0 39 0;
#X connect 34 0 39 2;
#X connect 35 0 34 0;
#X connect 36 0 39 1;
#X connect 37 0 40 0;
#X connect 38 0 41 0;
#X connect 40 0 43 0;
#X connect 41 0 42 0;
#X connect 42 0 31 1;
#X connect 43 0 36 0;
