#N canvas 626 64 767 650 12;
#X obj 44 24 gwin;
#X obj 44 422 _cube_pos;
#X obj 55 153 env~;
#X obj 26 213 i;
#X floatatom 26 238 5 0 0 0 - - -, f 5;
#X obj 24 316 _square_appear;
#X obj 27 186 unsig~ 200;
#X obj 227 557 _snow_flower1;
#X floatatom 226 480 5 0 1000 0 - - -, f 5;
#X obj 226 525 + 0.01;
#X obj 487 316 _background;
#X obj 35 359 _square_circle_text;
#X obj 39 390 _hack_mission;
#X obj 428 346 _bill;
#X obj 347 555 _snow_flower2_amp;
#X obj 215 31 adc~;
#X obj 223 456 clip 0 20;
#X obj 218 399 - 50;
#X obj 218 429 / 2;
#X obj 25 279 spigot 1;
#X obj 550 584 like_text_ripple;
#X obj 161 257 tgl 15 0 empty empty empty 17 7 0 10 -262144 -1 -1 0
1;
#X obj 557 23 loadbang;
#X obj 202 366 spigot 0;
#X msg 342 506 all \$1;
#X floatatom 340 247 5 0 0 0 - - -, f 5;
#X obj 342 409 - 45;
#X obj 342 433 clip 0.01 100;
#X floatatom 342 458 5 0 0 0 - - -, f 5;
#X obj 341 222 env~;
#X obj 284 335 spigot 0;
#X obj 258 251 tgl 15 0 empty empty empty 17 7 0 10 -262144 -1 -1 1
1;
#X msg 262 276 \$1;
#X obj 342 481 expr pow(1.01 \, $f1)-0.99;
#X obj 560 505 i;
#X obj 657 506 + 1;
#X floatatom 633 407 5 0 0 0 - - -, f 5;
#X msg 655 369 1;
#X msg 611 368 0;
#X obj 555 443 t b b;
#X obj 651 484 delay 2000;
#X floatatom 490 526 5 0 0 0 - - -, f 5;
#X obj 652 459 delay 1500;
#X obj 653 434 delay 1800;
#X obj 423 409 > 80;
#X obj 488 375 select 1;
#X floatatom 373 379 5 0 0 0 - - -, f 5;
#X obj 559 482 spigot 1;
#X obj 504 419 bng 15 250 50 0 empty empty empty 17 7 0 10 -262144
-1 -1;
#X msg 307 522 0;
#X obj 227 503 / 80;
#X obj 412 308 spigot 0;
#X floatatom 407 244 5 0 0 0 - - -, f 5;
#X obj 400 215 env~ 2048 12000;
#X obj 654 534 % 4;
#X obj 551 529 route 0 1 2 3;
#X obj 603 222 _snack;
#X obj 387 108 env~ 2048 2048;
#X obj 221 88 + 1;
#X obj 173 88 i;
#X obj 221 111 % 3;
#X floatatom 173 117 5 0 0 0 - - -, f 5;
#X obj 173 139 route 0 1 2;
#X obj 210 261 tgl 15 0 empty empty empty 17 7 0 10 -262144 -1 -1 0
1;
#X msg 166 165 0;
#X msg 166 197 1;
#X msg 203 165 0;
#X msg 203 197 1;
#X msg 240 165 0;
#X msg 240 197 1;
#X obj 170 49 bng 15 250 50 0 empty empty empty 17 7 0 10 -262144 -1
-1;
#X obj 368 274 |;
#X floatatom 368 299 5 0 0 0 - - -, f 5;
#X msg 544 156 \; pd dsp \$1;
#X msg 543 131 1;
#X msg 590 129 0;
#X obj 562 96 t b b;
#X obj 387 65 metro 30000;
#X obj 552 66 metro 5000;
#X connect 2 0 6 0;
#X connect 3 0 4 0;
#X connect 4 0 19 0;
#X connect 4 0 23 0;
#X connect 6 0 3 0;
#X connect 8 0 50 0;
#X connect 9 0 7 1;
#X connect 15 0 29 0;
#X connect 15 0 2 0;
#X connect 15 0 53 0;
#X connect 15 0 57 0;
#X connect 16 0 8 0;
#X connect 17 0 18 0;
#X connect 18 0 16 0;
#X connect 19 0 5 0;
#X connect 19 0 11 0;
#X connect 19 0 12 0;
#X connect 19 0 1 0;
#X connect 21 0 19 1;
#X connect 21 0 5 1;
#X connect 21 0 11 1;
#X connect 21 0 12 1;
#X connect 21 0 1 1;
#X connect 22 0 59 0;
#X connect 22 0 77 0;
#X connect 22 0 78 0;
#X connect 23 0 17 0;
#X connect 24 0 14 1;
#X connect 25 0 30 0;
#X connect 26 0 27 0;
#X connect 27 0 28 0;
#X connect 28 0 33 0;
#X connect 29 0 25 0;
#X connect 30 0 26 0;
#X connect 30 0 46 0;
#X connect 31 0 56 1;
#X connect 31 0 71 1;
#X connect 31 0 71 0;
#X connect 32 0 7 0;
#X connect 32 0 23 1;
#X connect 32 0 14 0;
#X connect 32 0 30 1;
#X connect 32 0 71 0;
#X connect 32 0 71 1;
#X connect 33 0 24 0;
#X connect 34 0 35 0;
#X connect 34 0 41 0;
#X connect 34 0 55 0;
#X connect 35 0 54 0;
#X connect 36 0 47 1;
#X connect 37 0 36 0;
#X connect 38 0 36 0;
#X connect 39 0 38 0;
#X connect 39 1 47 0;
#X connect 40 0 37 0;
#X connect 42 0 37 0;
#X connect 43 0 37 0;
#X connect 44 0 45 0;
#X connect 45 0 39 0;
#X connect 46 0 44 0;
#X connect 47 0 34 0;
#X connect 48 0 39 0;
#X connect 49 0 7 0;
#X connect 50 0 9 0;
#X connect 51 0 13 0;
#X connect 52 0 51 0;
#X connect 53 0 52 0;
#X connect 54 0 34 1;
#X connect 55 0 20 0;
#X connect 55 0 43 0;
#X connect 55 1 20 1;
#X connect 55 1 42 0;
#X connect 55 2 20 2;
#X connect 55 2 40 0;
#X connect 55 3 20 3;
#X connect 55 3 40 0;
#X connect 57 0 56 0;
#X connect 58 0 60 0;
#X connect 59 0 58 0;
#X connect 59 0 61 0;
#X connect 60 0 59 1;
#X connect 61 0 62 0;
#X connect 62 0 64 0;
#X connect 62 0 65 0;
#X connect 62 1 66 0;
#X connect 62 1 67 0;
#X connect 62 2 68 0;
#X connect 62 2 69 0;
#X connect 63 0 32 0;
#X connect 64 0 63 0;
#X connect 64 0 31 0;
#X connect 65 0 21 0;
#X connect 66 0 21 0;
#X connect 66 0 63 0;
#X connect 67 0 31 0;
#X connect 68 0 21 0;
#X connect 68 0 31 0;
#X connect 69 0 63 0;
#X connect 70 0 59 0;
#X connect 71 0 72 0;
#X connect 72 0 13 1;
#X connect 72 0 51 1;
#X connect 74 0 73 0;
#X connect 75 0 73 0;
#X connect 76 0 74 0;
#X connect 76 1 75 0;
#X connect 77 0 59 0;
#X connect 78 0 76 0;
