#N canvas 736 43 636 391 12;
#X obj 137 30 bng 15 250 50 0 empty empty empty 17 7 0 10 -262144 -1
-1;
#X obj 136 6 inlet;
#X obj 283 342 clone 12 text_ripple;
#X obj 135 221 pack 0 0 0;
#X obj 138 49 metro 100;
#X obj 150 80 i;
#X obj 194 83 + 1;
#X obj 195 109 % 12;
#X floatatom 146 109 5 0 0 0 - - -, f 5;
#X obj 146 131 t a a a;
#X obj 198 158 expr 3*sin($f1*3.14159/12);
#X obj 176 182 expr 3*cos($f1*3.14159/12);
#X msg 136 274 \$1 \$2 \$3 1 1 0 3 0.2;
#X connect 0 0 4 0;
#X connect 1 0 0 0;
#X connect 4 0 5 0;
#X connect 5 0 6 0;
#X connect 5 0 8 0;
#X connect 6 0 7 0;
#X connect 7 0 5 1;
#X connect 8 0 9 0;
#X connect 9 0 3 0;
#X connect 9 1 11 0;
#X connect 9 2 10 0;
#X connect 10 0 3 2;
#X connect 11 0 3 1;
#X connect 12 0 2 0;
