#N canvas -7 377 959 382 12;
#X obj 239 54 bng 15 250 50 0 empty empty empty 17 7 0 10 -262144 -1
-1;
#X obj 233 15 inlet;
#X obj -36 275 pack 0 0 0;
#X floatatom -25 162 5 0 0 0 - - -, f 5;
#X obj -25 185 t a a a;
#X obj 29 211 expr 4*sin($f1*3.14159/4);
#X obj 5 235 expr 4*cos($f1*3.14159/4);
#X obj 28 100 line 0 100;
#X msg 133 103 set 0;
#X obj -13 133 % 8;
#X msg 32 63 8 800;
#X obj 44 130 select 8;
#X obj 23 37 inlet;
#X msg 596 66 set 0;
#X obj 441 164 % 8;
#X floatatom 440 188 5 0 0 0 - - -, f 5;
#X obj 440 212 pack 0 0;
#X obj 447 128 t a a;
#X obj 581 6 inlet;
#X obj 567 210 - 2;
#X msg -20 301 \$1 \$2 \$3 1 1 0 2 0.1;
#X obj 496 59 line 0 100;
#X obj 282 342 clone 8 text_ripple;
#X msg 495 26 8 800;
#X obj 508 93 select 8;
#X obj 546 178 * 0.2;
#X obj 445 94 + 1;
#X msg 265 181 2 3.5 0 1 1 0 2 0.5;
#X msg 279 207 3 -3.5 0 1 1 0 2 0.5;
#X msg 294 237 4 0 3.5 0 -2 0 6 0.5;
#X msg 281 270 5 0 -3.5 0 -2 0 6 0.5;
#X msg 295 160 1 0 0 3 1 2 7 0.5;
#X msg 233 140 1 0 0 0 0 0 -4 0.5;
#X msg 240 116 0 0 0 0 0 0 -5 0.5;
#X obj 257 88 delay 200;
#X obj 305 62 delay 400;
#X msg 304 304 6 0 0 0 0 0 -6 0.5;
#X msg 450 259 \$1 0 0 0 0 \$2 5.5 0.4;
#X msg 804 69 set 0;
#X obj 651 144 % 8;
#X floatatom 650 168 5 0 0 0 - - -, f 5;
#X obj 648 215 pack 0 0;
#X obj 656 119 t a a;
#X obj 789 9 inlet;
#X obj 704 62 line 0 100;
#X msg 703 29 8 800;
#X obj 716 96 select 8;
#X obj 653 97 + 1;
#X obj 775 213 - 2;
#X msg 658 262 \$1 0 0 2 0 \$2 8 0.4;
#X obj 754 181 * 0.2;
#X connect 0 0 27 0;
#X connect 0 0 28 0;
#X connect 0 0 29 0;
#X connect 0 0 30 0;
#X connect 0 0 32 0;
#X connect 0 0 34 0;
#X connect 0 0 35 0;
#X connect 1 0 0 0;
#X connect 2 0 20 0;
#X connect 3 0 4 0;
#X connect 4 0 2 0;
#X connect 4 1 6 0;
#X connect 4 2 5 0;
#X connect 5 0 2 2;
#X connect 6 0 2 1;
#X connect 7 0 9 0;
#X connect 7 0 11 0;
#X connect 8 0 7 0;
#X connect 9 0 3 0;
#X connect 10 0 7 0;
#X connect 11 0 8 0;
#X connect 12 0 10 0;
#X connect 13 0 21 0;
#X connect 14 0 15 0;
#X connect 15 0 16 0;
#X connect 16 0 37 0;
#X connect 17 0 14 0;
#X connect 17 1 25 0;
#X connect 18 0 23 0;
#X connect 19 0 16 1;
#X connect 20 0 22 0;
#X connect 21 0 24 0;
#X connect 21 0 26 0;
#X connect 23 0 21 0;
#X connect 24 0 13 0;
#X connect 25 0 19 0;
#X connect 26 0 17 0;
#X connect 27 0 22 0;
#X connect 28 0 22 0;
#X connect 29 0 22 0;
#X connect 30 0 22 0;
#X connect 31 0 22 0;
#X connect 32 0 22 0;
#X connect 33 0 22 0;
#X connect 34 0 33 0;
#X connect 35 0 36 0;
#X connect 36 0 22 0;
#X connect 37 0 22 0;
#X connect 38 0 44 0;
#X connect 39 0 40 0;
#X connect 40 0 41 0;
#X connect 41 0 49 0;
#X connect 42 0 39 0;
#X connect 42 1 50 0;
#X connect 43 0 45 0;
#X connect 44 0 46 0;
#X connect 44 0 47 0;
#X connect 45 0 44 0;
#X connect 46 0 38 0;
#X connect 47 0 42 0;
#X connect 48 0 41 1;
#X connect 49 0 22 0;
#X connect 50 0 48 0;
