#N canvas 801 160 1362 691 12;
#X msg 14 421 draw line;
#X obj 98 319 alpha;
#X obj 92 528 translateXYZ 0 0 0;
#X obj 92 294 gemhead;
#X obj 64 348 colorRGB 1 1 1 0;
#X obj 597 260 line 0 1;
#X obj 683 329 sel 1;
#X msg 679 287 set 0;
#X floatatom 595 329 5 0 0 0 - - -, f 5;
#X obj 629 383 t b b;
#X obj 236 166 route 0 1 2 3;
#X obj 390 163 f;
#X obj 431 162 f;
#X obj 424 223 pack;
#X obj 494 107 t b b;
#X obj 68 11 inlet;
#X obj 597 291 t a a;
#X obj 427 188 * 1000;
#X obj 425 250 line 0 1;
#X msg 515 261 set 0;
#X obj 346 191 t a a;
#X obj 463 315 sel;
#X floatatom 344 218 5 0 0 0 - - -, f 5;
#X obj 295 358 tgl 15 0 empty empty empty 17 7 0 10 -262144 -1 -1 0
1;
#X obj 264 390 spigot 0;
#X obj 365 360 tgl 15 0 empty empty empty 17 7 0 10 -262144 -1 -1 0
1;
#X obj 334 392 spigot 0;
#X obj 433 359 tgl 15 0 empty empty empty 17 7 0 10 -262144 -1 -1 0
1;
#X obj 402 391 spigot 0;
#X obj 229 358 tgl 15 0 empty empty empty 17 7 0 10 -262144 -1 -1 0
1;
#X obj 198 390 spigot 0;
#X obj 199 426 * 0.6;
#X obj 403 427 * -0.6;
#X obj 485 357 t b b b;
#X msg 515 385 0;
#X obj 517 420 t a a a a;
#X floatatom 202 491 5 0 0 0 - - -, f 5;
#X obj 315 314 t f f f f;
#X obj 480 492 line 1 1;
#X obj 480 520 t a a;
#X obj 527 561 sel 0;
#X floatatom 444 563 5 0 0 0 - - -, f 5;
#X msg 565 520 set 1;
#X obj 528 590 t b b;
#X msg 597 231 1 100;
#X obj 182 45 spigot 1;
#X msg 291 66 0;
#X obj 179 72 t b a b;
#X msg 528 614 1;
#X obj 269 425 * 0.6;
#X obj 335 428 * -0.6;
#X obj 88 490 rotateXYZ;
#X obj 141 406 inlet;
#X obj 263 542 loadbang;
#X obj 14 570 random 10;
#X msg 36 601 \$1;
#X obj 327 580 metro 200;
#X obj 441 25 inlet;
#X obj 439 77 tgl 15 0 empty empty empty 17 7 0 10 -262144 -1 -1 1
1;
#X obj 529 21 loadbang;
#X obj 99 645 text3d 2;
#X msg 300 618 3;
#X obj 99 568 square 0.15;
#X obj 100 606 translateXYZ -0.015 0.025 0;
#X obj 86 460 translateXYZ 0 0 0;
#X floatatom 347 503 5 0 0 0 - - -, f 5;
#X obj 342 460 + 0;
#X obj 246 462 + 0;
#X obj 441 590 select 0;
#X msg 442 619 0;
#X msg 481 465 0 500;
#X obj 185 170 t a a;
#X obj 127 168 t a a;
#X obj 263 96 unpack 0 0 0 0 0 0 0;
#X obj 278 285 expr $f2-pow(($f2-$f1) \, 4)/pow($f2 \, 3);
#X obj 381 135 t a a a;
#X connect 0 0 62 0;
#X connect 1 0 4 0;
#X connect 2 0 62 0;
#X connect 3 0 0 0;
#X connect 3 0 1 0;
#X connect 4 0 64 0;
#X connect 5 0 16 0;
#X connect 6 0 9 0;
#X connect 7 0 5 0;
#X connect 8 0 4 4;
#X connect 9 0 14 0;
#X connect 9 1 7 0;
#X connect 10 0 29 0;
#X connect 10 1 23 0;
#X connect 10 2 25 0;
#X connect 10 3 27 0;
#X connect 11 0 13 0;
#X connect 12 0 17 0;
#X connect 13 0 18 0;
#X connect 14 0 11 0;
#X connect 14 1 12 0;
#X connect 15 0 45 0;
#X connect 16 0 6 0;
#X connect 16 1 8 0;
#X connect 17 0 13 1;
#X connect 18 0 20 0;
#X connect 19 0 18 0;
#X connect 20 0 21 0;
#X connect 20 1 22 0;
#X connect 21 0 33 0;
#X connect 22 0 74 0;
#X connect 23 0 24 1;
#X connect 24 0 49 0;
#X connect 25 0 26 1;
#X connect 26 0 50 0;
#X connect 27 0 28 1;
#X connect 28 0 32 0;
#X connect 29 0 30 1;
#X connect 30 0 31 0;
#X connect 31 0 67 0;
#X connect 32 0 66 0;
#X connect 33 0 70 0;
#X connect 33 1 19 0;
#X connect 33 2 34 0;
#X connect 34 0 35 0;
#X connect 35 0 29 0;
#X connect 35 1 23 0;
#X connect 35 2 25 0;
#X connect 35 3 27 0;
#X connect 37 0 30 0;
#X connect 37 1 24 0;
#X connect 37 2 26 0;
#X connect 37 3 28 0;
#X connect 38 0 39 0;
#X connect 39 0 40 0;
#X connect 39 1 41 0;
#X connect 40 0 43 0;
#X connect 41 0 4 4;
#X connect 41 0 68 0;
#X connect 42 0 38 0;
#X connect 43 0 48 0;
#X connect 43 1 42 0;
#X connect 44 0 5 0;
#X connect 45 0 47 0;
#X connect 46 0 45 1;
#X connect 47 0 44 0;
#X connect 47 1 73 0;
#X connect 47 2 46 0;
#X connect 48 0 45 1;
#X connect 49 0 66 0;
#X connect 50 0 67 0;
#X connect 51 0 2 0;
#X connect 52 0 51 3;
#X connect 53 0 61 0;
#X connect 53 0 56 0;
#X connect 54 0 55 0;
#X connect 55 0 60 0;
#X connect 56 0 54 0;
#X connect 57 0 58 0;
#X connect 58 0 3 0;
#X connect 59 0 58 0;
#X connect 61 0 60 1;
#X connect 62 0 63 0;
#X connect 63 0 60 0;
#X connect 64 0 51 0;
#X connect 66 0 2 2;
#X connect 66 0 65 0;
#X connect 67 0 2 1;
#X connect 67 0 36 0;
#X connect 68 0 69 0;
#X connect 69 0 2 2;
#X connect 69 0 2 1;
#X connect 70 0 38 0;
#X connect 71 0 2 2;
#X connect 71 1 66 1;
#X connect 72 0 2 1;
#X connect 72 1 67 1;
#X connect 73 0 64 1;
#X connect 73 1 64 2;
#X connect 73 2 10 0;
#X connect 73 3 72 0;
#X connect 73 4 71 0;
#X connect 73 5 75 0;
#X connect 73 6 12 1;
#X connect 74 0 37 0;
#X connect 75 0 11 1;
#X connect 75 1 21 1;
#X connect 75 2 74 1;
