#N canvas 706 89 450 427 12;
#X obj 56 47 gemhead;
#X obj 154 250 text3d 1;
#X obj 276 232 loadbang;
#X msg 276 281 6;
#X obj 174 28 inlet;
#X obj 226 48 inlet;
#X obj 49 224 random 10;
#X msg 64 261 \$1;
#X obj 124 13 inlet;
#X obj 315 114 i;
#X obj 359 113 + 1;
#X obj 289 138 / -10;
#X obj 396 113 % 100;
#X obj 289 170 + 5;
#X msg 200 79 5;
#X obj 122 45 t a b;
#X obj 131 154 translateXYZ 0 5 0;
#X msg 156 75 0;
#X obj 315 72 metro 60;
#X obj 86 98 alpha;
#X obj 104 125 colorRGB 0 1 0 1;
#X obj 336 21 inlet;
#X obj 46 190 metro 200;
#X connect 0 0 19 0;
#X connect 2 0 3 0;
#X connect 2 0 22 0;
#X connect 3 0 1 1;
#X connect 4 0 16 1;
#X connect 5 0 16 3;
#X connect 6 0 7 0;
#X connect 7 0 1 0;
#X connect 8 0 15 0;
#X connect 9 0 10 0;
#X connect 9 0 11 0;
#X connect 10 0 12 0;
#X connect 11 0 13 0;
#X connect 12 0 9 1;
#X connect 13 0 16 2;
#X connect 14 0 16 2;
#X connect 15 0 18 0;
#X connect 15 1 14 0;
#X connect 15 1 17 0;
#X connect 16 0 1 0;
#X connect 17 0 9 1;
#X connect 18 0 9 0;
#X connect 19 0 20 0;
#X connect 20 0 16 0;
#X connect 21 0 20 4;
#X connect 22 0 6 0;
