#N canvas 612 70 785 324 12;
#X floatatom 572 126 5 0 0 0 - - -, f 5;
#X msg 676 104 set 0;
#X obj 572 175 t a a;
#X obj 556 208 pack;
#X msg 551 237 \$1 \$2;
#X msg 562 59 50 1000;
#X obj 571 148 % 50;
#X obj 572 101 line 0 20;
#X obj 611 203 * 7.2;
#X obj 662 144 select 50;
#X obj 566 22 loadbang;
#X obj 68 9 inlet;
#X obj 52 229 pack 0 0 0 0 0 0 0;
#X obj 37 156 random 15;
#X obj 42 180 - 7;
#X obj 78 104 random 9;
#X obj 77 127 - 4;
#X obj 97 181 random 4;
#X msg 329 228 all 0 0 0 0 0 -5 3;
#X obj 133 154 random 2;
#X obj 174 180 random 2;
#X obj 215 128 random 11;
#X obj 250 204 / 10;
#X obj 62 72 t b b b b b b b;
#X obj 216 151 - 4.9;
#X obj 69 36 bng 15 250 50 0 empty empty empty 17 7 0 10 -262144 -1
-1;
#X msg 329 197 all \$1 \$2 \$3 \$4 \$5 \$6 \$7;
#X obj 472 274 clone 50 move_mode_text2;
#X obj 265 151 random 5;
#X obj 255 178 + 4;
#X connect 0 0 6 0;
#X connect 0 0 9 0;
#X connect 1 0 7 0;
#X connect 2 0 3 0;
#X connect 2 1 8 0;
#X connect 3 0 4 0;
#X connect 4 0 27 1;
#X connect 5 0 7 0;
#X connect 6 0 2 0;
#X connect 7 0 0 0;
#X connect 8 0 3 1;
#X connect 9 0 1 0;
#X connect 10 0 5 0;
#X connect 11 0 25 0;
#X connect 12 0 26 0;
#X connect 13 0 14 0;
#X connect 14 0 12 0;
#X connect 15 0 16 0;
#X connect 16 0 12 1;
#X connect 17 0 12 2;
#X connect 18 0 27 0;
#X connect 19 0 12 3;
#X connect 20 0 12 4;
#X connect 21 0 24 0;
#X connect 22 0 12 6;
#X connect 23 0 13 0;
#X connect 23 1 15 0;
#X connect 23 2 17 0;
#X connect 23 3 19 0;
#X connect 23 4 20 0;
#X connect 23 5 21 0;
#X connect 23 6 28 0;
#X connect 24 0 12 5;
#X connect 25 0 23 0;
#X connect 26 0 27 0;
#X connect 28 0 29 0;
#X connect 29 0 22 0;
