#N canvas 573 101 721 441 12;
#X obj 178 297 i;
#X obj 234 295 + 1;
#X msg 172 371 \$1 bang;
#X obj 173 329 t f f;
#X msg 233 208 0;
#X floatatom 114 318 5 0 0 0 - - -, f 5;
#X msg 91 376 all 0;
#X msg 94 251 0;
#X obj 166 241 metro 300;
#X obj 230 336 sel 19;
#X obj 168 399 clone 20 random_num;
#X obj 369 303 line 1 1;
#X msg 389 263 0 1000;
#X msg 359 379 all \$1;
#X obj 110 109 bng 15 250 50 0 empty empty empty 17 7 0 10 -262144
-1 -1;
#X obj 131 178 t b b b;
#X obj 332 103 bng 15 250 50 0 empty empty empty 17 7 0 10 -262144
-1 -1;
#X obj 270 223 delay 1100;
#X msg 294 331 all 1;
#X msg 493 307 set 1;
#X obj 432 365 sel 0;
#X obj 372 337 t f f;
#X floatatom 308 294 5 0 0 0 - - -, f 5;
#X obj 134 137 spigot 1;
#X msg 187 102 0;
#X msg 246 125 1;
#X msg 155 66 all \$1;
#X msg 219 75 all \$1;
#X obj 7 -2 inlet;
#X obj 65 28 unpack 0 0 0;
#X obj 384 19 inlet;
#X obj 34 81 sel 1;
#X obj 95 78 sel 0;
#X obj 189 5 inlet;
#X obj 239 13 inlet;
#X obj 480 137 i;
#X obj 533 135 + 1;
#X obj 482 63 bng 15 250 50 0 empty empty empty 17 7 0 10 -262144 -1
-1;
#X floatatom 480 162 5 0 0 0 - - -, f 5;
#X obj 574 136 % 100;
#X obj 484 185 / 100;
#X obj 481 215 expr sin(3.14159*$f1);
#X obj 326 132 t b b b b b b b;
#X msg 400 47 0;
#X floatatom 408 419 5 0 0 0 - - -, f 5;
#X msg 437 55 0;
#X obj 478 239 * 0.7;
#X obj 467 268 + 0.3;
#X obj 475 106 metro 10;
#X obj 322 14 inlet;
#X obj 455 295 * 1;
#X connect 0 0 1 0;
#X connect 0 0 3 0;
#X connect 0 0 5 0;
#X connect 1 0 0 1;
#X connect 2 0 10 0;
#X connect 3 0 2 0;
#X connect 3 1 9 0;
#X connect 4 0 8 0;
#X connect 6 0 10 0;
#X connect 7 0 0 1;
#X connect 8 0 0 0;
#X connect 9 0 4 0;
#X connect 9 0 7 0;
#X connect 11 0 21 0;
#X connect 11 0 22 0;
#X connect 12 0 11 0;
#X connect 13 0 10 3;
#X connect 14 0 23 0;
#X connect 15 0 8 0;
#X connect 15 1 6 0;
#X connect 15 2 18 0;
#X connect 16 0 42 0;
#X connect 17 0 6 0;
#X connect 18 0 10 3;
#X connect 19 0 11 0;
#X connect 20 0 19 0;
#X connect 20 0 25 0;
#X connect 21 0 13 0;
#X connect 21 0 44 0;
#X connect 21 1 20 0;
#X connect 23 0 15 0;
#X connect 24 0 23 1;
#X connect 25 0 23 1;
#X connect 26 0 10 1;
#X connect 27 0 10 2;
#X connect 28 0 29 0;
#X connect 29 0 31 0;
#X connect 29 0 32 0;
#X connect 29 1 26 0;
#X connect 29 2 27 0;
#X connect 30 0 16 0;
#X connect 31 0 14 0;
#X connect 31 0 48 0;
#X connect 32 0 16 0;
#X connect 33 0 26 0;
#X connect 34 0 27 0;
#X connect 35 0 36 0;
#X connect 35 0 38 0;
#X connect 36 0 39 0;
#X connect 37 0 48 0;
#X connect 38 0 40 0;
#X connect 39 0 35 1;
#X connect 40 0 41 0;
#X connect 41 0 46 0;
#X connect 42 0 17 0;
#X connect 42 1 12 0;
#X connect 42 2 7 0;
#X connect 42 3 4 0;
#X connect 42 4 24 0;
#X connect 42 5 43 0;
#X connect 42 6 45 0;
#X connect 43 0 35 1;
#X connect 45 0 48 0;
#X connect 46 0 47 0;
#X connect 47 0 50 0;
#X connect 48 0 35 0;
#X connect 49 0 50 1;
#X connect 50 0 13 0;
