#N canvas 115 50 1362 666 10;
#X obj 622 383 gemhead;
#X obj 398 382 gemhead;
#X obj 196 477 translateXYZ 0 0 0;
#X obj 202 366 tgl 15 0 empty empty empty 17 7 0 10 -262144 -1 -1 0
1;
#X obj 180 159 tgl 15 0 empty empty empty 17 7 0 10 -262144 -1 -1 1
1;
#X floatatom 327 359 5 0 0 0 - - -, f 5;
#X obj 389 477 translateXYZ 0 0 0;
#X obj 613 475 translateXYZ 0 0 0;
#X obj 333 85 select 0;
#X obj 403 87 select 1;
#X obj 472 86 select 2;
#X obj 542 87 select 3;
#X obj 397 172 spigot 0;
#X obj 465 172 spigot 0;
#X obj 540 172 spigot 0;
#X msg 408 125 0;
#X msg 342 122 0;
#X msg 538 125 0;
#X msg 473 125 0;
#X msg 377 111 1;
#X msg 434 111 1;
#X msg 504 112 1;
#X msg 567 115 1;
#X obj 413 443 pipe 250;
#X obj 646 433 pipe 250;
#X floatatom 496 355 5 0 0 0 - - -, f 5;
#X obj 486 429 pipe 250;
#X obj 719 419 pipe 250;
#X obj 334 310 - 400;
#X obj 332 228 i;
#X obj 506 233 i;
#X obj 90 21 inlet;
#X obj 199 384 gemhead;
#X msg 255 232 400;
#X obj 369 228 + 800;
#X obj 369 270 % 800;
#X obj 186 74 inlet;
#X obj 630 1 loadbang;
#X obj 771 12 \$1;
#X obj 742 83 / 6;
#X obj 742 102 t b a;
#X obj 742 125 i;
#X floatatom 742 147 5 0 0 0 - - -, f 5;
#X obj 787 96 t b a;
#X obj 787 119 i;
#X floatatom 787 141 5 0 0 0 - - -, f 5;
#X obj 787 77 / 2;
#X obj 833 207 t b a;
#X obj 833 230 i;
#X floatatom 833 252 5 0 0 0 - - -, f 5;
#X obj 833 188 / 4;
#X obj 784 213 % 4;
#X floatatom 781 235 5 0 0 0 - - -, f 5;
#X obj 797 163 t a a;
#X obj 789 259 +;
#X obj 789 282 % 4;
#X floatatom 791 301 5 0 0 0 - - -, f 5;
#X obj 787 193 + 1;
#X obj 1017 8 pow 2;
#X obj 954 7 pow 2;
#X floatatom 954 29 5 0 0 0 - - -, f 5;
#X floatatom 1017 30 5 0 0 0 - - -, f 5;
#X obj 991 48 +;
#X floatatom 987 76 5 0 0 0 - - -, f 5;
#X obj 988 101 * -1;
#X obj 987 122 + 14;
#X floatatom 987 144 5 0 0 0 - - -, f 5;
#X obj 984 164 route 1 4 9 5 10 13;
#X msg 980 184 0 1;
#X msg 996 205 0 2;
#X msg 1018 185 0 3;
#X msg 1035 208 1 2;
#X msg 1058 185 1 3;
#X msg 1076 207 2 3;
#X obj 760 50 t a a a;
#X obj 848 92 % 2;
#X obj 976 250 spigot 0;
#X obj 910 252 spigot 0;
#X msg 910 274 \$1 \$2;
#X msg 980 273 \$2 \$1;
#X obj 858 142 + 1;
#X obj 851 121 * -1;
#X obj 940 306 unpack;
#X floatatom 940 328 5 0 0 0 - - -, f 5;
#X floatatom 989 329 5 0 0 0 - - -, f 5;
#X obj 867 53 i;
#X obj 901 52 + 1;
#X floatatom 867 75 5 0 0 0 - - -, f 5;
#X obj 865 23 bng 15 250 50 0 empty empty empty 17 7 0 10 -262144 -1
-1;
#X obj 322 167 spigot 0;
#X obj 102 260 select 0;
#X floatatom 332 250 5 0 0 0 - - -, f 5;
#X floatatom 506 255 5 0 0 0 - - -, f 5;
#X obj 238 101 metro 5;
#X obj 93 313 t b b;
#X obj 427 41 i;
#X obj 472 42 + 1;
#X obj 477 62 % 4;
#X obj 328 335 / 100;
#X obj 497 329 / 100;
#X obj 370 197 * 2;
#X obj 397 207 * -2;
#X obj 370 248 + 2;
#X obj 501 198 * 2;
#X obj 543 200 * -2;
#X obj 553 229 + 800;
#X msg 663 174 400;
#X obj 554 253 + 2;
#X obj 554 273 % 800;
#X obj 500 293 - 400;
#X obj 192 590 colorRGB;
#X obj 190 521 alpha;
#X obj 655 311 tgl 15 0 empty empty empty 17 7 0 10 -262144 -1 -1 1
1;
#X obj 357 587 colorRGB;
#X obj 376 523 alpha;
#X obj 592 578 colorRGB;
#X obj 597 515 alpha;
#X obj 626 28 t b b b b b;
#X floatatom 1041 461 5 0 255 0 - - -, f 5;
#X obj 1041 483 / 255;
#X floatatom 1117 464 5 0 0 0 - - -, f 5;
#X obj 1115 484 / 255;
#X floatatom 1209 473 5 0 0 0 - - -, f 5;
#X obj 1209 495 / 255;
#X obj 1037 409 line 0 10;
#X obj 1207 419 line 0 10;
#X obj 1123 411 line 0 10;
#X obj 1077 261 metro 200;
#X msg 1036 387 \$1 199;
#X msg 1122 389 \$1 199;
#X msg 1207 396 \$1 199;
#X obj 1040 439 + 0;
#X obj 1212 445 + 0;
#X obj 1117 436 + 0;
#X obj 1037 363 random 250;
#X obj 1124 364 random 250;
#X obj 1211 368 random 250;
#X obj 190 625 square 0.17;
#X obj 367 622 square 0.17;
#X obj 606 605 square 0.17;
#X obj 82 405 line 1 10;
#X msg 84 383 0 500;
#X msg 31 382 1 500;
#X obj 197 297 delay 500;
#X obj 159 339 delay 501;
#X obj 26 426 bng 15 250 50 0 empty empty empty 17 7 0 10 -262144 -1
-1;
#X obj 51 293 bng 15 250 50 0 empty empty empty 17 7 0 10 -262144 -1
-1;
#X obj 817 476 translateXYZ 0 0 0;
#X obj 856 440 pipe 250;
#X obj 934 427 pipe 250;
#X obj 808 587 colorRGB;
#X obj 820 509 alpha;
#X obj 808 621 square 0.17;
#X obj 11 332 delay 200;
#X connect 0 0 7 0;
#X connect 1 0 6 0;
#X connect 2 0 111 0;
#X connect 3 0 1 0;
#X connect 3 0 0 0;
#X connect 3 0 32 0;
#X connect 4 0 93 0;
#X connect 5 0 26 0;
#X connect 5 0 2 2;
#X connect 6 0 114 0;
#X connect 7 0 116 0;
#X connect 8 0 16 0;
#X connect 8 0 19 0;
#X connect 9 0 15 0;
#X connect 9 0 20 0;
#X connect 10 0 18 0;
#X connect 10 0 21 0;
#X connect 11 0 17 0;
#X connect 11 0 22 0;
#X connect 12 0 30 0;
#X connect 13 0 29 0;
#X connect 14 0 30 0;
#X connect 15 0 13 1;
#X connect 15 0 14 1;
#X connect 15 0 89 1;
#X connect 16 0 12 1;
#X connect 16 0 13 1;
#X connect 16 0 14 1;
#X connect 17 0 12 1;
#X connect 17 0 13 1;
#X connect 17 0 89 1;
#X connect 18 0 12 1;
#X connect 18 0 14 1;
#X connect 18 0 89 1;
#X connect 19 0 89 1;
#X connect 19 0 100 0;
#X connect 20 0 12 1;
#X connect 20 0 103 0;
#X connect 21 0 13 1;
#X connect 21 0 101 0;
#X connect 22 0 14 1;
#X connect 22 0 104 0;
#X connect 23 0 24 0;
#X connect 23 0 6 1;
#X connect 24 0 7 1;
#X connect 25 0 23 0;
#X connect 25 0 2 1;
#X connect 26 0 27 0;
#X connect 26 0 6 2;
#X connect 27 0 7 2;
#X connect 28 0 98 0;
#X connect 29 0 34 0;
#X connect 29 0 28 0;
#X connect 29 0 91 0;
#X connect 30 0 92 0;
#X connect 30 0 105 0;
#X connect 30 0 109 0;
#X connect 31 0 95 0;
#X connect 32 0 2 0;
#X connect 33 0 29 1;
#X connect 34 0 102 0;
#X connect 35 0 29 1;
#X connect 36 0 90 0;
#X connect 36 0 4 0;
#X connect 37 0 117 0;
#X connect 38 0 74 0;
#X connect 39 0 40 0;
#X connect 40 0 41 0;
#X connect 40 1 41 1;
#X connect 41 0 42 0;
#X connect 42 0 8 1;
#X connect 42 0 59 0;
#X connect 43 0 44 0;
#X connect 43 1 44 1;
#X connect 44 0 45 0;
#X connect 45 0 53 0;
#X connect 46 0 43 0;
#X connect 47 0 48 0;
#X connect 47 1 48 1;
#X connect 48 0 49 0;
#X connect 49 0 54 1;
#X connect 50 0 47 0;
#X connect 51 0 52 0;
#X connect 52 0 54 0;
#X connect 53 0 57 0;
#X connect 53 1 50 0;
#X connect 54 0 55 0;
#X connect 55 0 56 0;
#X connect 56 0 9 1;
#X connect 56 0 58 0;
#X connect 57 0 51 0;
#X connect 58 0 61 0;
#X connect 59 0 60 0;
#X connect 60 0 62 0;
#X connect 61 0 62 1;
#X connect 62 0 63 0;
#X connect 63 0 64 0;
#X connect 64 0 65 0;
#X connect 65 0 66 0;
#X connect 66 0 67 0;
#X connect 67 0 68 0;
#X connect 67 1 69 0;
#X connect 67 2 70 0;
#X connect 67 3 71 0;
#X connect 67 4 72 0;
#X connect 67 5 73 0;
#X connect 68 0 77 0;
#X connect 68 0 76 0;
#X connect 69 0 77 0;
#X connect 69 0 76 0;
#X connect 70 0 77 0;
#X connect 70 0 76 0;
#X connect 71 0 77 0;
#X connect 71 0 76 0;
#X connect 72 0 77 0;
#X connect 72 0 76 0;
#X connect 73 0 76 0;
#X connect 73 0 77 0;
#X connect 74 0 39 0;
#X connect 74 1 46 0;
#X connect 74 2 75 0;
#X connect 75 0 76 1;
#X connect 75 0 81 0;
#X connect 76 0 79 0;
#X connect 77 0 78 0;
#X connect 78 0 82 0;
#X connect 79 0 82 0;
#X connect 80 0 77 1;
#X connect 81 0 80 0;
#X connect 82 0 83 0;
#X connect 82 1 84 0;
#X connect 83 0 10 1;
#X connect 84 0 11 1;
#X connect 85 0 86 0;
#X connect 85 0 74 0;
#X connect 85 0 87 0;
#X connect 86 0 85 1;
#X connect 88 0 85 0;
#X connect 89 0 29 0;
#X connect 90 0 94 0;
#X connect 90 0 16 0;
#X connect 90 0 15 0;
#X connect 90 0 141 0;
#X connect 90 1 146 0;
#X connect 93 0 12 0;
#X connect 93 0 13 0;
#X connect 93 0 14 0;
#X connect 93 0 89 0;
#X connect 94 0 144 0;
#X connect 94 1 143 0;
#X connect 95 0 96 0;
#X connect 95 0 8 0;
#X connect 95 0 9 0;
#X connect 95 0 10 0;
#X connect 95 0 11 0;
#X connect 96 0 97 0;
#X connect 97 0 95 1;
#X connect 98 0 5 0;
#X connect 99 0 25 0;
#X connect 100 0 102 1;
#X connect 101 0 102 1;
#X connect 102 0 35 0;
#X connect 103 0 107 1;
#X connect 104 0 107 1;
#X connect 105 0 107 0;
#X connect 106 0 30 1;
#X connect 107 0 108 0;
#X connect 108 0 30 1;
#X connect 109 0 99 0;
#X connect 110 0 137 0;
#X connect 111 0 110 0;
#X connect 112 0 111 1;
#X connect 112 0 114 1;
#X connect 112 0 116 1;
#X connect 113 0 138 0;
#X connect 114 0 113 0;
#X connect 115 0 139 0;
#X connect 116 0 115 0;
#X connect 117 0 33 0;
#X connect 117 1 106 0;
#X connect 117 2 4 0;
#X connect 117 3 38 0;
#X connect 117 4 112 0;
#X connect 117 4 127 0;
#X connect 118 0 119 0;
#X connect 119 0 115 3;
#X connect 119 0 113 2;
#X connect 119 0 110 1;
#X connect 120 0 121 0;
#X connect 121 0 115 2;
#X connect 121 0 113 1;
#X connect 121 0 110 3;
#X connect 122 0 123 0;
#X connect 123 0 115 1;
#X connect 123 0 113 3;
#X connect 123 0 110 2;
#X connect 124 0 131 0;
#X connect 125 0 132 0;
#X connect 126 0 133 0;
#X connect 127 0 134 0;
#X connect 127 0 135 0;
#X connect 127 0 136 0;
#X connect 128 0 124 0;
#X connect 129 0 126 0;
#X connect 130 0 125 0;
#X connect 131 0 118 0;
#X connect 132 0 122 0;
#X connect 133 0 120 0;
#X connect 134 0 128 0;
#X connect 135 0 129 0;
#X connect 136 0 130 0;
#X connect 140 0 110 4;
#X connect 140 0 113 4;
#X connect 140 0 115 4;
#X connect 141 0 140 0;
#X connect 142 0 140 0;
#X connect 143 0 33 0;
#X connect 143 0 106 0;
#X connect 144 0 29 0;
#X connect 144 0 30 0;
#X connect 146 0 153 0;
#X connect 147 0 151 0;
#X connect 148 0 147 1;
#X connect 149 0 147 2;
#X connect 150 0 152 0;
#X connect 151 0 150 0;
#X connect 153 0 145 0;
#X connect 153 0 142 0;
