#N canvas 618 58 533 300 12;
#X floatatom 327 124 5 0 0 0 - - -, f 5;
#X msg 431 102 set 0;
#X obj 327 173 t a a;
#X obj 311 206 pack;
#X msg 306 235 \$1 \$2;
#X obj 327 99 line 0 20;
#X obj 321 20 loadbang;
#X obj 173 109 inlet;
#X msg 123 175 all \$1 \$2 \$3 \$4 \$5 \$6 \$7;
#X obj 227 272 clone 24 move_mode_text2;
#X msg 317 57 24 1000;
#X obj 417 142 select 24;
#X obj 326 146 % 24;
#X obj 366 201 * 15;
#X connect 0 0 11 0;
#X connect 0 0 12 0;
#X connect 1 0 5 0;
#X connect 2 0 3 0;
#X connect 2 1 13 0;
#X connect 3 0 4 0;
#X connect 4 0 9 1;
#X connect 5 0 0 0;
#X connect 6 0 10 0;
#X connect 7 0 8 0;
#X connect 8 0 9 0;
#X connect 10 0 5 0;
#X connect 11 0 1 0;
#X connect 12 0 2 0;
#X connect 13 0 3 1;
