#N canvas 65 84 450 300 12;
#X obj 162 72 gwin;
#X msg 346 177 all 0;
#X msg 266 168 \$1 bang;
#X obj 306 25 bng 15 250 50 0 empty empty empty 17 7 0 10 -262144 -1
-1;
#X floatatom 310 91 5 0 0 0 - - -, f 5;
#X obj 272 105 % 100;
#X floatatom 272 129 5 0 0 0 - - -, f 5;
#X obj 310 60 counter 50;
#X msg 271 21 0;
#X msg 271 61 0;
#X obj 262 238 clone 100 line_mode;
#X connect 1 0 10 0;
#X connect 2 0 10 0;
#X connect 3 0 7 0;
#X connect 4 0 5 0;
#X connect 5 0 6 0;
#X connect 6 0 2 0;
#X connect 7 0 4 0;
#X connect 8 0 7 0;
#X connect 9 0 4 0;
