#N canvas 228 241 525 463 12;
#X obj 388 40 gemhead;
#X obj 278 375 curve 2;
#X floatatom 90 185 5 0 0 0 - - -, f 5;
#X floatatom 155 183 5 0 0 0 - - -, f 5;
#X floatatom 239 181 5 0 0 0 - - -, f 5;
#X obj 160 203 pack 1 1 1;
#X obj 132 32 metro 100;
#X obj 112 -3 loadbang;
#X obj 108 160 - 2;
#X obj 168 163 - 2;
#X obj 236 159 - 2;
#X msg 293 163 draw point;
#X obj 95 98 random 100;
#X obj 186 94 random 100;
#X obj 263 97 random 100;
#X obj 101 137 / 20;
#X obj 168 135 / 20;
#X obj 236 133 / 20;
#X obj 317 1 inlet;
#X obj 309 41 tgl 15 0 empty empty empty 17 7 0 10 -262144 -1 -1 0
1;
#X obj 448 173 / 100;
#X obj 407 152 / 100;
#X obj 372 178 / 100;
#X obj 351 223 colorRGB 0 1 1;
#X connect 0 0 23 0;
#X connect 2 0 5 0;
#X connect 3 0 5 1;
#X connect 4 0 5 2;
#X connect 5 0 1 1;
#X connect 6 0 12 0;
#X connect 6 0 13 0;
#X connect 6 0 14 0;
#X connect 7 0 6 0;
#X connect 7 0 11 0;
#X connect 8 0 2 0;
#X connect 9 0 3 0;
#X connect 10 0 4 0;
#X connect 11 0 1 0;
#X connect 12 0 15 0;
#X connect 12 0 22 0;
#X connect 13 0 16 0;
#X connect 13 0 21 0;
#X connect 14 0 17 0;
#X connect 14 0 20 0;
#X connect 15 0 8 0;
#X connect 16 0 9 0;
#X connect 17 0 10 0;
#X connect 18 0 19 0;
#X connect 19 0 0 0;
#X connect 20 0 23 3;
#X connect 21 0 23 2;
#X connect 22 0 23 1;
#X connect 23 0 1 0;
