#N canvas 66 83 990 604 12;
#X obj 173 81 part_head;
#X obj 165 190 part_velocity sphere;
#X obj 200 405 part_color;
#X floatatom 371 326 5 0 0 0 - - -, f 5;
#X obj 374 356 / 255;
#X floatatom 433 323 5 0 0 0 - - -, f 5;
#X obj 434 351 / 255;
#X obj 434 376 t b f;
#X floatatom 503 322 5 0 0 0 - - -, f 5;
#X obj 503 342 / 255;
#X obj 503 369 t b f;
#X obj 380 422 pack f f f;
#X floatatom 569 492 5 0 255 0 - - -, f 5;
#X obj 569 514 / 255;
#X obj 569 570 pack f f f;
#X floatatom 651 484 5 0 0 0 - - -, f 5;
#X obj 649 504 / 255;
#X obj 646 527 t b f;
#X floatatom 723 485 5 0 0 0 - - -, f 5;
#X obj 723 507 / 255;
#X obj 723 532 t b f;
#X obj 203 440 part_render;
#X floatatom 840 32 5 0 0 0 - - -, f 5;
#X obj 840 55 t b f;
#X floatatom 772 31 5 0 0 0 - - -, f 5;
#X obj 772 53 t b f;
#X floatatom 717 33 5 0 0 0 - - -, f 5;
#X obj 717 55 t b f;
#X floatatom 658 41 5 0 0 0 - - -, f 5;
#X obj 682 122 pack f f f f;
#X obj 684 196 gwin;
#X obj 353 289 line 0 10;
#X obj 517 291 line 0 10;
#X obj 435 290 line 0 10;
#X obj 565 451 line 0 10;
#X obj 729 454 line 0 10;
#X obj 651 453 line 0 10;
#X obj 585 128 bng 15 250 50 0 empty empty empty 17 7 0 10 -262144
-1 -1;
#X obj 560 192 metro 200;
#X obj 401 -35 tgl 15 0 empty empty empty 17 7 0 10 -262144 -1 -1 1
1;
#X obj 356 -13 select 1;
#X obj 431 -14 select 0;
#X obj 434 26 t b b b;
#X floatatom 341 128 5 0 0 0 - - -, f 5;
#X floatatom 469 134 5 0 0 0 - - -, f 5;
#X obj 346 28 t b b b;
#X obj 469 109 line 0.001 50;
#X msg 519 85 set 0.001;
#X msg 92 498 draw point;
#X msg 91 457 draw line;
#X msg 613 123 0;
#X msg 75 404 draw fill;
#X obj 178 316 alpha;
#X obj 187 344 rotateXYZ 0 0 0;
#X obj 197 379 colorRGB 0 0 0;
#X obj 237 301 tgl 15 0 empty empty empty 17 7 0 10 -262144 -1 -1 1
1;
#X obj 349 239 random 43;
#X obj 435 244 random 43;
#X obj 517 245 random 43;
#X obj 565 405 random 43;
#X obj 651 407 random 43;
#X obj 689 376 random 43;
#X msg 352 267 \$1 199;
#X msg 434 268 \$1 199;
#X msg 517 268 \$1 199;
#X msg 564 429 \$1 199;
#X msg 650 431 \$1 199;
#X msg 728 432 \$1 199;
#X obj 175 25 gemhead 51;
#X msg 816 6 0.01;
#X msg 869 4 0.1;
#X msg 918 4 0;
#X msg 31 123 symbol sphere;
#X obj 162 215 part_killold 2;
#X obj 164 161 part_source 50;
#X msg 350 58 0.001 400;
#X obj 213 553 sphere 0.5 6;
#X obj 173 54 translateXYZ 0 0 2.62;
#X msg 407 80 set 50;
#X obj 357 104 line 50 50;
#X obj 94 -6 loadbang;
#X msg 462 63 50 100;
#X msg 34 151 0 0 0 0.15;
#X connect 0 0 74 0;
#X connect 1 0 73 0;
#X connect 2 0 21 0;
#X connect 3 0 4 0;
#X connect 4 0 11 0;
#X connect 5 0 6 0;
#X connect 6 0 7 0;
#X connect 7 0 11 0;
#X connect 7 1 11 1;
#X connect 8 0 9 0;
#X connect 9 0 10 0;
#X connect 10 0 11 0;
#X connect 10 1 11 2;
#X connect 11 0 2 1;
#X connect 12 0 13 0;
#X connect 13 0 14 0;
#X connect 14 0 2 2;
#X connect 15 0 16 0;
#X connect 16 0 17 0;
#X connect 17 0 14 0;
#X connect 17 1 14 1;
#X connect 18 0 19 0;
#X connect 19 0 20 0;
#X connect 20 0 14 0;
#X connect 20 1 14 2;
#X connect 21 0 76 0;
#X connect 22 0 23 0;
#X connect 23 0 29 0;
#X connect 23 1 29 3;
#X connect 24 0 25 0;
#X connect 25 0 29 0;
#X connect 25 1 29 2;
#X connect 26 0 27 0;
#X connect 27 0 29 0;
#X connect 27 1 29 1;
#X connect 28 0 29 0;
#X connect 29 0 1 2;
#X connect 31 0 3 0;
#X connect 32 0 8 0;
#X connect 33 0 5 0;
#X connect 34 0 12 0;
#X connect 35 0 18 0;
#X connect 36 0 15 0;
#X connect 37 0 38 0;
#X connect 38 0 56 0;
#X connect 38 0 57 0;
#X connect 38 0 58 0;
#X connect 38 0 59 0;
#X connect 38 0 60 0;
#X connect 38 0 61 0;
#X connect 39 0 40 0;
#X connect 39 0 41 0;
#X connect 40 0 42 0;
#X connect 41 0 45 0;
#X connect 42 0 81 0;
#X connect 42 1 47 0;
#X connect 42 2 72 0;
#X connect 42 2 82 0;
#X connect 43 0 74 1;
#X connect 44 0 74 1;
#X connect 45 0 75 0;
#X connect 45 1 78 0;
#X connect 45 2 72 0;
#X connect 45 2 82 0;
#X connect 46 0 44 0;
#X connect 47 0 46 0;
#X connect 48 0 76 0;
#X connect 49 0 76 0;
#X connect 50 0 38 0;
#X connect 51 0 76 0;
#X connect 52 0 53 0;
#X connect 53 0 54 0;
#X connect 54 0 2 0;
#X connect 55 0 52 1;
#X connect 56 0 62 0;
#X connect 57 0 63 0;
#X connect 58 0 64 0;
#X connect 59 0 65 0;
#X connect 60 0 66 0;
#X connect 61 0 67 0;
#X connect 62 0 31 0;
#X connect 63 0 33 0;
#X connect 64 0 32 0;
#X connect 65 0 34 0;
#X connect 66 0 36 0;
#X connect 67 0 35 0;
#X connect 68 0 77 0;
#X connect 69 0 22 0;
#X connect 70 0 22 0;
#X connect 71 0 22 0;
#X connect 72 0 74 2;
#X connect 73 0 52 0;
#X connect 74 0 1 0;
#X connect 75 0 79 0;
#X connect 77 0 0 0;
#X connect 78 0 79 0;
#X connect 79 0 43 0;
#X connect 80 0 55 0;
#X connect 80 0 37 0;
#X connect 81 0 46 0;
#X connect 82 0 74 3;
