#N canvas 409 15 916 691 12;
#X floatatom 146 50 5 0 0 0 - - -, f 5;
#X obj 86 85 gemhead;
#X obj 168 117 translateXYZ;
#X obj 167 157 part_head;
#X obj 172 197 part_source 20;
#X obj 167 236 part_velocity sphere;
#X obj 169 272 part_killold;
#X obj 200 394 part_color;
#X floatatom 371 249 5 0 0 0 - - -, f 5;
#X floatatom 314 9 5 0 0 0 - - -, f 5;
#X obj 374 279 / 255;
#X floatatom 433 246 5 0 0 0 - - -, f 5;
#X obj 434 274 / 255;
#X obj 434 299 t b f;
#X floatatom 503 245 5 0 0 0 - - -, f 5;
#X obj 503 265 / 255;
#X obj 503 292 t b f;
#X obj 380 345 pack f f f;
#X floatatom 410 383 5 0 255 0 - - -, f 5;
#X obj 410 405 / 255;
#X obj 410 461 pack f f f;
#X floatatom 492 375 5 0 0 0 - - -, f 5;
#X obj 490 395 / 255;
#X obj 487 418 t b f;
#X floatatom 564 376 5 0 0 0 - - -, f 5;
#X obj 564 398 / 255;
#X obj 564 423 t b f;
#X obj 203 440 part_render;
#X msg 63 265 draw line;
#X msg 77 303 draw point;
#X floatatom 79 408 5 0 0 0 - - -, f 5;
#X floatatom 316 472 5 0 0 0 - - -, f 5;
#X floatatom 537 74 5 0 0 0 - - -, f 5;
#X obj 537 96 t b f;
#X floatatom 469 72 5 0 0 0 - - -, f 5;
#X obj 469 94 t b f;
#X floatatom 414 74 5 0 0 0 - - -, f 5;
#X obj 414 96 t b f;
#X floatatom 355 77 5 0 0 0 - - -, f 5;
#X obj 379 163 pack f f f f;
#X obj 42 141 gemhead;
#X obj 42 179 world_light;
#X obj 79 33 tgl 15 0 empty empty empty 17 7 0 10 -262144 -1 -1 0 1
;
#X obj 32 62 tgl 15 0 empty empty empty 17 7 0 10 -262144 -1 -1 0 1
;
#X text 321 501 comment;
#X obj 207 480 sphere;
#X obj 684 196 gwin;
#X connect 0 0 2 3;
#X connect 1 0 2 0;
#X connect 2 0 3 0;
#X connect 3 0 4 0;
#X connect 4 0 5 0;
#X connect 5 0 6 0;
#X connect 6 0 7 0;
#X connect 7 0 27 0;
#X connect 8 0 10 0;
#X connect 9 0 4 1;
#X connect 10 0 17 0;
#X connect 11 0 12 0;
#X connect 12 0 13 0;
#X connect 13 0 17 0;
#X connect 13 1 17 1;
#X connect 14 0 15 0;
#X connect 15 0 16 0;
#X connect 16 0 17 0;
#X connect 16 1 17 2;
#X connect 17 0 7 1;
#X connect 18 0 19 0;
#X connect 19 0 20 0;
#X connect 20 0 7 2;
#X connect 21 0 22 0;
#X connect 22 0 23 0;
#X connect 23 0 20 0;
#X connect 23 1 20 1;
#X connect 24 0 25 0;
#X connect 25 0 26 0;
#X connect 26 0 20 0;
#X connect 26 1 20 2;
#X connect 27 0 45 0;
#X connect 28 0 27 0;
#X connect 30 0 45 1;
#X connect 31 0 45 2;
#X connect 32 0 33 0;
#X connect 33 0 39 0;
#X connect 33 1 39 3;
#X connect 34 0 35 0;
#X connect 35 0 39 0;
#X connect 35 1 39 2;
#X connect 36 0 37 0;
#X connect 37 0 39 0;
#X connect 37 1 39 1;
#X connect 38 0 39 0;
#X connect 39 0 5 2;
#X connect 40 0 41 0;
#X connect 42 0 1 0;
#X connect 43 0 40 0;
