#N canvas 526 253 450 300 12;
#X obj 15 48 gwin;
#X msg 210 112 0 1 0 0;
#X msg 210 79 1 1 1 0;
#X msg 245 43 2 1 1 2;
#X msg 348 79 all bang;
#X msg 228 13 3 1 -0.6 2;
#X obj 201 138 clone 10 series_num;
#X connect 1 0 6 0;
#X connect 2 0 6 0;
#X connect 3 0 6 0;
#X connect 4 0 6 3;
#X connect 5 0 6 0;
