#N canvas 742 271 450 300 12;
#X obj 15 48 gwin;
#X msg 190 194 0 1 0 0;
#X msg 190 161 1 1 1 0;
#X msg 328 161 all bang;
#X obj 181 220 clone 10 series_num;
#X msg 152 21 6 1 1.4 2;
#X msg 138 0 7 1 4 0;
#X msg 194 136 2 1 3 2;
#X msg 177 106 3 1 -2 2;
#X msg 165 77 4 1 -3.5 1.5;
#X msg 166 51 5 1 -2 0;
#X connect 1 0 4 0;
#X connect 2 0 4 0;
#X connect 3 0 4 3;
#X connect 5 0 4 0;
#X connect 6 0 4 0;
#X connect 7 0 4 0;
#X connect 8 0 4 0;
#X connect 9 0 4 0;
#X connect 10 0 4 0;
