#N canvas 526 253 450 300 12;
#X obj 15 48 gwin;
#X msg 190 194 0 1 0 0;
#X msg 190 161 1 1 1 0;
#X msg 194 136 2 1 1 2;
#X msg 328 161 all bang;
#X msg 177 106 3 1 -0.6 2;
#X obj 181 220 clone 10 series_num;
#X msg 165 77 4 1 -1.2 1.5;
#X msg 166 51 5 1 -3 0;
#X msg 152 21 6 1 1.4 2;
#X connect 1 0 6 0;
#X connect 2 0 6 0;
#X connect 3 0 6 0;
#X connect 4 0 6 3;
#X connect 5 0 6 0;
#X connect 7 0 6 0;
#X connect 8 0 6 0;
#X connect 9 0 6 0;
