#N canvas 728 80 450 443 12;
#X obj 62 191 gwin;
#X msg 256 136 all 0;
#X msg 256 161 all 1;
#X obj 302 18 bng 15 250 50 0 empty empty empty 17 7 0 10 -262144 -1
-1;
#X obj 225 85 random 64;
#X floatatom 225 109 5 0 0 0 - - -, f 5;
#X msg 190 148 \$1 bang;
#X obj 311 56 metro 20;
#X floatatom 98 20 5 0 0 0 - - -, f 5;
#X floatatom 163 21 5 0 0 0 - - -, f 5;
#X obj 92 62 pack 1 1 1;
#X obj 132 40 bng 15 250 50 0 empty empty empty 17 7 0 10 -262144 -1
-1;
#X floatatom 52 17 5 0 0 0 - - -, f 5;
#X msg 31 92 view 0 -2 \$1 \$2 \$3;
#X obj 66 36 / 50;
#X msg 339 20 0;
#X obj 281 295 pack 0 0 0;
#X floatatom 350 208 5 0 0 0 - - -, f 5;
#X floatatom 395 209 5 0 0 0 - - -, f 5;
#X floatatom 307 209 5 0 0 0 - - -, f 5;
#X obj 310 258 t b a;
#X obj 369 256 t b a;
#X obj 160 395 clone 64 cube_pos1_2;
#X obj 229 20 loadbang;
#X obj 353 126 counter 20;
#X msg 273 316 all \$1 \$2 \$3;
#X obj 112 347 clone 64 cube_pos;
#X connect 1 0 26 0;
#X connect 2 0 26 0;
#X connect 3 0 7 0;
#X connect 4 0 5 0;
#X connect 5 0 6 0;
#X connect 6 0 26 0;
#X connect 7 0 4 0;
#X connect 8 0 10 1;
#X connect 8 0 11 0;
#X connect 9 0 10 2;
#X connect 9 0 11 0;
#X connect 10 0 13 0;
#X connect 11 0 10 0;
#X connect 12 0 14 0;
#X connect 13 0 0 0;
#X connect 14 0 10 0;
#X connect 15 0 7 0;
#X connect 16 0 25 0;
#X connect 17 0 20 0;
#X connect 18 0 21 0;
#X connect 19 0 16 0;
#X connect 20 0 16 0;
#X connect 20 1 16 1;
#X connect 21 0 16 0;
#X connect 21 1 16 2;
#X connect 23 0 7 0;
#X connect 23 0 24 0;
#X connect 24 0 18 0;
#X connect 24 0 17 0;
#X connect 24 0 19 0;
#X connect 25 0 22 1;
#X connect 25 0 26 1;
