#N canvas 886 54 450 443 12;
#X obj 27 165 gwin;
#X msg 220 220 all 0;
#X msg 220 245 all 1;
#X obj 291 17 bng 15 250 50 0 empty empty empty 17 7 0 10 -262144 -1
-1;
#X floatatom 150 142 5 0 0 0 - - -, f 5;
#X msg 328 19 0;
#X obj 270 294 pack 0 0 0;
#X floatatom 339 207 5 0 0 0 - - -, f 5;
#X floatatom 384 208 5 0 0 0 - - -, f 5;
#X floatatom 296 208 5 0 0 0 - - -, f 5;
#X obj 299 257 t b a;
#X obj 358 255 t b a;
#X obj 218 19 loadbang;
#X obj 342 125 counter 20;
#X msg 262 315 all \$1 \$2 \$3;
#X obj 214 84 random 125;
#X msg 358 78 0;
#X msg 149 175 \$1 2;
#X obj 101 346 clone 125 cube_pos;
#X obj 149 394 clone 125 cube_pos1_2;
#X obj 333 84 bng 15 250 50 0 empty empty empty 17 7 0 10 -262144 -1
-1;
#X obj 300 55 metro 20;
#X connect 1 0 18 0;
#X connect 2 0 18 0;
#X connect 3 0 21 0;
#X connect 4 0 17 0;
#X connect 5 0 21 0;
#X connect 6 0 14 0;
#X connect 7 0 10 0;
#X connect 8 0 11 0;
#X connect 9 0 6 0;
#X connect 10 0 6 0;
#X connect 10 1 6 1;
#X connect 11 0 6 0;
#X connect 11 1 6 2;
#X connect 12 0 13 0;
#X connect 12 0 1 0;
#X connect 12 0 21 0;
#X connect 13 0 8 0;
#X connect 13 0 7 0;
#X connect 13 0 9 0;
#X connect 14 0 18 1;
#X connect 14 0 19 1;
#X connect 15 0 4 0;
#X connect 16 0 13 0;
#X connect 17 0 18 0;
#X connect 20 0 13 0;
#X connect 21 0 15 0;
