#N canvas 65 140 450 300 12;
#X obj 142 52 gemhead;
#X obj 147 170 translateXYZ 0 0 0;
#X obj 349 2 init \$1;
#X obj 344 119 i;
#X floatatom 346 182 5 0 0 0 - - -, f 5;
#X obj 300 119 i;
#X floatatom 305 184 5 0 0 0 - - -, f 5;
#X obj 302 92 / 16;
#X obj 392 118 i;
#X floatatom 392 142 5 0 0 0 - - -, f 5;
#X obj 394 91 % 4;
#X obj 346 92 / 4;
#X obj 343 147 % 4;
#X obj 300 151 % 4;
#X obj 303 213 / 2.5;
#X obj 351 210 / 2.5;
#X obj 399 174 / 2.5;
#X obj 307 255 - 0.6;
#X obj 360 251 - 0.6;
#X obj 400 228 - 0.6;
#X obj 106 28 tgl 15 0 empty empty empty 17 7 0 10 -262144 -1 -1 0
1;
#X obj 51 11 inlet;
#X obj 148 136 ortho;
#X msg 102 201 draw line;
#X obj 163 83 alpha;
#X obj 153 113 color 0 1 1 0.05;
#X obj 145 272 cube 0.2;
#X connect 0 0 23 0;
#X connect 0 0 24 0;
#X connect 1 0 26 0;
#X connect 2 0 7 0;
#X connect 2 0 11 0;
#X connect 2 0 10 0;
#X connect 3 0 12 0;
#X connect 4 0 15 0;
#X connect 5 0 13 0;
#X connect 6 0 14 0;
#X connect 7 0 5 0;
#X connect 8 0 9 0;
#X connect 9 0 16 0;
#X connect 10 0 8 0;
#X connect 11 0 3 0;
#X connect 12 0 4 0;
#X connect 13 0 6 0;
#X connect 14 0 17 0;
#X connect 15 0 18 0;
#X connect 16 0 19 0;
#X connect 17 0 1 1;
#X connect 18 0 1 2;
#X connect 19 0 1 3;
#X connect 20 0 0 0;
#X connect 21 0 20 0;
#X connect 22 0 1 0;
#X connect 23 0 26 0;
#X connect 24 0 25 0;
#X connect 25 0 22 0;
