#N canvas 403 229 450 457 12;
#X obj 142 52 gemhead;
#X obj 163 249 translateXYZ 0 0 0;
#X obj 378 66 init \$1;
#X obj 373 183 i;
#X floatatom 375 246 5 0 0 0 - - -, f 5;
#X obj 329 183 i;
#X floatatom 334 248 5 0 0 0 - - -, f 5;
#X obj 331 156 / 16;
#X obj 421 182 i;
#X floatatom 421 206 5 0 0 0 - - -, f 5;
#X obj 423 155 % 4;
#X obj 375 156 / 4;
#X obj 372 211 % 4;
#X obj 329 215 % 4;
#X obj 332 277 / 2.5;
#X obj 380 274 / 2.5;
#X obj 428 238 / 2.5;
#X obj 336 319 - 0.6;
#X obj 389 315 - 0.6;
#X obj 429 292 - 0.6;
#X obj 106 28 tgl 15 0 empty empty empty 17 7 0 10 -262144 -1 -1 1
1;
#X obj 51 11 inlet;
#X obj 167 146 ortho;
#X msg 50 211 draw fill;
#X obj 149 83 alpha;
#X obj 151 110 color 0 1 1 0.05;
#X obj 141 318 cube 0.2;
#X obj 245 43 inlet;
#X obj 225 142 inlet;
#X obj 199 219 rotateXYZ 0 0 0;
#X obj 217 188 unpack 0 0 0;
#X connect 0 0 23 0;
#X connect 0 0 24 0;
#X connect 1 0 26 0;
#X connect 2 0 7 0;
#X connect 2 0 11 0;
#X connect 2 0 10 0;
#X connect 3 0 12 0;
#X connect 4 0 15 0;
#X connect 5 0 13 0;
#X connect 6 0 14 0;
#X connect 7 0 5 0;
#X connect 8 0 9 0;
#X connect 9 0 16 0;
#X connect 10 0 8 0;
#X connect 11 0 3 0;
#X connect 12 0 4 0;
#X connect 13 0 6 0;
#X connect 14 0 17 0;
#X connect 15 0 18 0;
#X connect 16 0 19 0;
#X connect 17 0 1 1;
#X connect 18 0 1 2;
#X connect 19 0 1 3;
#X connect 20 0 0 0;
#X connect 21 0 20 0;
#X connect 22 0 29 0;
#X connect 23 0 26 0;
#X connect 24 0 25 0;
#X connect 25 0 22 0;
#X connect 27 0 25 1;
#X connect 28 0 30 0;
#X connect 29 0 1 0;
#X connect 30 0 29 1;
#X connect 30 1 29 2;
#X connect 30 2 29 3;
