#N canvas 65 56 1301 712 16;
#X obj 290 167 tabread mag;
#X obj 296 30 bng 15 250 50 0 empty empty empty 17 7 0 10 -262144 -1
-1;
#X obj 292 79 metro 50;
#X obj 34 155 tgl 15 0 empty empty empty 17 7 0 10 -262144 -1 -1 0
1;
#X obj 39 194 gemhead;
#X obj 298 306 hsl 128 15 1 0 0 0 empty empty empty -2 -8 0 10 -258113
-1 -1 9121 1;
#X obj 464 310 hsl 128 15 0 1 0 0 empty empty empty -2 -8 0 10 -4034
-1 -1 171 1;
#X obj 619 309 hsl 128 15 0 1 0 0 empty empty empty -2 -8 0 10 -4160
-1 -1 104 1;
#X msg 1013 151 draw fill;
#X floatatom 293 265 5 0 0 0 - - -, f 5;
#X floatatom 436 253 5 0 0 0 - - -, f 5;
#X floatatom 592 256 5 0 0 0 - - -, f 5;
#X obj 433 178 tabread mag;
#X obj 439 41 bng 15 250 50 0 empty empty empty 17 7 0 10 -262144 -1
-1;
#X obj 435 90 metro 50;
#X obj 591 181 tabread mag;
#X obj 597 44 bng 15 250 50 0 empty empty empty 17 7 0 10 -262144 -1
-1;
#X obj 593 93 metro 50;
#X msg 594 136 37;
#X msg 505 33 0;
#X msg 545 35 1;
#X msg 654 35 0;
#X msg 698 35 1;
#X msg 334 28 0;
#X msg 374 30 1;
#X obj 290 216 / 30;
#X obj 433 210 / 30;
#X obj 592 221 / 30;
#X obj 764 101 gemwin;
#X msg 740 33 create;
#X msg 805 34 destroy;
#X obj 871 63 tgl 15 0 empty empty empty 17 7 0 10 -262144 -1 -1 1
1;
#X obj 135 623 rotateXYZ;
#X obj 245 621 rotateXYZ;
#X floatatom 1093 434 5 0 0 0 - - -, f 5;
#X msg 1015 213 draw line;
#X obj 263 596 r X;
#X obj 1093 497 s Y;
#X obj 1148 497 s Z;
#X obj 1040 497 s X;
#X obj 1015 246 s line;
#X obj 146 601 r X;
#X obj 143 643 r line;
#X obj 249 643 r line;
#X obj 288 573 r Y;
#X obj 170 577 r Y;
#X obj 297 595 r Z;
#X obj 192 598 r Z;
#X obj 353 618 rotateXYZ;
#X obj 371 593 r X;
#X obj 357 640 r line;
#X obj 396 570 r Y;
#X obj 405 593 r Z;
#X obj 462 617 rotateXYZ;
#X obj 480 592 r X;
#X obj 466 639 r line;
#X obj 505 569 r Y;
#X obj 514 592 r Z;
#X obj 569 616 rotateXYZ;
#X obj 587 591 r X;
#X obj 573 638 r line;
#X obj 612 568 r Y;
#X obj 621 591 r Z;
#X obj 1030 302 bng 15 250 50 0 empty empty empty 17 7 0 10 -262144
-1 -1;
#X obj 1036 366 i;
#X obj 1097 367 + 1;
#X msg 974 332 0;
#X obj 1029 336 metro 20;
#X msg 1014 181 draw point;
#X obj 24 486 colorRGB;
#X floatatom 365 445 5 0 0 0 - - -, f 5;
#X floatatom 427 444 5 0 0 0 - - -, f 5;
#X floatatom 498 444 5 0 0 0 - - -, f 5;
#X floatatom 567 445 5 0 0 0 - - -, f 5;
#X obj 427 413 / 10;
#X floatatom 631 443 5 0 0 0 - - -, f 5;
#X obj 496 413 / 10;
#X obj 366 411 / 7;
#X obj 632 412 / 7;
#X floatatom 297 445 5 0 0 0 - - -, f 5;
#X obj 297 413 / 7;
#X floatatom 365 445 5 0 0 0 - - -, f 5;
#X obj 673 614 rotateXYZ;
#X obj 691 589 r X;
#X obj 677 636 r line;
#X obj 716 566 r Y;
#X obj 725 589 r Z;
#X obj 775 612 rotateXYZ;
#X obj 793 587 r X;
#X obj 779 634 r line;
#X obj 818 564 r Y;
#X obj 827 587 r Z;
#X obj 281 959 env~;
#X floatatom 281 1002 5 0 0 0 - - -, f 5;
#X obj 281 906 adc~;
#N canvas 0 50 450 250 (subpatch) 0;
#X array array1 100 float 5;
#A 0 -0.00158696 -0.00167852 -0.00250252 -0.0021363 -0.00253304 -0.00112918
-0.00207526 -0.00228889 -0.00265511 -0.000946074 -9.15555e-05 -0.00137333
-0.00170904 -0.000488296 -0.000122074 -0.000305185 -0.0028077 -0.00170904
9.15555e-05 -0.00109867 -0.002472 -0.00250252 -0.000946074 0.000152593
-0.00201422 -0.0013123 -0.00125126 -0.00140385 -0.00173956 -0.00173956
-0.000976592 -0.000762963 -0.000488296 -0.000854518 -0.00210578 -0.00112918
-0.00021363 -0.000854518 -0.00152593 -0.000244148 0.00061037 -0.000732444
-0.000854518 0.000701926 0.000457778 -0.000976592 -0.00137333 -0.000854518
-0.000152593 -0.000274667 0 0 -0.00061037 0.00109867 0.000854518 0.000762963
0.000305185 -0.000793481 0.000152593 -3.05185e-05 -6.1037e-05 0.000396741
-0.000854518 -0.000793481 -0.000396741 0.00149541 0.000274667 -0.000793481
0.000274667 0.0013123 0.00100711 0.000518815 -0.00140385 -0.000885037
-0.000122074 -0.000854518 -0.0011597 -0.00149541 0.000701926 0.000732444
0.000183111 0.000335704 0.00061037 0.000671407 0.000732444 0.000946074
0.00143437 0.0011597 0.0011597 0.00143437 0.00244148 0.0021363 0.00122074
0.000885037 0.000671407 0.0013123 0.000488296 0.000549333 0.000915555
0.0011597;
#X coords 0 1 100 -1 200 140 1;
#X restore 616 874 graph;
#X obj 399 995 tabwrite~ array1;
#X obj 399 907 bng 15 250 50 0 empty empty empty 17 7 0 10 -262144
-1 -1;
#X obj 400 949 metro 100;
#X text 977 186 選;
#X text 388 772 麥克風;
#X obj 566 412 / 7;
#X msg 439 129 20;
#X obj 1194 842 bng 15 250 50 0 empty empty empty 17 7 0 10 -262144
-1 -1;
#X obj 1152 926 readsf~;
#X msg 1119 861 1;
#X msg 1074 860 0;
#X obj 1121 976 dac~;
#X obj 1178 962 block_transfer;
#N canvas 0 50 450 250 (subpatch) 0;
#X array mag 63 float 0;
#X coords 0 100 62 0 200 140 1 0 0;
#X restore 843 878 graph;
#X obj 1178 1000 tabwrite~ mag;
#X obj 1337 970 metro 50;
#X obj 1328 900 bng 15 250 50 0 empty empty empty 17 7 0 10 -262144
-1 -1;
#X floatatom 44 733 5 0 0 0 - - -, f 5;
#X obj 24 619 rotateXYZ;
#X obj 35 597 r X;
#X obj 32 639 r line;
#X obj 59 573 r Y;
#X obj 81 594 r Z;
#X obj 29 685 cylinder;
#X floatatom 151 736 5 0 0 0 - - -, f 5;
#X floatatom 262 738 5 0 0 0 - - -, f 5;
#X floatatom 363 733 5 0 0 0 - - -, f 5;
#X floatatom 478 735 5 0 0 0 - - -, f 5;
#X floatatom 575 732 5 0 0 0 - - -, f 5;
#X floatatom 689 727 5 0 0 0 - - -, f 5;
#X floatatom 786 730 5 0 0 0 - - -, f 5;
#X obj 568 794 sphere;
#X obj 140 689 sphere;
#X obj 250 690 sphere;
#X obj 355 687 sphere;
#X obj 469 684 sphere;
#X obj 676 681 sphere;
#X obj 778 679 sphere;
#X msg 292 125 5;
#X obj 572 683 sphere;
#X msg 918 29 dimen 1500 700;
#X msg 1156 889 open test3.wav;
#X connect 0 0 25 0;
#X connect 0 0 76 0;
#X connect 0 0 80 0;
#X connect 0 0 119 1;
#X connect 1 0 2 0;
#X connect 2 0 134 0;
#X connect 3 0 4 0;
#X connect 4 0 69 0;
#X connect 5 0 69 1;
#X connect 6 0 69 2;
#X connect 7 0 69 3;
#X connect 8 0 40 0;
#X connect 9 0 5 0;
#X connect 10 0 6 0;
#X connect 11 0 7 0;
#X connect 12 0 26 0;
#X connect 12 0 77 0;
#X connect 12 0 101 0;
#X connect 13 0 14 0;
#X connect 14 0 102 0;
#X connect 15 0 27 0;
#X connect 15 0 74 0;
#X connect 15 0 78 0;
#X connect 16 0 17 0;
#X connect 17 0 18 0;
#X connect 18 0 15 0;
#X connect 19 0 14 0;
#X connect 20 0 14 0;
#X connect 21 0 17 0;
#X connect 22 0 17 0;
#X connect 23 0 2 0;
#X connect 24 0 2 0;
#X connect 25 0 9 0;
#X connect 26 0 10 0;
#X connect 27 0 11 0;
#X connect 29 0 28 0;
#X connect 30 0 28 0;
#X connect 31 0 28 0;
#X connect 32 0 128 0;
#X connect 33 0 129 0;
#X connect 34 0 37 0;
#X connect 34 0 38 0;
#X connect 34 0 39 0;
#X connect 35 0 40 0;
#X connect 36 0 33 1;
#X connect 41 0 32 1;
#X connect 42 0 128 0;
#X connect 43 0 129 0;
#X connect 44 0 33 2;
#X connect 45 0 32 2;
#X connect 46 0 33 3;
#X connect 47 0 32 3;
#X connect 48 0 130 0;
#X connect 49 0 48 1;
#X connect 50 0 130 0;
#X connect 51 0 48 2;
#X connect 52 0 48 3;
#X connect 53 0 131 0;
#X connect 54 0 53 1;
#X connect 55 0 131 0;
#X connect 56 0 53 2;
#X connect 57 0 53 3;
#X connect 58 0 135 0;
#X connect 59 0 58 1;
#X connect 60 0 135 0;
#X connect 61 0 58 2;
#X connect 62 0 58 3;
#X connect 63 0 67 0;
#X connect 64 0 65 0;
#X connect 64 0 34 0;
#X connect 65 0 64 1;
#X connect 66 0 64 0;
#X connect 67 0 64 0;
#X connect 68 0 40 0;
#X connect 69 0 119 0;
#X connect 70 0 128 1;
#X connect 70 0 133 1;
#X connect 71 0 129 1;
#X connect 72 0 130 1;
#X connect 73 0 131 1;
#X connect 74 0 71 0;
#X connect 75 0 135 1;
#X connect 76 0 72 0;
#X connect 77 0 70 0;
#X connect 78 0 75 0;
#X connect 79 0 132 1;
#X connect 80 0 79 0;
#X connect 82 0 132 0;
#X connect 83 0 82 1;
#X connect 84 0 132 0;
#X connect 85 0 82 2;
#X connect 86 0 82 3;
#X connect 87 0 133 0;
#X connect 88 0 87 1;
#X connect 89 0 133 0;
#X connect 90 0 87 2;
#X connect 91 0 87 3;
#X connect 92 0 93 0;
#X connect 97 0 98 0;
#X connect 98 0 96 0;
#X connect 101 0 73 0;
#X connect 102 0 12 0;
#X connect 103 0 137 0;
#X connect 104 0 107 0;
#X connect 104 0 107 1;
#X connect 104 0 108 0;
#X connect 105 0 104 0;
#X connect 106 0 104 0;
#X connect 108 0 110 0;
#X connect 111 0 110 0;
#X connect 112 0 111 0;
#X connect 113 0 119 2;
#X connect 114 0 119 0;
#X connect 115 0 114 1;
#X connect 116 0 119 0;
#X connect 117 0 114 2;
#X connect 118 0 114 3;
#X connect 119 0 128 0;
#X connect 120 0 128 2;
#X connect 121 0 129 2;
#X connect 122 0 130 2;
#X connect 128 0 33 0;
#X connect 129 0 130 0;
#X connect 130 0 131 0;
#X connect 131 0 135 0;
#X connect 132 0 133 0;
#X connect 134 0 0 0;
#X connect 135 0 132 0;
#X connect 136 0 28 0;
#X connect 137 0 104 0;
