#N canvas 113 119 450 396 12;
#X obj 191 -2342 inlet~;
#X obj 212 -2283 rfft~;
#X obj 181 -2232 *~;
#X obj 232 -2235 *~;
#X obj 206 -2185 +~;
#X obj 215 -2144 sqrt~;
#X obj 208 -2069 outlet~;
#X obj 57 -2215 block~ 1024 16;
#X obj 211 -2107 *~ 0.8;
#X connect 0 0 1 0;
#X connect 1 0 2 0;
#X connect 1 0 2 1;
#X connect 1 1 3 0;
#X connect 1 1 3 1;
#X connect 2 0 4 0;
#X connect 3 0 4 0;
#X connect 4 0 5 0;
#X connect 5 0 8 0;
#X connect 8 0 6 0;
