#N canvas 140 337 520 425 12;
#X obj 38 128 gemhead;
#X msg 53 255 draw line;
#X obj 317 41 init \$1;
#X obj 238 121 expr mag[$f1];
#X obj 371 88 / 8;
#X floatatom 361 174 5 0 0 0 - - -, f 5;
#X obj 372 115 i;
#X obj 411 90 % 8;
#X floatatom 418 186 5 0 0 0 - - -, f 5;
#X obj 168 282 translateXYZ 0 0 0;
#X obj 38 92 tgl 15 0 empty empty empty 17 7 0 10 -262144 -1 -1 0 1
;
#X obj 36 56 inlet;
#X obj 129 413 cube 0.2;
#X obj 355 147 - 3.5;
#X obj 418 141 - 3.5;
#X obj 170 315 rotateXYZ 0 0 0;
#X obj 227 83 metro 50;
#X obj 226 39 receive load;
#X obj 310 -68 loadbang;
#X obj 308 -14 send load;
#X obj 247 -40 bng 15 250 50 0 empty empty empty 17 7 0 10 -262144
-1 -1;
#X obj 104 232 rotateXYZ 0 0 0;
#X obj 194 200 inlet;
#X obj 162 364 alpha;
#X floatatom 187 338 1 0 1 0 - - -, f 1;
#X obj 243 229 * 50;
#X floatatom 264 164 5 0 0 0 - - -, f 5;
#X obj 184 124 / 20;
#X msg 167 172 0 0.8 1 \$1;
#X obj 67 191 color 0 0.8 1 1;
#X msg 312 326 \$1;
#X obj 224 381 / 100;
#X obj 171 150 clip 0 0.3;
#X obj 268 359 clip 0 10;
#X connect 0 0 1 0;
#X connect 0 0 29 0;
#X connect 1 0 12 0;
#X connect 2 0 3 0;
#X connect 2 0 4 0;
#X connect 2 0 7 0;
#X connect 3 0 25 0;
#X connect 3 0 26 0;
#X connect 3 0 27 0;
#X connect 4 0 6 0;
#X connect 5 0 9 1;
#X connect 6 0 13 0;
#X connect 7 0 14 0;
#X connect 8 0 9 2;
#X connect 9 0 15 0;
#X connect 10 0 0 0;
#X connect 11 0 10 0;
#X connect 13 0 5 0;
#X connect 14 0 8 0;
#X connect 15 0 23 0;
#X connect 16 0 3 0;
#X connect 17 0 16 0;
#X connect 18 0 19 0;
#X connect 20 0 19 0;
#X connect 21 0 9 0;
#X connect 22 0 21 3;
#X connect 23 0 12 0;
#X connect 24 0 23 0;
#X connect 25 0 15 3;
#X connect 26 0 30 0;
#X connect 27 0 32 0;
#X connect 28 0 29 1;
#X connect 29 0 21 0;
#X connect 30 0 33 0;
#X connect 31 0 12 1;
#X connect 32 0 28 0;
#X connect 33 0 31 0;
