#N canvas 290 138 836 498 12;
#X obj 31 107 gwin;
#X obj 170 197 gemhead;
#X obj 178 270 translateXYZ;
#X msg 234 364 draw line;
#X obj 185 421 gemlist;
#X obj 176 391 until;
#X floatatom 519 269 5 0 0 0 - - -, f 5;
#X floatatom 449 264 5 0 0 0 - - -, f 5;
#X floatatom 634 272 5 0 0 0 - - -, f 5;
#X obj 198 470 rotateXYZ 0 0 0;
#X obj 199 306 rotateXYZ 0 0 0;
#X obj 193 447 cube;
#X obj 198 499 translateXYZ 0 0 0;
#X floatatom 408 284 5 0 0 0 - - -, f 5;
#X obj 405 321 / 100;
#X obj 194 561 scaleXYZ 1 1 1;
#X obj 265 336 scaleXYZ 1 1 1;
#X msg 169 343 20;
#X obj 183 239 colorRGB 1 1 1;
#X msg 247 387 draw fill;
#X obj 468 2 bng 15 250 50 0 empty empty empty 17 7 0 10 -262144 -1
-1;
#X obj 426 86 readsf~;
#X msg 390 25 1;
#X msg 348 20 0;
#X obj 395 136 dac~;
#X obj 433 111 block_transfer;
#X obj 434 138 tabwrite~ mag;
#X obj 551 72 bng 15 250 50 0 empty empty empty 17 7 0 10 -262144 -1
-1;
#X msg 428 51 open test.wav;
#X obj 550 107 metro 50;
#N canvas 0 50 450 250 (subpatch) 0;
#X array mag 64 float 0;
#X coords 0 50 63 0 200 140 1 0 0;
#X restore 614 29 graph;
#X obj 412 216 expr mag[4];
#X obj 512 215 expr mag[8];
#X obj 609 213 expr mag[12];
#X connect 1 0 18 0;
#X connect 2 0 10 0;
#X connect 3 0 11 0;
#X connect 4 0 11 0;
#X connect 5 0 4 0;
#X connect 6 0 9 3;
#X connect 6 0 10 2;
#X connect 7 0 9 1;
#X connect 7 0 10 1;
#X connect 8 0 9 2;
#X connect 8 0 10 3;
#X connect 9 0 12 0;
#X connect 10 0 16 0;
#X connect 11 0 9 0;
#X connect 12 0 15 0;
#X connect 13 0 14 0;
#X connect 14 0 15 3;
#X connect 14 0 15 2;
#X connect 14 0 15 1;
#X connect 14 0 16 3;
#X connect 14 0 16 2;
#X connect 14 0 16 1;
#X connect 16 0 17 0;
#X connect 17 0 5 0;
#X connect 18 0 2 0;
#X connect 19 0 11 0;
#X connect 20 0 28 0;
#X connect 21 0 24 0;
#X connect 21 0 24 1;
#X connect 21 0 25 0;
#X connect 22 0 21 0;
#X connect 23 0 21 0;
#X connect 25 0 26 0;
#X connect 27 0 29 0;
#X connect 28 0 21 0;
#X connect 29 0 26 0;
#X connect 29 0 31 0;
#X connect 29 0 32 0;
#X connect 29 0 33 0;
#X connect 31 0 7 0;
#X connect 32 0 6 0;
#X connect 33 0 8 0;
#X coords 0 498 1 497 85 60 0;
