#N canvas 391 156 765 483 12;
#X obj 207 407 color 0 0 1;
#X floatatom 282 177 5 0 0 0 - - -, f 5;
#X obj 267 70 metro 50;
#X obj 389 -29 loadbang;
#X obj 387 25 send load;
#X obj 266 26 receive load;
#X obj 326 -1 bng 15 250 50 0 empty empty empty 17 7 0 10 -262144 -1
-1;
#X obj 282 144 expr mag[$f1];
#X floatatom 279 236 5 0 0 0 - - -, f 5;
#X obj 112 127 gemhead;
#X floatatom 215 219 5 0 0 0 - - -, f 5;
#X obj 223 175 inlet;
#X obj 148 314 rotateXYZ 0 0 0;
#X obj 115 38 inlet;
#X obj 114 84 tgl 15 0 empty empty empty 17 7 0 10 -262144 -1 -1 0
1;
#X obj 423 204 k_range 0 40 0 360;
#X obj 206 430 cube 0.1;
#X obj 223 262 +;
#X obj 285 201 expr ($f1/5);
#X obj 369 241 expr (sin($f1/360*3.141592));
#X floatatom 369 301 5 0 0 0 - - -, f 5;
#X obj 368 271 pow 2;
#X obj 374 70 i;
#X floatatom 391 155 5 0 0 0 - - -, f 5;
#X obj 425 100 + 1;
#X obj 332 105 % 40;
#X obj 302 326 * 1;
#X obj 306 277 log;
#X obj 307 304 / 2;
#X obj 326 240 + 1;
#X obj 303 356 + 1;
#X obj 226 385 translateXYZ 0 1 0;
#X msg 142 388 draw line;
#X obj 522 11 loadbang;
#X obj 496 55 \$1;
#X connect 0 0 16 0;
#X connect 1 0 18 0;
#X connect 2 0 7 0;
#X connect 2 0 22 0;
#X connect 3 0 4 0;
#X connect 5 0 2 0;
#X connect 6 0 4 0;
#X connect 7 0 1 0;
#X connect 8 0 12 3;
#X connect 8 0 17 1;
#X connect 9 0 32 0;
#X connect 9 0 12 0;
#X connect 10 0 17 0;
#X connect 11 0 10 0;
#X connect 12 0 31 0;
#X connect 13 0 14 0;
#X connect 14 0 9 0;
#X connect 15 0 8 0;
#X connect 15 0 19 0;
#X connect 17 0 12 3;
#X connect 18 0 29 0;
#X connect 19 0 21 0;
#X connect 21 0 20 0;
#X connect 22 0 24 0;
#X connect 22 0 25 0;
#X connect 24 0 22 1;
#X connect 25 0 23 0;
#X connect 26 0 30 0;
#X connect 27 0 28 0;
#X connect 28 0 26 0;
#X connect 29 0 27 0;
#X connect 30 0 31 2;
#X connect 31 0 0 0;
#X connect 32 0 16 0;
#X connect 33 0 34 0;
#X connect 34 0 15 0;
#X connect 34 0 7 0;
#X connect 34 0 22 1;
#X coords 0 483 1 482 85 60 0;
