#N canvas 520 84 846 684 12;
#X obj 380 9 bng 15 250 50 0 empty empty empty 17 7 0 10 -262144 -1
-1;
#X obj 337 94 readsf~;
#X msg 302 32 1;
#X msg 260 27 0;
#X obj 307 143 dac~;
#X obj 369 122 block_transfer;
#X msg 510 186 create;
#X msg 570 159 destroy;
#X obj 599 199 tgl 15 0 empty empty empty 17 7 0 10 -262144 -1 -1 0
1;
#N canvas 0 50 450 250 (subpatch) 0;
#X array mag 64 float 0;
#X coords 0 100 63 0 200 140 1 0 0;
#X restore 22 59 graph;
#X obj 355 203 tabwrite~ mag;
#X obj 549 248 gemwin;
#X msg 630 185 dimen 1000 700;
#X obj 752 282 bng 15 250 50 0 empty empty empty 17 7 0 10 -262144
-1 -1;
#X obj 559 425 i;
#X obj 671 425 + 1;
#X floatatom 613 442 5 0 0 0 - - -, f 5;
#X msg 559 382 0;
#X obj 632 401 metro 1000;
#X msg 646 369 0;
#X obj 682 329 t b b;
#X msg 768 383 50;
#X obj 484 120 metro 50;
#X msg 571 471 all \$1;
#X msg 492 512 all bang;
#X msg 652 555 all bang;
#X obj 481 564 clone 40 cube_circle;
#X obj 657 595 clone 64 cube_array;
#X obj 239 264 gemhead;
#X obj 247 337 translateXYZ;
#X msg 151 432 draw line;
#X obj 254 488 gemlist;
#X obj 245 458 until;
#X obj 267 537 rotateXYZ 0 0 0;
#X obj 255 366 rotateXYZ 0 0 0;
#X obj 267 566 translateXYZ 0 0 0;
#X obj 263 628 scaleXYZ 1 1 1;
#X obj 252 394 scaleXYZ 1 1 1;
#X obj 262 514 cube 0.5;
#X obj 252 306 colorRGB 0.8 1 0.5;
#X msg 280 426 10;
#X msg 339 58 open test3.wav;
#X obj 484 30 loadbang;
#X obj 571 64 t b b b;
#X connect 0 0 41 0;
#X connect 1 0 4 0;
#X connect 1 0 4 1;
#X connect 1 0 5 0;
#X connect 2 0 1 0;
#X connect 3 0 1 0;
#X connect 5 0 10 0;
#X connect 6 0 11 0;
#X connect 7 0 11 0;
#X connect 8 0 11 0;
#X connect 12 0 11 0;
#X connect 13 0 20 0;
#X connect 14 0 15 0;
#X connect 14 0 16 0;
#X connect 14 0 23 0;
#X connect 14 0 33 3;
#X connect 14 0 34 3;
#X connect 14 0 33 2;
#X connect 14 0 34 2;
#X connect 15 0 14 1;
#X connect 17 0 14 0;
#X connect 18 0 14 0;
#X connect 19 0 18 0;
#X connect 20 0 18 0;
#X connect 20 0 21 0;
#X connect 21 0 18 1;
#X connect 22 0 10 0;
#X connect 23 0 26 1;
#X connect 23 0 27 1;
#X connect 24 0 26 0;
#X connect 25 0 27 0;
#X connect 28 0 30 0;
#X connect 28 0 39 0;
#X connect 29 0 34 0;
#X connect 30 0 38 0;
#X connect 31 0 38 0;
#X connect 32 0 31 0;
#X connect 33 0 35 0;
#X connect 34 0 37 0;
#X connect 35 0 36 0;
#X connect 37 0 40 0;
#X connect 38 0 33 0;
#X connect 39 0 29 0;
#X connect 40 0 32 0;
#X connect 41 0 1 0;
#X connect 42 0 22 0;
#X connect 42 0 43 0;
#X connect 42 0 13 0;
#X connect 43 0 8 0;
#X connect 43 1 6 0;
#X connect 43 2 12 0;
